<svg width="109" height="108" viewBox="0 0 109 108" fill="none" xmlns="http://www.w3.org/2000/svg">
<g filter="url(#filter0_d_0_3551)">
<path d="M54.707 92C76.7984 92 94.707 74.0914 94.707 52C94.707 29.9086 76.7984 12 54.707 12C32.6156 12 14.707 29.9086 14.707 52C14.707 74.0914 32.6156 92 54.707 92Z" fill="#212A34"/>
</g>
<path d="M54.707 92C76.7984 92 94.707 74.0914 94.707 52C94.707 29.9086 76.7984 12 54.707 12C32.6156 12 14.707 29.9086 14.707 52C14.707 74.0914 32.6156 92 54.707 92Z" fill="#F5F8FF"/>
<mask id="mask0_0_3551" style="mask-type:alpha" maskUnits="userSpaceOnUse" x="30" y="28" width="49" height="48">
<rect x="30.707" y="28" width="48" height="48" fill="#C4C4C4"/>
</mask>
<g mask="url(#mask0_0_3551)">
<mask id="mask1_0_3551" style="mask-type:alpha" maskUnits="userSpaceOnUse" x="30" y="28" width="49" height="48">
<rect x="30.707" y="28" width="48" height="48" fill="#C4C4C4"/>
</mask>
<g mask="url(#mask1_0_3551)">
<path d="M61.0151 39.1946C59.0802 41.1614 58.0769 43.7838 58.0769 46.4062C58.0769 43.7838 57.0736 41.1614 55.1387 39.1946C51.1973 35.1882 44.891 35.1882 40.9495 39.1946C37.0081 43.201 37.0081 49.6842 40.9495 53.6178L41.0212 53.6906H40.8779L58.0052 71.1004L75.2043 53.5449C79.1457 49.5385 79.1457 43.0554 75.2043 39.1218C71.2628 35.1882 64.9565 35.1882 61.0151 39.1946Z" fill="#11B2A8"/>
<path d="M72.281 35.9749C70.2858 33.9064 67.578 32.8365 64.7276 32.8365C61.8773 32.8365 59.1695 33.9777 57.1743 35.9749C56.1054 37.0448 55.3216 38.3287 54.7515 39.6839C54.2527 38.3287 53.3976 37.0448 52.3287 35.9749C50.3335 33.9064 47.6257 32.8365 44.7754 32.8365C41.9251 32.8365 39.2173 33.9777 37.222 35.9749C33.1603 40.0406 33.0891 46.674 36.937 50.8823C36.937 51.025 37.0083 51.0963 37.1508 51.239L54.1815 68.2862C54.324 68.4289 54.4665 68.5002 54.6803 68.5002C54.894 68.5002 55.0366 68.4289 55.1791 68.2862L72.281 51.1676C76.4852 46.888 76.4852 40.1119 72.281 35.9749ZM71.2834 50.0977L54.6803 66.717L38.5047 50.5257C38.4334 50.383 38.3622 50.2404 38.2197 50.0977C34.5855 46.46 34.5855 40.6112 38.2197 36.9735C40.0011 35.1903 42.2814 34.263 44.7754 34.263C47.2694 34.263 49.5497 35.2616 51.3311 36.9735C53.1126 38.7567 54.0389 41.0391 54.0389 43.5356C54.0389 43.9636 54.324 44.2489 54.7515 44.2489C55.1791 44.2489 55.4641 43.9636 55.4641 43.5356C55.4641 41.0391 56.4617 38.6853 58.1719 36.9735C59.9534 35.1903 62.2336 34.263 64.7276 34.263C67.2217 34.263 69.5019 35.2616 71.2834 36.9735C74.9175 40.5399 74.9175 46.46 71.2834 50.0977Z" fill="#212A34"/>
<path d="M54.6802 66.717L71.2834 50.0978C74.9175 46.4601 74.9175 40.5399 71.2834 36.9735C69.5019 35.2616 67.2217 34.2631 64.7276 34.2631C62.2336 34.2631 59.9533 35.1903 58.1719 36.9735C56.4617 38.6854 55.4641 41.0392 55.4641 43.5356C55.4641 43.9636 55.179 44.2489 54.7515 44.2489C54.3239 44.2489 54.0389 43.9636 54.0389 43.5356C54.0389 41.0392 53.1126 38.7567 51.3311 36.9735C49.5497 35.2616 47.2694 34.2631 44.7754 34.2631C42.2813 34.2631 40.0011 35.1903 38.2196 36.9735C34.5855 40.6112 34.5855 46.4601 38.2196 50.0978C38.3622 50.2404 38.4334 50.3831 38.5047 50.5257L54.6802 66.717Z" fill="white"/>
<path d="M44.7753 35.6896C40.4286 35.6896 36.937 39.1847 36.937 43.5357C36.937 43.9636 37.222 44.2489 37.6495 44.2489C38.0771 44.2489 38.3621 43.9636 38.3621 43.5357C38.3621 39.9693 41.2124 37.1162 44.7753 37.1162C45.2029 37.1162 45.4879 36.8309 45.4879 36.4029C45.4879 35.9749 45.2029 35.6896 44.7753 35.6896Z" fill="#212A34"/>
<path d="M59.9534 53.0221L54.2527 58.7283C53.9677 59.0137 53.9677 59.4416 54.2527 59.7269C54.3952 59.8696 54.609 59.9409 54.7515 59.9409C54.894 59.9409 55.1078 59.8696 55.2503 59.7269L60.951 54.0207C61.236 53.7354 61.236 53.3075 60.951 53.0221C60.6659 52.7368 60.2384 52.7368 59.9534 53.0221Z" fill="#212A34"/>
<path d="M54.7515 57.0878C54.9653 57.0878 55.1078 57.0165 55.2503 56.8738L58.1006 54.0207C58.3857 53.7354 58.3857 53.3075 58.1006 53.0221C57.8156 52.7368 57.3881 52.7368 57.103 53.0221L54.2527 55.8752C53.9677 56.1606 53.9677 56.5885 54.2527 56.8738C54.3952 57.0165 54.5377 57.0878 54.7515 57.0878Z" fill="#212A34"/>
<path d="M59.9535 55.8753L57.1031 58.7284C56.8181 59.0137 56.8181 59.4417 57.1031 59.727C57.2457 59.8696 57.4594 59.941 57.602 59.941C57.7445 59.941 57.9582 59.8696 58.1008 59.727L60.9511 56.8739C61.2361 56.5886 61.2361 56.1606 60.9511 55.8753C60.666 55.59 60.2385 55.59 59.9535 55.8753Z" fill="#212A34"/>
<path d="M64.7277 35.7609C64.3001 35.7609 64.0151 36.0462 64.0151 36.4742C64.0151 36.9022 64.3001 37.1875 64.7277 37.1875C68.2193 37.1875 71.0696 40.0406 71.0696 43.5356C71.0696 43.9636 71.3547 44.2489 71.7822 44.2489C72.2098 44.2489 72.4948 43.9636 72.4948 43.5356C72.4948 39.256 69.0032 35.7609 64.7277 35.7609Z" fill="#212A34"/>
</g>
</g>
<defs>
<filter id="filter0_d_0_3551" x="0.707031" y="0" width="108" height="108" filterUnits="userSpaceOnUse" color-interpolation-filters="sRGB">
<feFlood flood-opacity="0" result="BackgroundImageFix"/>
<feColorMatrix in="SourceAlpha" type="matrix" values="0 0 0 0 0 0 0 0 0 0 0 0 0 0 0 0 0 0 127 0" result="hardAlpha"/>
<feOffset dy="2"/>
<feGaussianBlur stdDeviation="7"/>
<feColorMatrix type="matrix" values="0 0 0 0 0 0 0 0 0 0 0 0 0 0 0 0 0 0 0.0199743 0"/>
<feBlend mode="normal" in2="BackgroundImageFix" result="effect1_dropShadow_0_3551"/>
<feBlend mode="normal" in="SourceGraphic" in2="effect1_dropShadow_0_3551" result="shape"/>
</filter>
</defs>
</svg>
