<svg width="124" height="16" viewBox="0 0 124 16" fill="none" xmlns="http://www.w3.org/2000/svg">
<g clip-path="url(#clip0_0_4588)">
<path d="M16 8.00045C15.9998 6.47167 15.5615 4.97496 14.737 3.68752C13.9126 2.40008 12.7365 1.37583 11.3481 0.736017C9.95962 0.0962038 8.4169 -0.132374 6.90257 0.0773438C5.38823 0.287062 3.9657 0.926292 2.80337 1.91936C1.64104 2.91243 0.787596 4.21775 0.344069 5.68078C-0.099457 7.14382 -0.114491 8.7033 0.300748 10.1746C0.715987 11.6459 1.54411 12.9675 2.68708 13.9828C3.83004 14.998 5.23999 15.6646 6.75 15.9035V10.313H4.719V8.00045H6.75V6.23795C6.75 4.23295 7.9445 3.12545 9.7715 3.12545C10.3715 3.13378 10.9701 3.18591 11.5625 3.28145V5.25045H10.5535C10.3816 5.22762 10.2067 5.24377 10.0418 5.2977C9.87698 5.35164 9.72638 5.44198 9.60119 5.56203C9.476 5.68209 9.37943 5.82877 9.31864 5.99122C9.25784 6.15366 9.23439 6.32771 9.25 6.50045V8.00045H11.469L11.114 10.313H9.25V15.9035C11.1319 15.6058 12.8458 14.6462 14.0832 13.1974C15.3206 11.7486 16.0003 9.90575 16 8.00045Z" fill="white"/>
</g>
<g clip-path="url(#clip1_0_4588)">
<path d="M52.0001 3.05C51.4001 3.3 50.8001 3.5 50.1001 3.55C50.8001 3.15 51.3001 2.5 51.5501 1.75C50.9001 2.15 50.2001 2.4 49.4501 2.55C48.8501 1.9 48.0001 1.5 47.1001 1.5C45.3001 1.5 43.8001 2.95 43.8001 4.8C43.8001 5.05 43.8501 5.3 43.9001 5.55C41.1501 5.4 38.7501 4.1 37.1001 2.1C36.8001 2.6 36.6501 3.15 36.6501 3.75C36.6501 4.9 37.2501 5.9 38.1001 6.5C37.5501 6.5 37.0501 6.35 36.6001 6.1V6.15C36.6001 7.75 37.7501 9.05 39.2501 9.35C38.9501 9.4 38.7001 9.45 38.4001 9.45C38.2001 9.45 38.0001 9.45 37.8001 9.4C38.2001 10.7 39.4501 11.65 40.8501 11.7C39.7501 12.6 38.3001 13.1 36.7501 13.1C36.5001 13.1 36.2001 13.1 35.9501 13.05C37.4501 13.95 39.2001 14.5 41.0501 14.5C47.1001 14.5 50.4001 9.5 50.4001 5.15C50.4001 5 50.4001 4.85 50.4001 4.75C51.0001 4.25 51.5501 3.7 52.0001 3.05Z" fill="white"/>
</g>
<g clip-path="url(#clip2_0_4588)">
<path d="M80 1.85C82 1.85 82.24 1.8575 83.0305 1.8935C83.5062 1.89911 83.9774 1.98656 84.4235 2.152C84.7492 2.27222 85.0437 2.46392 85.2855 2.713C85.5346 2.95479 85.7263 3.24934 85.8465 3.575C86.0119 4.02107 86.0994 4.49228 86.105 4.968C86.141 5.76 86.15 6 86.15 8C86.15 10 86.1425 10.24 86.1065 11.0305C86.1009 11.5062 86.0134 11.9774 85.848 12.4235C85.7232 12.7468 85.5321 13.0404 85.287 13.2855C85.0419 13.5306 84.7483 13.7217 84.425 13.8465C83.9789 14.0119 83.5077 14.0994 83.032 14.105C82.2415 14.141 82.004 14.1485 80.0015 14.1485C77.999 14.1485 77.7615 14.141 76.971 14.105C76.4953 14.0994 76.0241 14.0119 75.578 13.8465C75.2523 13.7263 74.9578 13.5346 74.716 13.2855C74.4669 13.0437 74.2752 12.7492 74.155 12.4235C73.9896 11.9774 73.9021 11.5062 73.8965 11.0305C73.859 10.24 73.85 10.0025 73.85 8C73.85 5.9975 73.8575 5.76 73.8935 4.9695C73.8991 4.49378 73.9866 4.02257 74.152 3.5765C74.2727 3.2507 74.4649 2.95613 74.7145 2.7145C74.9563 2.46542 75.2508 2.27372 75.5765 2.1535C76.0226 1.98806 76.4938 1.90061 76.9695 1.895C77.76 1.859 78 1.85 80 1.85ZM80 0.5C77.963 0.5 77.7075 0.5085 76.908 0.545C76.2856 0.558186 75.6699 0.676521 75.087 0.895C74.5869 1.08322 74.1337 1.37805 73.759 1.759C73.3775 2.13358 73.0822 2.58675 72.8935 3.087C72.675 3.66993 72.5567 4.28561 72.5435 4.908C72.5085 5.7075 72.5 5.963 72.5 8C72.5 10.037 72.5085 10.2925 72.545 11.092C72.5582 11.7144 72.6765 12.3301 72.895 12.913C73.0837 13.4133 73.379 13.8664 73.7605 14.241C74.1351 14.6225 74.5882 14.9178 75.0885 15.1065C75.6714 15.325 76.2871 15.4433 76.9095 15.4565C77.7095 15.493 77.9645 15.5015 80.0015 15.5015C82.0385 15.5015 82.294 15.493 83.0935 15.4565C83.7159 15.4433 84.3316 15.325 84.9145 15.1065C85.4125 14.9135 85.8648 14.6187 86.2425 14.241C86.6202 13.8633 86.915 13.411 87.108 12.913C87.3265 12.3301 87.4448 11.7144 87.458 11.092C87.4945 10.292 87.503 10.037 87.503 8C87.503 5.963 87.4945 5.7075 87.458 4.908C87.4448 4.28561 87.3265 3.66993 87.108 3.087C86.9193 2.58675 86.624 2.13358 86.2425 1.759C85.8679 1.37751 85.4148 1.08216 84.9145 0.8935C84.3316 0.675021 83.7159 0.556686 83.0935 0.5435C82.2925 0.5085 82.037 0.5 80 0.5Z" fill="white"/>
<path d="M80 4.1499C79.2386 4.1499 78.4942 4.3757 77.8611 4.79874C77.228 5.22179 76.7345 5.82308 76.4431 6.52657C76.1517 7.23007 76.0754 8.00417 76.224 8.751C76.3726 9.49783 76.7392 10.1838 77.2777 10.7223C77.8161 11.2607 78.5021 11.6274 79.2489 11.7759C79.9958 11.9245 80.7699 11.8482 81.4734 11.5568C82.1769 11.2654 82.7781 10.772 83.2012 10.1388C83.6242 9.50572 83.85 8.76136 83.85 7.9999C83.85 6.97882 83.4444 5.99956 82.7224 5.27754C82.0004 4.55553 81.0211 4.1499 80 4.1499ZM80 10.4999C79.5056 10.4999 79.0222 10.3533 78.6111 10.0786C78.2 9.80387 77.8795 9.41343 77.6903 8.95661C77.5011 8.4998 77.4516 7.99713 77.5481 7.51218C77.6445 7.02722 77.8826 6.58177 78.2323 6.23214C78.5819 5.8825 79.0273 5.6444 79.5123 5.54794C79.9973 5.45148 80.4999 5.50098 80.9567 5.6902C81.4135 5.87942 81.804 6.19985 82.0787 6.61098C82.3534 7.0221 82.5 7.50545 82.5 7.9999C82.5 8.66294 82.2366 9.29883 81.7678 9.76767C81.299 10.2365 80.6631 10.4999 80 10.4999Z" fill="white"/>
<path d="M84.0035 4.89644C84.5006 4.89644 84.9035 4.49349 84.9035 3.99644C84.9035 3.49938 84.5006 3.09644 84.0035 3.09644C83.5065 3.09644 83.1035 3.49938 83.1035 3.99644C83.1035 4.49349 83.5065 4.89644 84.0035 4.89644Z" fill="white"/>
</g>
<g clip-path="url(#clip3_0_4588)">
<path fill-rule="evenodd" clip-rule="evenodd" d="M116 0.199951C111.6 0.199951 108 3.79995 108 8.19995C108 11.75 110.3 14.75 113.45 15.8C113.85 15.85 114 15.65 114 15.4C114 15.2 114 14.7 114 14.05C111.75 14.55 111.3 13 111.3 13C110.95 12.1 110.4 11.85 110.4 11.85C109.65 11.35 110.45 11.35 110.45 11.35C111.25 11.4 111.7 12.15 111.7 12.15C112.4 13.35 113.55 13 114.05 12.8C114.1 12.3 114.35 11.95 114.55 11.75C112.75 11.55 110.9 10.85 110.9 7.79995C110.9 6.94995 111.2 6.19995 111.7 5.64995C111.6 5.44995 111.35 4.64995 111.8 3.54995C111.8 3.54995 112.45 3.34995 114 4.34995C114.65 4.14995 115.3 4.09995 116 4.09995C116.7 4.09995 117.35 4.19995 118 4.34995C119.55 3.29995 120.2 3.49995 120.2 3.49995C120.65 4.59995 120.35 5.39995 120.3 5.59995C120.8 6.14995 121.1 6.84995 121.1 7.74995C121.1 10.8 119.25 11.5 117.45 11.7C117.75 11.95 118 12.45 118 13.2C118 14.25 118 15.15 118 15.4C118 15.6 118.15 15.85 118.55 15.8C121.7 14.75 124 11.75 124 8.19995C124 3.79995 120.4 0.199951 116 0.199951Z" fill="white"/>
</g>
<defs>
<clipPath id="clip0_0_4588">
<rect width="16" height="16" fill="white"/>
</clipPath>
<clipPath id="clip1_0_4588">
<rect width="16" height="16" fill="white" transform="translate(36)"/>
</clipPath>
<clipPath id="clip2_0_4588">
<rect width="16" height="16" fill="white" transform="translate(72)"/>
</clipPath>
<clipPath id="clip3_0_4588">
<rect width="16" height="16" fill="white" transform="translate(108)"/>
</clipPath>
</defs>
</svg>
