<svg width="80" height="80" viewBox="0 0 80 80" fill="none" xmlns="http://www.w3.org/2000/svg">
<path d="M39.985 67C56.5535 67 69.985 53.5685 69.985 37C69.985 20.4315 56.5535 7 39.985 7C23.4164 7 9.98499 20.4315 9.98499 37C9.98499 53.5685 23.4164 67 39.985 67Z" fill="white"/>
<path d="M65.5 30.6011V46.9001C65.4998 47.6041 65.254 48.286 64.8049 48.8281C64.3558 49.3703 63.7317 49.7388 63.04 49.8701L56.5 51.0701H45.37L46.15 46.3901L51.28 45.5201L52.18 40.3901L44.38 32.5901L35.14 35.6201C34.6306 35.7898 34.0777 35.7746 33.5784 35.5771C33.0791 35.3796 32.6654 35.0124 32.41 34.5401C32.152 34.0668 32.0649 33.5192 32.1632 32.9892C32.2616 32.4592 32.5394 31.9793 32.95 31.6301L38.71 26.9201L43.96 22.6001C44.5758 22.0861 45.3189 21.7479 46.111 21.6211C46.903 21.4944 47.7146 21.5839 48.46 21.8801L63.58 27.8201C64.1438 28.035 64.6292 28.4158 64.972 28.9124C65.3148 29.4089 65.4989 29.9977 65.5 30.6011Z" fill="#F0FFFF"/>
<path d="M52.186 40.3809L51.286 45.5109L46.156 46.3809L45.376 51.0609H45.346L45.286 51.5109L40.156 52.3809L39.646 55.4409C39.5323 56.0483 39.2358 56.6065 38.7962 57.0408C38.3566 57.4751 37.7948 57.7647 37.186 57.8709L35.686 58.1409C35.2109 58.2179 34.7244 58.182 34.2657 58.0361C33.8071 57.8902 33.3892 57.6383 33.046 57.3009L22.3 46.5609L14.5 45.0609V27.0609L22 25.5609L31 21.8109C31.5496 21.5873 32.1529 21.5306 32.7345 21.648C33.3161 21.7654 33.8502 22.0516 34.27 22.4709L38.71 26.9109L32.95 31.6209C32.5394 31.9701 32.2616 32.45 32.1632 32.98C32.0649 33.51 32.152 34.0576 32.41 34.5309C32.6654 35.0032 33.0791 35.3704 33.5784 35.5679C34.0777 35.7654 34.6306 35.7807 35.14 35.6109L44.38 32.5809L52.186 40.3809Z" fill="#F0FFFF"/>
<path d="M52.108 40.8339L51.286 45.5139L46.156 46.3809L45.376 51.0609H56.5L63.04 49.8609C63.7311 49.7297 64.3549 49.3616 64.8039 48.8201C65.2529 48.2785 65.4991 47.5974 65.5 46.8939V36.5259C61.2485 38.5539 56.7444 40.0028 52.108 40.8339Z" fill="#F0FFFF"/>
<path d="M41.104 41.8599C31.8345 41.9732 22.6856 39.752 14.5 35.4009V45.0609L22.3 46.5609L33.04 57.3009C33.3825 57.6394 33.8002 57.8922 34.259 58.0387C34.7178 58.1852 35.2047 58.2213 35.68 58.1439L37.18 57.8709C37.7889 57.7651 38.351 57.4756 38.7907 57.0412C39.2304 56.6069 39.5267 56.0485 39.64 55.4409L40.15 52.3809L45.28 51.5139L45.34 51.0609H45.37L46.15 46.3809L51.28 45.5139L52.102 40.8339C48.4749 41.5098 44.7936 41.8532 41.104 41.8599Z" fill="#F0FFFF"/>
<path d="M47.506 31.561L44.386 32.581" stroke="#212A34" stroke-linecap="round" stroke-linejoin="round"/>
<path d="M65.5 30.6011V46.9001C65.4998 47.6041 65.254 48.286 64.8049 48.8281C64.3558 49.3703 63.7317 49.7388 63.04 49.8701L56.5 51.0701H45.37L46.15 46.3901L51.28 45.5201L52.18 40.3901L44.38 32.5901L35.14 35.6201C34.6306 35.7898 34.0777 35.7746 33.5784 35.5771C33.0791 35.3796 32.6654 35.0124 32.41 34.5401C32.152 34.0668 32.0649 33.5192 32.1632 32.9892C32.2616 32.4592 32.5394 31.9793 32.95 31.6301L38.71 26.9201L43.96 22.6001C44.5758 22.0861 45.3189 21.7479 46.111 21.6211C46.903 21.4944 47.7146 21.5839 48.46 21.8801L63.58 27.8201C64.1438 28.035 64.6292 28.4158 64.972 28.9124C65.3148 29.4089 65.4989 29.9977 65.5 30.6011Z" stroke="#212A34" stroke-linecap="round" stroke-linejoin="round"/>
<path d="M52.186 40.3809L51.286 45.5109L46.156 46.3809L45.376 51.0609H45.346L45.286 51.5109L40.156 52.3809L39.646 55.4409C39.5323 56.0483 39.2358 56.6065 38.7962 57.0408C38.3566 57.4751 37.7948 57.7647 37.186 57.8709L35.686 58.1409C35.2109 58.2179 34.7244 58.182 34.2657 58.0361C33.8071 57.8902 33.3892 57.6383 33.046 57.3009L22.3 46.5609L14.5 45.0609V27.0609L22 25.5609L31 21.8109C31.5496 21.5873 32.1529 21.5306 32.7345 21.648C33.3161 21.7654 33.8502 22.0516 34.27 22.4709L38.71 26.9109L32.95 31.6209C32.5394 31.9701 32.2616 32.45 32.1632 32.98C32.0649 33.51 32.152 34.0576 32.41 34.5309C32.6654 35.0032 33.0791 35.3704 33.5784 35.5679C34.0777 35.7654 34.6306 35.7807 35.14 35.6109L44.38 32.5809L52.186 40.3809Z" stroke="#212A34" stroke-linecap="round" stroke-linejoin="round"/>
<path d="M5.5 22.5491H11.5C12.2956 22.5491 13.0587 22.8651 13.6213 23.4278C14.1839 23.9904 14.5 24.7534 14.5 25.5491V46.5491C14.5 47.3447 14.1839 48.1078 13.6213 48.6704C13.0587 49.233 12.2956 49.5491 11.5 49.5491H5.5V22.5491Z" fill="#11B2A8" stroke="#212A34" stroke-linecap="round" stroke-linejoin="round"/>
<path d="M68.5 25.5491H74.5V52.5491H68.5C67.7044 52.5491 66.9413 52.233 66.3787 51.6704C65.8161 51.1078 65.5 50.3447 65.5 49.5491V28.5491C65.5 27.7534 65.8161 26.9904 66.3787 26.4278C66.9413 25.8651 67.7044 25.5491 68.5 25.5491Z" fill="#11B2A8" stroke="#212A34" stroke-linecap="round" stroke-linejoin="round"/>
</svg>
