<svg width="80" height="80" viewBox="0 0 80 80" fill="none" xmlns="http://www.w3.org/2000/svg">
<path d="M32 16H18C16.8954 16 16 16.8954 16 18V32C16 33.1046 16.8954 34 18 34H32C33.1046 34 34 33.1046 34 32V18C34 16.8954 33.1046 16 32 16Z" fill="#11B2A8" stroke="#00303E" stroke-linecap="round" stroke-linejoin="round"/>
<path d="M62 16H48C46.8954 16 46 16.8954 46 18V32C46 33.1046 46.8954 34 48 34H62C63.1046 34 64 33.1046 64 32V18C64 16.8954 63.1046 16 62 16Z" fill="white" stroke="#00303E" stroke-linecap="round" stroke-linejoin="round"/>
<path d="M62 46H48C46.8954 46 46 46.8954 46 48V62C46 63.1046 46.8954 64 48 64H62C63.1046 64 64 63.1046 64 62V48C64 46.8954 63.1046 46 62 46Z" fill="white" stroke="#00303E" stroke-linecap="round" stroke-linejoin="round"/>
<path d="M32 46H18C16.8954 46 16 46.8954 16 48V62C16 63.1046 16.8954 64 18 64H32C33.1046 64 34 63.1046 34 62V48C34 46.8954 33.1046 46 32 46Z" fill="white" stroke="#00303E" stroke-linecap="round" stroke-linejoin="round"/>
</svg>
