<svg width="1440" height="913" viewBox="0 0 1440 913" fill="none" xmlns="http://www.w3.org/2000/svg">
<rect width="1440" height="913" fill="#F5F8FF"/>
<g opacity="0.05">
<mask id="mask0_0_3470" style="mask-type:alpha" maskUnits="userSpaceOnUse" x="0" y="0" width="1440" height="913">
<rect x="0.500031" y="0.5" width="1439" height="912" fill="#E0E0E0" stroke="#11B2A8"/>
</mask>
<g mask="url(#mask0_0_3470)">
<path d="M228.966 155.03C233.842 159.658 239.19 161.972 244.224 161.394C262.47 159.08 273.953 114.245 285.12 93.1298C306.827 52.0558 337.5 45.114 367.543 47.1387C400.732 49.4528 438.169 54.6591 462.707 13.2958C492.75 -37.3235 499.514 -193.231 449.022 -213.479C433.764 -219.553 417.878 -211.165 403.249 -200.752C388.621 -190.339 374.15 -177.901 358.577 -175.008C341.904 -172.116 325.231 -180.793 308.557 -183.686C255.234 -192.653 234.471 -66.8272 216.54 8.08949C209.776 36.7256 202.698 67.0972 205.057 98.0473C206.788 120.031 216.854 143.749 228.966 155.03Z" stroke="#555770" stroke-miterlimit="10" stroke-linecap="round" stroke-linejoin="round"/>
<path d="M489.143 606.266C503.299 594.695 517.77 583.704 532.242 573.291C552.69 558.539 574.397 544.944 595.946 551.597C614.507 557.092 634.169 577.34 650.999 561.72C665.313 548.415 669.875 511.391 684.975 501.267C698.031 492.3 704.952 509.944 716.749 514.861C756.387 531.638 756.387 429.532 751.196 383.54C746.949 345.648 740.657 305.153 723.984 281.434C680.099 218.666 612.147 295.029 560.869 242.963C514.153 195.525 463.975 172.096 409.394 196.104C350.408 222.137 304.321 350.855 325.084 459.325C333.42 502.713 348.364 540.605 360.318 580.811C368.025 607.134 376.205 636.348 375.261 666.43C374.632 685.232 364.25 714.447 379.98 725.438C389.26 731.802 398.226 715.314 403.417 699.984C420.405 651.1 461.459 628.827 489.143 606.266Z" stroke="#555770" stroke-miterlimit="10" stroke-linecap="round" stroke-linejoin="round"/>
<path d="M144.039 233.707C152.218 238.335 160.083 243.542 167.319 250.773C190.441 273.913 214.035 299.368 231.023 337.26C249.584 378.623 251.943 436.474 241.877 486.804C227.563 558.828 175.341 594.985 194.688 681.472C202.238 715.025 217.496 740.769 234.641 758.703C264.213 789.653 297.874 802.958 327.76 832.462C350.253 854.735 373.375 874.115 398.071 885.974C422.923 898.123 449.663 907.09 469.954 938.329C491.504 971.882 501.099 1023.66 511.48 1071.96C523.278 1127.5 538.535 1186.51 566.848 1221.22C598.15 1259.98 643.766 1251.59 674.281 1212.83C688.909 1194.03 701.178 1166.55 704.324 1134.15C706.212 1115.35 704.796 1095.97 704.796 1076.59C704.796 1057.5 706.212 1036.96 712.661 1021.92C724.773 993.287 750.254 993.576 768.029 996.758C794.14 1001.39 817.419 1016.43 840.856 1038.12C866.653 1062.13 892.606 1090.19 921.391 1095.1C955.367 1100.89 989.343 1072.83 1013.57 1029.15C1037.79 985.188 1053.05 926.759 1062.17 866.305C1071.45 804.405 1065.79 738.166 1078.21 677.712C1086.71 636.059 1105.43 598.167 1129.49 591.514C1150.73 585.44 1168.19 604.53 1186.75 619.571C1201.38 631.431 1217.26 649.943 1233.78 650.233C1269.01 651.1 1297.17 594.406 1311.8 535.399C1335.08 441.391 1337.12 336.103 1329.57 234.864C1326.11 189.162 1322.49 143.46 1316.83 98.6257C1303.3 -8.1089 1269.01 -161.703 1195.56 -145.794C1167.4 -139.719 1141.13 -115.711 1117.38 -87.6537C1091.9 -57.5713 1067.52 -19.9684 1055.09 30.9403C1036.53 107.303 1070.19 149.824 1064.69 215.484C1059.34 279.988 1015.93 317.012 984.31 316.723C905.033 316.144 826.7 189.741 782.5 78.9567C767.085 40.4859 749.782 -15.0509 721.784 -20.2575C690.482 -26.0426 656.978 -7.81943 630.71 22.5522C610.891 45.6925 574.241 103.543 549.546 79.535C539.322 69.7004 535.075 46.8494 532.873 25.7339C524.379 -56.7034 530.67 -139.43 531.457 -223.024C531.929 -272.776 536.962 -334.387 525.165 -380.957C520.289 -400.626 509.593 -416.824 497.796 -415.089C490.717 -414.221 484.426 -406.99 478.291 -400.047C447.461 -364.18 416.632 -328.313 385.487 -294.181C357.646 -263.809 326.344 -243.272 293.627 -243.272C270.032 -243.272 243.45 -252.817 222.844 -275.09C206.485 -293.024 198.778 -330.337 180.689 -343.643C151.589 -365.048 110.85 -324.841 87.2555 -295.916C58.7851 -260.916 32.6741 -215.214 15.529 -160.256C-10.582 -76.3728 -6.96424 27.4694 20.7197 108.171C35.82 152.427 60.6727 181.931 86.3118 202.179C104.558 217.22 125.164 223.294 144.039 233.707Z" stroke="#555770" stroke-miterlimit="10" stroke-linecap="round" stroke-linejoin="round"/>
<path d="M785.798 506.473C780.764 525.853 773.529 543.787 763.147 558.828C748.047 580.811 728.542 592.67 709.352 591.803C698.342 591.224 687.174 586.885 676.32 593.538C668.456 598.166 660.905 606.555 653.512 612.918C629.446 634.323 609.313 628.249 583.516 625.356C551.743 621.885 519.497 639.53 493.386 672.794C471.365 700.851 447.299 750.314 460.511 804.404C463.185 815.396 468.376 823.784 474.039 829.859C491.97 848.66 514.149 843.743 534.597 839.693C588.235 828.991 642.345 878.164 691.578 909.692C699.443 914.61 712.184 922.709 720.52 916.924C729.801 910.56 733.576 886.552 739.238 873.247C751.979 843.164 774.944 833.619 795.393 839.404C810.965 843.742 828.425 855.023 841.008 872.668C850.918 886.552 855.637 902.461 869.164 903.907C900.151 906.8 923.903 850.395 930.352 800.065C934.127 770.851 934.127 740.19 939.475 711.843C946.239 676.843 972.664 628.538 988.236 678.29C993.899 696.513 994.056 718.207 995.944 738.744C997.831 759.281 1003.02 781.553 1013.72 788.495C1025.2 796.305 1038.26 781.842 1044.55 762.462C1050.84 743.082 1052.26 719.942 1054.46 697.669C1059.02 653.414 1067.83 609.736 1084.19 576.183C1108.57 526.431 1134.36 532.795 1166.61 527.299C1200.58 521.514 1218.52 451.515 1228.43 391.639C1239.91 322.797 1249.82 248.748 1238.02 180.195C1226.22 111.642 1183.91 56.3944 1147.89 84.1628C1112.34 111.642 1104.01 195.236 1083.56 255.401C1061.54 320.772 1024.89 348.251 985.091 358.664C961.496 364.739 936.015 356.64 913.049 348.541C888.354 339.863 863.659 332.053 838.806 325.689C830.784 323.665 822.29 321.64 814.583 326.557C802.314 334.656 800.112 359.821 799.325 380.937C797.595 424.325 795.55 468.87 785.798 506.473Z" stroke="#555770" stroke-miterlimit="10" stroke-linecap="round" stroke-linejoin="round"/>
<path d="M1174.64 212.013C1160.01 211.723 1140.98 252.508 1140.66 291.268C1140.35 321.061 1157.02 348.83 1173.85 337.838C1190.68 326.846 1192.41 285.483 1191.15 258.293C1189.74 225.318 1182.82 212.302 1174.64 212.013Z" stroke="#555770" stroke-miterlimit="10" stroke-linecap="round" stroke-linejoin="round"/>
<path d="M783.757 744.53C813.328 718.497 843.686 695.935 873.73 672.217C884.74 663.539 918.873 609.738 890.56 596.722C880.808 592.094 872.629 611.184 862.876 614.366C855.484 616.969 847.933 610.027 840.383 610.316C826.069 610.895 815.373 636.928 804.834 651.68C791.622 670.192 777.308 687.258 761.421 697.092C753.399 702.01 743.961 707.216 741.444 721.968C738.456 738.456 747.422 755.811 756.859 758.125C766.14 759.86 775.263 752.051 783.757 744.53Z" stroke="#555770" stroke-miterlimit="10" stroke-linecap="round" stroke-linejoin="round"/>
<path d="M340.967 -153.315C311.396 -144.058 283.869 -129.885 265.937 -76.9515C255.241 -45.4228 249.264 -9.5554 243.444 25.7335C241.242 39.0392 239.04 53.5019 241.714 66.229C247.377 93.9974 268.611 75.7742 277.735 64.2041C294.408 48.8736 302.587 17.345 322.406 12.1384C347.573 5.77483 376.044 13.2957 401.368 13.8742C418.042 14.1635 435.659 14.1633 449.501 -2.61345C463.185 -19.1009 470.421 -48.8939 473.881 -78.3978C476.398 -100.67 477.185 -124.389 473.252 -146.372C469.32 -168.066 460.354 -187.446 448.242 -193.81C433.771 -201.331 418.828 -188.893 404.829 -179.058C384.538 -164.017 362.359 -159.967 340.967 -153.315Z" stroke="#555770" stroke-miterlimit="10" stroke-linecap="round" stroke-linejoin="round"/>
<path d="M283.392 -204.8C282.291 -204.511 281.032 -204.222 279.931 -203.933C241.237 -194.387 203.014 -162.28 177.06 -107.9C163.533 -79.5536 152.679 -47.157 144.972 -12.1573C122.793 89.9493 164.949 221.27 226.608 225.609C273.01 228.791 301.166 154.742 340.962 125.817C371.32 103.544 422.913 87.3458 453.585 102.965C460.349 106.437 467.427 111.354 474.033 107.304C483.628 101.808 487.718 81.5607 490.392 63.9162C499.358 7.22251 510.054 -52.9422 506.908 -112.818C505.021 -148.685 499.043 -191.205 488.819 -221.866C480.168 -247.61 466.798 -265.544 450.125 -266.99C434.71 -268.436 423.227 -252.816 409.542 -242.982C396.802 -234.015 382.33 -228.23 368.96 -223.313C340.962 -213.189 311.233 -209.718 283.392 -204.8Z" stroke="#555770" stroke-miterlimit="10" stroke-linecap="round" stroke-linejoin="round"/>
<path d="M1029.92 967.254C1050.84 903.618 1057.29 825.808 1063.74 753.784C1068.14 704.322 1074.12 652.835 1089.85 610.893C1104.48 572.133 1129.65 564.612 1154.18 568.373C1180.61 572.422 1203.89 592.959 1230.63 583.414C1246.52 577.918 1261.62 564.034 1272.94 542.629C1284.27 521.514 1291.82 494.613 1297.01 466.266C1300.15 448.911 1302.51 430.688 1304.4 412.754C1312.74 333.499 1313.68 251.062 1304.09 172.095C1289.46 52.9228 1243.21 -106.745 1163.94 -74.0594C1125.56 -58.1505 1094.57 2.88195 1086.55 73.7491C1080.1 131.021 1087.96 201.021 1067.83 250.772C1050.68 293.003 1022.37 316.433 994.686 323.375C940.105 336.97 884.895 307.466 841.638 244.409C806.719 193.5 782.967 123.79 754.34 61.8898C713.128 -27.4896 651.783 16.477 610.1 81.8483C597.988 100.939 586.191 121.476 571.563 132.757C502.667 186.847 516.824 -6.66354 521.071 -73.1919C525.947 -149.555 522.329 -238.356 507.229 -310.09C502.667 -332.363 494.016 -356.371 481.118 -356.95C474.04 -357.239 467.591 -350.007 461.613 -343.065C443.21 -321.661 424.177 -292.446 404.201 -276.537C390.201 -265.256 372.899 -258.025 357.956 -250.215C318.318 -229.678 275.376 -230.546 236.052 -252.818C217.334 -263.231 199.402 -278.562 180.212 -284.347C108.8 -305.752 69.0048 -171.827 56.4212 -63.6464C49.9721 -8.10967 53.5899 48.0054 69.3194 97.1786C85.3635 147.219 116.351 179.037 143.563 205.938C171.561 233.706 200.818 259.45 223.94 299.656C259.804 362.135 278.836 474.655 243.602 548.414C230.39 576.183 210.256 605.687 207.582 644.447C204.75 686.678 229.918 715.314 246.748 734.404C281.668 774.032 319.104 813.66 356.226 845.767C388.471 873.825 427.323 862.254 458.153 896.965C475.613 916.345 487.724 949.32 497.162 981.716C510.689 1028.58 516.352 1080.35 530.037 1127.21C541.047 1164.81 556.777 1198.95 577.54 1217.75C611.044 1248.12 664.681 1224.4 681.827 1159.03C687.489 1137.33 689.377 1113.33 691.736 1089.61C694.096 1066.18 697.399 1041.88 705.264 1022.79C715.802 997.047 733.262 985.477 750.25 984.609C757.957 984.32 765.193 984.03 772.429 984.609C788.315 985.477 803.416 989.526 819.617 1001.1C844.155 1018.74 865.547 1049.11 891.029 1062.71C915.724 1076.01 942.464 1071.1 966.059 1053.45C983.99 1040.15 1006.48 1023.08 1018.91 995.311C1022.84 987.212 1026.46 977.377 1029.92 967.254Z" stroke="#555770" stroke-miterlimit="10" stroke-linecap="round" stroke-linejoin="round"/>
<path d="M1237.72 509.656C1248.89 495.193 1258.96 477.26 1266.98 454.698C1287.9 396.269 1292.46 320.774 1291.36 252.51C1290.26 189.453 1282.87 106.437 1261.95 55.2386C1235.68 -9.26492 1179.21 -46.0001 1139.26 -2.90127C1122.11 15.611 1106.7 61.3131 1101.66 96.602C1093.8 150.114 1090.34 200.733 1073.19 248.171C1056.36 294.741 1029.78 330.319 999.106 335.815C965.131 341.889 925.492 338.707 893.561 315.567C853.136 286.352 820.419 247.303 792.42 184.824C774.646 144.618 751.996 93.1309 727.143 66.8088C701.504 39.9082 660.764 62.1806 636.069 83.0069C620.969 95.7341 606.97 112.511 594.858 133.337C584.319 151.56 573.78 170.362 558.68 175.279C540.591 181.064 523.918 161.105 514.637 133.626C499.694 88.792 506.615 26.0241 508.975 -23.149C512.593 -98.0657 516.839 -174.429 501.11 -246.163C496.234 -268.436 488.526 -291.576 475.943 -297.651C466.82 -301.99 457.225 -295.915 448.416 -290.13C421.204 -271.907 394.149 -249.345 365.836 -239.511C328.557 -226.784 290.806 -218.395 252.898 -214.346C228.675 -212.032 204.137 -211.164 180.542 -200.462C164.813 -193.23 150.971 -181.371 139.488 -165.751C119.827 -138.851 106.614 -100.09 100.794 -51.2065C92.1427 20.8177 100.951 94.8666 129.264 148.379C159.308 205.072 201.777 232.841 231.349 293.005C262.493 356.641 288.919 476.97 256.988 554.201C245.82 581.391 226.315 603.374 221.911 638.374C216.563 680.605 244.247 708.084 261.549 722.836C286.087 743.662 301.817 780.108 325.569 803.248C341.613 818.868 357.971 838.538 375.431 847.215C394.936 857.05 415.384 862.256 435.518 865.727C450.146 868.041 465.876 869.777 477.516 886.264C486.01 898.124 490.099 917.504 494.975 934.28C503.155 962.338 509.289 992.709 516.21 1021.63C521.873 1045.35 524.547 1071.39 530.839 1095.39C539.962 1129.82 552.703 1160.77 568.432 1185.64C589.51 1219.2 626.16 1230.77 647.866 1191.43C671.775 1147.75 675.55 1089.61 685.145 1033.78C694.111 981.14 731.547 971.305 756.715 968.123C788.331 964.073 822.778 951.636 849.676 990.396C860.529 1006.02 870.281 1025.11 883.022 1034.65C895.921 1044.49 910.549 1043.33 924.548 1041.3C945.469 1038.12 967.018 1033.49 985.579 1015.27C1013.11 988.371 1030.41 935.727 1040.79 881.636C1046.77 850.108 1052.11 815.687 1055.73 783.29C1060.92 736.431 1063.44 685.811 1073.51 641.266C1080.27 610.895 1091.91 582.548 1108.11 568.664C1129.82 550.152 1154.51 559.119 1177.48 556.226C1198.56 553.334 1220.26 531.928 1237.72 509.656Z" stroke="#555770" stroke-miterlimit="10" stroke-linecap="round" stroke-linejoin="round"/>
<path d="M268.297 179.908C279.78 166.602 290.004 149.826 301.172 135.652C335.305 91.3964 377.303 67.9667 418.986 69.7023C435.345 70.57 452.962 74.6195 467.276 59.8676C486.308 40.1983 492.128 -4.63586 493.229 -44.8421C494.96 -104.428 500.308 -187.733 463.343 -218.394C448.558 -230.832 431.57 -229.097 415.683 -222.733C390.201 -212.609 365.663 -198.725 339.395 -196.989C321.62 -195.832 303.531 -196.411 286.072 -188.891C241.243 -169.221 215.446 -80.7096 199.087 -8.39622C190.908 27.7605 182.571 65.0742 182.729 104.413C182.886 143.462 193.582 185.404 213.401 199.288C228.816 209.99 246.276 202.47 260.747 188.296C263.421 185.404 265.938 182.8 268.297 179.908Z" stroke="#555770" stroke-miterlimit="10" stroke-linecap="round" stroke-linejoin="round" stroke-dasharray="8 8"/>
<path d="M723.043 556.225C737.672 555.357 749.312 532.795 756.705 509.365C779.512 437.052 784.231 294.739 741.447 240.938C724.144 218.955 701.179 221.269 680.259 224.161C644.396 229.079 608.533 242.384 573.928 223.294C538.694 203.914 508.336 172.674 474.832 145.485C427.014 107.014 372.59 116.559 345.378 202.467C321.626 277.384 298.504 369.656 317.065 457.3C324.3 491.432 336.727 520.647 346.951 551.886C357.175 583.125 365.826 618.703 363.939 655.149C363.152 670.191 360.636 684.942 360.006 699.984C359.377 715.025 360.636 731.512 366.298 742.504C373.534 756.099 385.96 756.677 395.398 748.289C404.835 739.901 411.914 725.149 418.52 710.108C441.957 657.463 482.539 633.166 516.2 607.712C538.536 590.935 555.367 575.315 580.849 578.208C597.837 579.943 615.454 587.753 632.442 586.018C644.711 584.571 656.35 575.026 665.788 560.853C678.057 542.34 685.765 536.266 701.651 546.968C708.415 551.596 715.179 556.803 722.257 556.803C722.572 556.225 722.886 556.225 723.043 556.225Z" stroke="#555770" stroke-miterlimit="10" stroke-linecap="round" stroke-linejoin="round"/>
<path d="M469.635 214.907C424.806 200.155 375.73 231.105 346.158 295.609C318.16 356.93 325.552 435.608 347.574 498.376C358.27 529.326 368.179 575.028 382.808 599.036C397.436 623.044 419.3 624.78 437.232 614.077C457.523 601.928 474.511 576.763 493.229 557.673C528.463 521.516 569.989 507.053 610.099 516.02C625.042 519.491 639.671 548.416 654.299 533.954C666.883 521.516 670.029 489.987 683.556 478.995C697.87 467.425 715.015 487.384 729.644 477.838C740.497 470.607 746.632 448.913 747.261 427.798C747.89 406.682 744.115 386.145 740.182 366.476C732.79 328.005 721.307 294.162 698.342 284.038C682.612 277.096 666.254 280.567 650.367 285.485C634.48 290.113 618.279 295.898 602.235 292.716C578.483 288.088 557.72 264.658 536.485 246.146C514.149 225.898 493.229 222.428 469.635 214.907Z" stroke="#555770" stroke-miterlimit="10" stroke-linecap="round" stroke-linejoin="round" stroke-dasharray="8 8"/>
<path d="M922.804 459.324C910.692 453.828 898.266 452.671 886.154 459.324C860.672 473.497 844.785 518.042 828.269 556.513C812.225 593.827 796.024 612.628 771.8 624.777C750.88 635.479 742.386 664.694 725.084 690.148C710.298 712.131 691.58 723.991 675.378 741.924C670.66 747.131 665.312 754.073 664.997 764.197C664.525 778.949 674.277 786.759 682.142 789.651C740.971 810.767 803.574 794.279 856.74 743.66C885.053 716.759 916.669 684.363 931.14 631.14C938.061 605.686 947.499 577.339 962.914 573.868C971.093 572.133 980.374 577.629 987.137 569.24C994.058 560.563 994.373 540.893 989.969 527.588C985.564 514.282 978.014 506.183 970.779 498.662C955.678 482.753 939.477 466.844 922.804 459.324Z" stroke="#555770" stroke-miterlimit="10" stroke-linecap="round" stroke-linejoin="round" stroke-dasharray="8 8"/>
<path d="M944.824 647.342C950.643 636.35 958.036 626.226 965.272 624.78C977.384 622.177 987.608 639.821 1000.82 633.457C1011.67 628.251 1017.97 607.714 1021.27 588.045C1026.62 557.095 1028.35 522.095 1040.62 498.955C1053.51 474.368 1073.96 470.897 1092.52 472.054C1114.54 473.5 1149.46 480.442 1169.44 461.062C1189.42 441.682 1198.86 394.534 1205.3 357.509C1216 295.898 1231.57 196.685 1201.06 144.04C1167.71 86.7683 1140.34 144.619 1123.67 197.552C1086.86 315.279 1019.38 402.344 944.509 395.691C932.083 394.534 919.656 391.931 907.387 392.509C883.006 393.955 851.862 416.517 835.346 448.914C822.763 473.5 813.482 503.004 801.842 528.748C779.349 578.789 750.564 614.945 717.689 634.904C678.837 658.333 649.109 703.457 605.853 701.721C592.64 701.143 579.427 696.804 566.529 701.432C553.631 706.349 540.89 724.283 540.261 748.291C539.789 771.431 550.957 790.811 563.068 796.886C578.483 804.406 594.842 800.646 610.571 802.382C628.031 804.406 642.817 816.555 658.389 830.439C671.445 842.009 685.916 853.58 700.702 853.001C716.431 852.133 729.015 835.356 743.958 828.704C768.339 818.291 793.978 817.133 818.673 826.1C841.481 834.489 866.333 850.398 886.782 829.861C905.972 810.481 908.331 774.902 915.252 741.06C920.443 715.605 928.465 686.97 937.116 664.697C939.004 659.201 941.678 653.127 944.824 647.342Z" stroke="#555770" stroke-miterlimit="10" stroke-linecap="round" stroke-linejoin="round"/>
<path d="M1119.27 300.527C1109.04 322.51 1095.52 339.865 1082.15 350.278C1074.13 356.353 1065.63 360.692 1058.55 370.237C1051.47 379.493 1046.28 395.98 1048.64 411.311C1050.22 421.724 1054.93 429.534 1059.81 435.608C1085.29 467.715 1121 470.319 1147.74 441.682C1177.78 409.575 1187.38 346.229 1196.82 288.957C1203.74 247.015 1206.1 154.454 1170.07 160.817C1142.39 165.735 1141.45 211.148 1135.47 248.172C1132.48 266.684 1126.66 284.618 1119.27 300.527Z" stroke="#555770" stroke-miterlimit="10" stroke-linecap="round" stroke-linejoin="round"/>
<path d="M645.816 449.492C663.905 444.864 684.668 428.665 687.499 395.401C690.645 357.509 666.893 328.873 645.973 328.584C625.053 328.295 604.919 344.493 584.156 345.65C546.72 347.964 519.98 291.27 489.15 260.609C465.713 237.18 437.714 229.948 411.761 240.651C382.818 252.51 333.428 303.419 345.068 371.683C349 395.112 358.752 413.624 368.19 431.269C387.223 466.847 396.346 515.731 425.131 529.037C447.781 539.45 469.173 521.805 488.049 500.4C510.07 475.235 533.35 457.88 559.461 453.252C572.674 450.938 581.954 457.88 594.38 461.062C610.582 465.112 630.086 456.723 645.816 449.492Z" stroke="#555770" stroke-miterlimit="10" stroke-linecap="round" stroke-linejoin="round"/>
<path d="M367.551 371.971C373.843 380.938 380.921 389.326 385.168 395.979C400.426 418.541 415.998 440.235 431.413 462.507C436.918 470.606 443.053 478.995 450.131 479.573C466.647 481.309 497.32 450.937 508.488 429.822C516.824 414.202 522.487 391.929 519.97 370.525C516.51 340.153 491.028 285.773 477.343 268.129C454.378 238.625 419.144 250.485 394.921 266.972C378.562 277.964 347.26 309.781 356.069 348.541C357.799 356.062 362.36 364.161 367.551 371.971Z" stroke="#555770" stroke-miterlimit="10" stroke-linecap="round" stroke-linejoin="round"/>
<path d="M631.025 426.352C677.269 421.435 650.057 329.163 620.486 358.378C612.149 366.477 604.284 389.617 607.116 407.551C610.104 429.245 619.385 427.509 631.025 426.352Z" stroke="#555770" stroke-miterlimit="10" stroke-linecap="round" stroke-linejoin="round"/>
<path d="M1154.5 543.499C1161.26 543.499 1168.03 542.921 1174.79 540.607C1210.97 527.88 1231.57 461.93 1245.41 404.947C1259.26 347.964 1263.03 282.303 1257.68 220.692C1254.07 179.04 1246.67 137.387 1232.2 104.701C1217.73 72.0157 1195.24 49.1648 1172.43 52.3466C1147.58 55.5283 1120.68 84.1645 1111.08 127.263C1105.74 151.271 1098.97 174.122 1093.31 197.263C1088.28 218.378 1085.13 238.626 1077.58 257.717C1063.42 293.006 1042.98 317.881 1020.95 333.79C1003.65 346.518 985.248 346.228 967.159 348.831C927.521 354.617 893.388 328.294 857.525 302.551C843.683 292.716 812.381 257.427 797.753 274.783C790.832 282.882 787.371 297.923 786.113 312.675C785.012 327.427 786.113 342.468 786.428 357.509C787.843 410.442 781.551 464.244 768.024 511.103C756.069 553.334 730.116 581.97 703.848 576.185C695.511 574.16 687.174 569.243 678.995 571.268C667.984 574.16 659.176 588.623 649.266 597.59C629.132 615.523 605.381 609.16 582.888 606.267C555.99 603.085 534.913 619.573 510.532 637.217C487.409 653.994 460.355 686.39 448.558 728.043C438.805 762.753 441.007 809.902 457.209 835.067C468.534 852.711 484.264 857.339 499.207 857.629C528.621 858.496 558.192 863.414 586.977 874.984C603.021 881.347 620.638 883.661 636.053 893.785C649.738 902.752 664.681 913.744 677.265 927.049C687.646 938.041 696.455 952.214 709.667 950.19C728.543 947.586 733.576 926.76 743.486 903.331C753.081 880.19 775.102 862.835 790.674 864.571C816.314 867.752 834.245 899.86 855.952 919.24C883.636 943.826 915.095 896.967 927.207 853.579C937.588 816.265 941.206 773.745 948.441 734.117C952.059 713.87 960.396 690.44 971.721 694.489C982.26 698.25 985.72 721.968 988.237 741.059C991.068 762.753 995.787 784.447 1004.6 799.778C1005.54 801.224 1006.33 802.67 1007.27 804.117C1038.57 851.843 1051.16 761.596 1056.35 720.233C1065 651.391 1076.16 564.615 1119.74 547.259C1131.06 542.631 1142.86 543.788 1154.5 543.499Z" stroke="#555770" stroke-miterlimit="10" stroke-linecap="round" stroke-linejoin="round"/>
<path d="M426.544 409.575C429.847 412.757 433.465 416.228 437.24 416.518C445.891 417.096 452.183 401.766 456.902 388.46C460.992 376.601 465.081 364.741 466.969 351.436C469.014 338.13 468.542 322.799 464.138 311.518C459.262 299.37 450.61 294.163 442.588 291.849C423.713 286.354 375.266 286.643 376.052 340.444C376.367 380.361 411.444 394.824 426.544 409.575Z" stroke="#555770" stroke-miterlimit="10" stroke-linecap="round" stroke-linejoin="round"/>
<path d="M654.461 980.271C654.461 970.147 652.888 960.602 648.327 953.37C641.72 942.668 632.283 940.065 623.474 940.354C614.666 940.643 605.857 943.536 597.049 941.222C584.622 938.04 573.769 925.024 562.444 915.189C543.096 898.412 511.008 898.991 523.592 954.527C526.738 968.411 531.928 980.271 536.018 993.287C544.355 1020.19 547.186 1051.72 551.905 1081.22C556.781 1111.01 564.646 1141.39 579.117 1157C598.307 1177.54 626.305 1162.21 636.215 1125.48C642.035 1104.07 641.878 1077.75 643.608 1053.74C645.024 1033.78 654.304 1004.57 654.461 980.271Z" stroke="#555770" stroke-miterlimit="10" stroke-linecap="round" stroke-linejoin="round"/>
<path d="M536.168 1078.9C552.842 1148.04 580.054 1218.33 620.007 1198.66C639.354 1189.11 648.477 1145.72 655.87 1115.64C665.78 1076.01 674.116 1035.52 682.453 994.732C683.397 990.104 684.34 985.187 684.498 980.27C685.913 922.997 628.343 911.717 608.524 910.56C580.84 908.535 554.887 862.832 526.102 882.791C496.215 903.328 514.147 961.468 520.439 999.939C524.057 1021.92 529.248 1050.27 536.168 1078.9Z" stroke="#555770" stroke-miterlimit="10" stroke-linecap="round" stroke-linejoin="round"/>
<path d="M812.862 923.287C813.805 925.601 814.592 928.494 814.277 931.097C813.648 935.725 810.502 936.882 807.986 937.171C796.66 938.618 750.258 959.733 763.471 915.477C773.852 880.767 802.795 896.676 812.862 923.287Z" stroke="#555770" stroke-miterlimit="10" stroke-linecap="round" stroke-linejoin="round"/>
<path d="M507.066 1173.21C488.348 1119.11 484.73 1054.03 462.394 1002.26C438.171 945.852 398.689 915.769 359.68 925.893C352.13 927.918 344.265 932.546 337.344 927.05C329.951 921.265 326.491 906.224 322.401 893.786C313.278 866.886 289.998 862.547 274.898 853.001C255.865 840.853 237.305 826.39 220.317 806.432C211.666 796.019 202.857 784.159 192.633 782.713C176.431 780.688 163.533 805.564 150.792 824.654C133.018 851.266 111.311 868.91 88.6608 874.985C65.5384 881.348 40.2139 877.009 20.7093 900.728C-15.3113 944.695 -1.94124 1036.97 33.2929 1065.89C64.9092 1091.64 100.93 1097.71 131.288 1129.82C155.197 1154.98 185.083 1219.2 185.397 1272.42C185.712 1305.68 175.96 1339.82 181.937 1371.34C186.026 1392.75 197.037 1408.08 208.834 1415.31C226.609 1426.3 250.517 1431.8 268.449 1421.1C288.74 1408.95 307.773 1385.23 329.951 1387.83C365.657 1391.88 372.421 1460.14 395.858 1493.7C411.588 1516.26 434.238 1514.24 453.114 1502.66C471.989 1490.81 489.134 1470.85 508.01 1458.99C534.907 1442.21 564.007 1442.79 591.848 1433.24C619.689 1423.7 648.946 1399.69 661.058 1352.54C664.518 1338.95 665.777 1319.86 659.013 1310.89C654.294 1304.53 647.688 1306.55 641.868 1307.71C590.432 1318.99 533.963 1251.01 507.066 1173.21Z" stroke="#555770" stroke-miterlimit="10" stroke-linecap="round" stroke-linejoin="round"/>
<path d="M1164.41 -160.546C1224.03 -224.471 1122.41 -385.875 1091.9 -414.8C1074.59 -431.288 1056.82 -440.544 1038.26 -450.089C994.374 -472.651 951.276 -510.832 908.806 -540.625C887.886 -555.377 863.82 -569.84 844 -550.171C827.327 -533.683 819.305 -497.237 816.316 -462.816C809.553 -384.139 809.867 -258.892 757.331 -233.438C728.86 -219.554 708.097 -261.785 694.727 -302.57C688.278 -322.239 682.458 -343.354 673.492 -359.842C642.977 -415.668 601.766 -357.239 585.407 -303.727C569.363 -251.372 563.229 -181.083 575.969 -124.679C584.621 -86.4971 609.631 -57.8612 630.079 -74.9271C649.426 -91.1253 657.92 -133.646 675.223 -155.629C695.986 -182.24 723.984 -163.149 742.073 -135.092C758.904 -108.77 770.229 -72.3238 779.981 -35.8779C801.059 43.9561 820.878 137.674 864.92 182.798C888.357 206.806 925.636 228.211 952.691 213.748C977.387 200.732 1000.35 152.716 1013.09 113.666C1018.44 97.179 1021.11 78.0883 1025.52 60.1545C1035.43 20.2375 1049.59 -15.9192 1066.42 -46.8693C1090.17 -90.5466 1119.27 -124.1 1150.1 -148.687C1154.82 -151.869 1159.85 -155.629 1164.41 -160.546Z" stroke="#555770" stroke-miterlimit="10" stroke-linecap="round" stroke-linejoin="round"/>
<path d="M1134.06 958.29C1152.46 913.167 1185.81 889.737 1215.69 902.464C1243.53 914.323 1293.87 971.885 1313.37 902.175C1320.29 877.299 1316.36 847.217 1310.86 821.184C1306.61 801.515 1301.57 782.135 1295.13 764.49C1285.37 737.59 1272.63 704.325 1256.75 688.995C1242.27 675.111 1224.66 674.243 1209.09 676.846C1188.95 680.028 1168.03 680.028 1149.79 699.408C1127.29 723.127 1110.93 760.441 1099.45 802.382C1093.63 823.498 1087.5 847.506 1084.82 870.646C1080.58 906.803 1067.83 942.381 1068.62 980.273C1068.94 995.893 1073.34 1012.38 1081.2 1018.17C1086.24 1021.93 1092.06 1020.77 1097.41 1018.74C1115.18 1012.67 1121 997.628 1129.49 970.728C1130.91 966.389 1132.48 962.05 1134.06 958.29Z" stroke="#555770" stroke-miterlimit="10" stroke-linecap="round" stroke-linejoin="round"/>
<path d="M1508.73 1731.46C1523.2 1696.75 1535 1657.99 1545.38 1618.65C1566.46 1537.66 1580.46 1440.76 1586.59 1351.67C1593.04 1257.96 1580.93 1166.55 1565.04 1077.46C1554.03 1016.14 1537.67 959.157 1528.71 896.678C1512.98 786.472 1495.67 671.06 1506.68 557.673C1512.66 495.773 1518.95 441.104 1501.49 382.096C1494.73 359.534 1485.45 338.997 1473.97 323.956C1462.33 308.625 1451.47 305.733 1438.26 298.791C1413.09 285.485 1390.6 254.535 1377.07 213.172C1365.43 177.883 1360.71 135.941 1362.29 94.8672C1363.55 65.3634 1367.64 12.7189 1382.11 -5.21477C1390.6 -15.6279 1401.77 -15.3386 1411.68 -10.9998C1421.59 -6.95029 1431.18 0.570514 1441.41 2.59529C1456.04 5.48782 1471.29 -3.18999 1482.3 -21.1237C1495.36 -42.2392 1500.39 -71.1646 1499.29 -102.115C1498.19 -130.751 1498.03 -163.147 1509.36 -185.998C1521.94 -211.163 1544.28 -212.031 1561.27 -198.147C1578.25 -184.263 1591.62 -159.097 1605.62 -136.246C1619.62 -113.395 1635.19 -91.412 1653.76 -87.3625C1697.17 -77.2386 1733.66 -155.048 1737.91 -228.229C1742.63 -308.352 1710.85 -378.93 1700.31 -453.558C1692.61 -508.516 1692.92 -570.127 1708.97 -618.721C1721.71 -657.192 1744.2 -690.456 1742.94 -735.58C1741.84 -773.472 1716.99 -823.513 1696.23 -829.877C1669.33 -838.265 1635.51 -804.133 1615.85 -773.761C1589.26 -732.398 1575.27 -672.233 1560.01 -616.407C1547.58 -571.284 1532.64 -528.474 1515.34 -489.136C1485.29 -420.293 1442.51 -389.054 1395.16 -381.534C1388.56 -380.377 1381.79 -380.087 1375.19 -380.087C1350.49 -380.087 1322.65 -384.137 1298.9 -398.599C1274.2 -413.641 1250.92 -450.087 1228.9 -476.409C1221.35 -485.376 1213.64 -494.342 1204.99 -498.392C1187.22 -506.491 1168.97 -491.739 1152.46 -477.276C1136.57 -463.392 1128.23 -446.326 1137.2 -415.955C1145.22 -389.054 1158.75 -369.096 1168.97 -345.088C1184.23 -309.22 1192.09 -262.94 1210.5 -232.568C1226.86 -205.378 1249.04 -194.387 1269.17 -177.61C1304.25 -148.395 1321.23 -88.2305 1330.83 -22.8592C1350.18 108.173 1354.89 252.51 1348.76 387.881C1346.56 436.475 1342 487.673 1330.99 532.218C1319.35 579.656 1305.03 619.862 1302.99 673.953C1301.1 726.018 1310.38 773.745 1324.22 818.29C1334.45 851.265 1347.34 882.504 1353.32 918.95C1358.83 951.925 1349.08 992.421 1336.96 1017.3C1302.04 1089.03 1235.67 1078.04 1190.84 1050.56C1123.36 1009.2 1095.83 1083.25 1053.83 1169.73C1023 1233.08 1005.54 1323.33 1012.94 1408.37C1016.55 1450.31 1026.78 1489.94 1042.98 1520.31C1067.36 1565.72 1096.14 1565.14 1126.35 1585.97C1158.12 1608.24 1185.96 1648.45 1210.34 1691.26C1234.41 1733.49 1256.74 1779.19 1283.48 1815.35C1301.89 1840.22 1322.81 1860.76 1345.46 1869.73C1382.11 1884.48 1427.72 1852.95 1458.55 1817.37C1478.37 1794.81 1494.73 1765.02 1508.73 1731.46Z" stroke="#555770" stroke-miterlimit="10" stroke-linecap="round" stroke-linejoin="round"/>
<path d="M-229.385 664.117C-219.161 680.026 -208.15 694.778 -196.51 708.084C-173.86 734.117 -149.636 761.595 -125.727 782.711C-84.3586 819.157 -42.5181 840.851 2.78287 852.132C39.5899 861.388 82.2169 860.809 114.62 820.314C152.213 773.455 154.73 675.109 156.932 599.324C159.134 519.49 154.258 430.979 124.372 368.789C106.755 332.343 79.2283 310.938 58.3081 281.724C16.9395 223.584 -5.55375 147.51 -26.0021 61.6018C-42.8327 -8.97608 -71.775 -39.6373 -109.683 -65.9593C-118.177 -71.7444 -127.143 -77.8186 -135.951 -75.2153C-147.906 -72.0335 -157.029 -54.9675 -166.781 -42.2403C-192.106 -9.84391 -227.34 -5.79429 -254.552 -32.4056C-268.079 -45.422 -281.135 -66.2486 -296.392 -63.0668C-313.695 -59.5958 -324.548 -27.1993 -329.267 3.46154C-333.829 34.1224 -335.087 67.676 -344.839 93.9981C-355.221 122.056 -374.096 138.832 -380.545 170.361C-386.208 198.129 -380.388 229.079 -374.096 256.559C-363.086 305.732 -350.659 353.748 -336.975 400.318C-308.19 498.953 -275.472 592.961 -229.385 664.117Z" stroke="#555770" stroke-miterlimit="10" stroke-linecap="round" stroke-linejoin="round"/>
<path d="M-48.1774 1207.34C-31.976 1252.17 -15.4601 1301.05 -2.87647 1348.78C11.2801 1402.87 16.6281 1472.29 -3.34834 1520.02C-16.5611 1551.55 -46.9191 1582.5 -68.9404 1582.5C-111.567 1582.79 -126.51 1512.79 -155.295 1469.11C-171.969 1443.95 -193.675 1419.94 -215.697 1429.19C-224.977 1433.24 -233.943 1439.9 -242.122 1429.48C-249.83 1419.65 -255.021 1393.33 -258.324 1378C-266.503 1339.24 -269.334 1297.29 -273.267 1256.51C-283.334 1152.67 -303.939 1054.03 -322.343 954.818C-330.837 909.405 -342.319 860.521 -343.892 812.216C-345.308 771.142 -354.116 737.01 -358.049 696.803C-361.509 661.514 -359.936 623.622 -349.555 593.25C-337.443 557.383 -320.927 532.796 -327.219 487.384C-333.354 443.996 -345.78 404.079 -360.408 368.79C-378.812 324.245 -400.99 285.774 -422.697 246.435C-434.18 225.32 -445.977 203.336 -451.797 175.279C-457.617 147.221 -455.886 111.932 -443.46 92.5523C-429.618 71.1476 -408.698 76.6435 -391.867 64.7841C-376.767 54.0817 -365.442 29.7844 -358.993 2.59453C-352.543 -24.5953 -350.184 -54.6777 -348.768 -84.1816C-347.982 -101.826 -346.724 -121.495 -339.016 -132.198C-332.882 -140.586 -324.388 -140.586 -317.152 -135.669C-309.917 -130.752 -303.939 -122.074 -297.647 -113.686C-275.312 -83.8925 -249.515 -59.8842 -221.989 -55.5454C-194.462 -51.2066 -164.89 -68.8511 -148.06 -109.057C-141.768 -124.099 -135.004 -144.057 -124.78 -142.032C-113.612 -140.008 -109.68 -114.264 -103.231 -97.198C-93.4784 -71.4544 -75.2322 -63.0662 -59.1881 -51.7853C-28.3582 -29.802 -23.4821 20.5281 -11.685 71.1475C1.37053 127.263 18.6729 179.907 39.7505 226.766C58.9405 269.576 89.4558 284.038 113.837 315.567C145.925 356.93 157.25 406.103 164.014 475.524C170.305 540.317 168.89 607.713 165.429 673.084C162.755 724.861 161.025 775.769 137.588 811.926C119.971 839.116 97.0059 851.843 74.1981 858.496C60.1989 862.546 45.885 864.86 31.7285 867.752C22.9199 869.488 14.2687 871.802 5.6175 874.984C-5.23586 879.033 -14.9882 889.736 -22.6956 903.909C-33.7063 923.867 -30.5604 968.702 -48.1774 975.065C-54.312 977.379 -60.7611 975.355 -66.8956 978.247C-78.85 983.743 -86.5575 1006.3 -88.1304 1028.87C-92.2201 1090.19 -70.8279 1146.01 -53.2109 1193.74C-51.6379 1197.79 -49.9077 1202.71 -48.1774 1207.34Z" stroke="#555770" stroke-miterlimit="10" stroke-linecap="round" stroke-linejoin="round"/>
<path d="M1127.28 -238.642C1128.86 -247.898 1128.86 -258.601 1126.97 -269.881C1119.73 -311.823 1092.52 -345.955 1072.55 -365.625C1047.85 -389.633 1020.64 -403.806 994.37 -420.872C978.011 -431.574 961.81 -443.723 947.024 -459.921C934.126 -474.095 926.104 -487.979 911.318 -493.474C885.993 -503.02 858.309 -507.937 845.254 -457.318C838.176 -429.839 840.692 -398.021 840.378 -367.649C840.063 -325.707 833.929 -283.766 823.075 -247.031C813.795 -215.791 794.605 -196.7 788.942 -162.279C788.156 -157.073 787.369 -151.287 787.055 -144.924C784.852 -108.478 791.302 -72.3214 798.852 -38.4787C808.289 4.04155 819.772 44.8265 833.142 83.5865C847.771 126.107 870.421 158.792 899.363 156.767C927.362 154.743 948.911 102.967 968.259 72.0164C992.639 33.2564 994.527 -16.206 1003.18 -71.1642C1009.78 -113.106 1022.05 -156.205 1043.76 -173.849C1058.39 -185.709 1075.06 -183.973 1090.95 -188.891C1106.36 -194.386 1122.88 -212.031 1127.28 -238.642Z" stroke="#555770" stroke-miterlimit="10" stroke-linecap="round" stroke-linejoin="round"/>
<path d="M-18.2948 944.983C-21.7553 960.602 -22.5418 978.536 -20.0251 998.495C-15.4635 1033.78 -0.677764 1062.71 16.9393 1078.91C37.545 1098 61.6112 1098.87 83.4752 1112.17C108.642 1127.5 130.821 1142.54 148.281 1181.3C159.449 1206.18 167.628 1237.71 170.459 1269.53C172.662 1294.98 166.842 1313.78 166.212 1338.37C164.482 1404.03 203.649 1446.26 234.636 1449.73C255.713 1452.04 276.476 1442.5 296.295 1428.61C306.992 1421.09 318.16 1412.42 329.642 1415.6C356.54 1423.12 371.011 1478.94 389.729 1509.03C413.48 1546.63 446.984 1524.07 472.623 1502.37C498.262 1480.68 521.857 1465.35 549.855 1457.25C582.258 1447.99 615.605 1440.47 645.019 1411.55C661.692 1395.06 676.478 1368.74 681.354 1335.19C686.545 1300.48 679.152 1274.44 659.49 1279.65C628.503 1288.04 595.313 1281.1 566.528 1257.96C542.62 1238.58 522.486 1192.87 509.116 1153.25C495.746 1114.2 492.128 1069.36 480.173 1028.87C466.489 982.296 449.186 953.082 422.761 930.52C409.391 918.95 395.549 912.297 381.077 907.669C369.752 904.198 352.292 904.487 342.54 894.074C334.675 885.686 329.327 870.934 321.148 862.545C311.868 853 301.329 846.926 291.419 839.984C266.095 822.05 239.984 805.562 218.277 775.769C209.94 764.199 200.975 747.133 190.279 748.29C179.74 749.737 168.414 767.67 161.651 780.976C153.629 796.596 146.865 814.53 137.899 828.125C123.114 850.976 103.452 861.099 84.4189 866.306C65.2289 871.512 45.7244 872.669 26.849 881.058C6.71518 890.025 -11.2165 912.586 -18.2948 944.983Z" stroke="#555770" stroke-miterlimit="10" stroke-linecap="round" stroke-linejoin="round"/>
<path d="M1333.66 203.336C1336.65 273.335 1340.43 344.202 1336.34 414.201C1333.66 459.036 1328.16 504.159 1317.94 545.233C1312.74 566.06 1306.14 586.018 1297.8 603.373C1291.04 617.257 1283.17 640.108 1274.36 649.365C1266.5 657.464 1253.6 654.571 1244.64 656.596C1233.78 659.199 1222.61 656.885 1212.39 649.943C1190.53 635.48 1167.09 617.547 1143.49 627.671C1126.66 634.902 1112.51 656.307 1102.44 682.34C1093.32 705.769 1088.44 731.802 1082.15 757.835C1076.49 781.264 1076.02 804.405 1074.44 829.859C1074.44 830.727 1074.29 831.305 1074.29 832.173C1072.4 862.255 1068.78 892.338 1062.96 920.685C1057.61 947.007 1046.6 966.387 1044.4 995.023C1043.93 1001.68 1043.77 1008.91 1041.72 1014.69C1038.26 1025.11 1031.03 1027.42 1025.68 1033.2C1020.02 1039.28 1014.83 1047.67 1009.79 1055.19C996.739 1074.57 982.582 1092.79 966.695 1102.91C942.157 1118.82 914.788 1114.2 889.935 1099.44C865.083 1084.69 844.005 1052.01 819.624 1038.12C797.76 1025.39 772.593 1023.66 749.942 1023.66C739.246 1023.66 727.449 1025.68 719.585 1039.28C708.417 1058.66 710.147 1091.34 708.731 1119.4C706.529 1163.08 693.945 1204.44 675.227 1231.92C655.094 1261.71 634.96 1270.1 608.849 1263.74C568.109 1253.9 540.425 1214.57 518.876 1151.8C508.023 1120.27 505.034 1086.43 497.484 1053.45C483.17 991.841 452.655 937.75 418.679 914.61C402.163 903.329 385.962 896.966 369.603 884.528C349.941 869.198 329.965 854.735 310.145 840.85C285.45 823.495 256.98 805.561 232.284 780.107C222.217 769.694 212.78 757.835 204.6 743.95C188.399 717.05 176.602 676.844 177.231 636.059C178.017 595.853 199.567 562.01 212.622 532.217C235.902 478.994 244.239 422.3 226.936 359.243C201.926 268.417 149.862 256.848 101.572 235.154C80.9664 225.897 59.8889 207.674 43.0583 183.666C28.5872 162.84 18.0484 133.625 8.768 104.989C-11.2085 43.0891 -20.1743 -34.1417 -11.2085 -104.72C5.30748 -234.884 72.7871 -332.362 140.109 -367.073C162.288 -378.354 178.489 -374.593 195.792 -344.8C204.443 -330.048 211.836 -312.982 221.274 -299.966C246.598 -264.099 276.327 -249.347 308.101 -259.47C334.998 -268.148 359.851 -291.577 382.973 -318.478C406.725 -345.668 430.948 -370.833 455.329 -395.998C472.317 -413.643 499.529 -460.791 519.662 -436.204C528.471 -425.502 533.662 -407.279 537.28 -389.056C548.133 -335.255 542.942 -267.569 542.628 -210.587C542.47 -147.24 536.808 -81.8687 538.381 -18.8114C539.324 22.8412 554.582 53.7912 578.019 49.4524C592.175 46.8492 604.13 29.4941 616.242 15.6099C641.094 -12.737 673.182 -48.026 703.069 -48.8938C726.191 -49.4723 752.459 -30.9599 765.2 5.48602C779.671 46.8493 790.525 88.5018 808.614 125.526C839.601 189.162 879.554 238.914 923.596 266.393C959.145 288.665 1011.52 285.194 1034.17 221.558C1055.88 160.815 1034.33 89.948 1050.22 24.8659C1058.56 -9.26606 1074.44 -35.0094 1090.17 -58.439C1109.05 -86.4966 1129.02 -112.819 1150.73 -133.067C1169.76 -151 1197.29 -173.273 1219.31 -166.331C1301.42 -140.587 1327.84 71.4359 1332.88 196.104C1333.35 198.129 1333.51 200.732 1333.66 203.336Z" stroke="#555770" stroke-miterlimit="10" stroke-linecap="round" stroke-linejoin="round"/>
<path d="M960.239 245.857C986.35 246.435 1011.67 223.584 1020.33 177.014C1024.1 156.477 1028.35 145.775 1028.98 124.081C1029.61 104.412 1031.81 85.032 1035.27 66.5197C1042.19 28.9168 1053.83 -5.5045 1068.46 -34.4299C1093.63 -84.1815 1126.34 -119.181 1159.85 -147.817C1168.03 -154.759 1180.61 -162.569 1186.12 -176.453C1192.41 -192.073 1189.1 -220.709 1186.12 -237.486C1178.25 -282.899 1163.46 -307.485 1148.68 -343.353C1134.36 -377.774 1118.32 -410.17 1097.87 -432.732C1087.81 -443.724 1076.95 -455.583 1066.41 -464.839C1037.63 -490.004 1002.71 -502.153 972.194 -520.087C943.723 -536.863 919.814 -571.863 890.086 -582.565C868.064 -590.375 843.212 -583.722 827.01 -555.086C804.989 -516.037 805.461 -453.847 799.956 -402.36C794.293 -348.848 778.721 -289.552 749.778 -267.279C719.421 -243.849 698.5 -322.816 684.029 -359.84C673.018 -388.187 649.11 -403.228 630.391 -395.997C601.292 -385.005 570.619 -347.113 559.451 -294.758C545.924 -230.833 547.812 -152.156 549.384 -85.0492C549.856 -61.909 552.53 -37.6117 561.182 -21.1243C576.282 7.51184 602.708 -0.297933 621.583 -19.9672C640.458 -39.6364 656.66 -68.851 677.265 -80.7104C715.645 -102.404 752.138 -78.9748 774.474 -17.653C788.158 19.95 796.652 63.3379 809.865 101.519C841.796 191.188 902.669 244.411 960.239 245.857Z" stroke="#555770" stroke-miterlimit="10" stroke-linecap="round" stroke-linejoin="round"/>
<path d="M1602.94 1279.94C1601.53 1225.56 1596.34 1171.18 1587.37 1118.24C1576.99 1057.5 1562.83 1001.97 1552.61 940.933C1541.28 872.669 1529.96 803.826 1522.72 733.537C1515.33 661.513 1517.85 600.77 1527.44 529.903C1540.97 430.4 1510.14 332.921 1458.54 296.475C1441.4 284.327 1422.52 279.12 1407.42 260.319C1371.25 215.195 1346.55 56.9733 1401.76 21.9737C1415.6 13.2961 1430.7 22.8415 1445.33 24.577C1465.15 26.891 1485.29 13.8748 1499.91 -10.7118C1500.86 -12.4473 1501.8 -14.183 1502.74 -15.9185C1515.64 -40.2158 1523.19 -73.7691 1523.51 -107.612C1523.67 -126.124 1522.25 -146.95 1528.86 -161.124C1535.46 -175.297 1547.42 -175.587 1557.17 -170.669C1585.64 -156.207 1605.62 -109.348 1632.36 -86.2073C1657.52 -64.5132 1688.2 -65.6701 1712.58 -89.6782C1737.27 -113.686 1758.82 -166.041 1759.92 -218.685C1762.28 -339.593 1707.39 -435.915 1717.3 -557.691C1719.97 -590.665 1726.42 -622.483 1736.01 -650.83C1744.66 -676.285 1756.3 -689.301 1756.93 -720.83C1757.88 -771.16 1742.46 -826.407 1715.72 -843.762C1656.58 -882.522 1607.82 -804.135 1578.56 -716.78C1563.3 -671.078 1551.51 -621.616 1535.3 -577.36C1484.5 -438.518 1395.63 -357.238 1306.91 -418.27C1282.85 -434.758 1260.67 -459.055 1240.06 -487.113C1226.38 -505.914 1201.68 -563.765 1182.33 -554.798C1176.51 -551.905 1172.58 -542.36 1168.49 -534.261C1162.99 -522.98 1156.7 -513.724 1149.62 -505.914C1137.35 -492.609 1118.47 -494.055 1118.32 -459.923C1118.32 -444.882 1122.25 -430.998 1126.65 -418.56C1136.25 -391.948 1149.3 -370.833 1159.68 -345.668C1179.98 -297.362 1188 -221.867 1219.77 -194.677C1241.32 -176.165 1266.17 -174.14 1283.79 -142.612C1303.61 -107.034 1313.52 -56.4141 1321.07 -8.39797C1336.17 88.2127 1341.05 195.237 1342.15 295.897C1342.78 348.252 1343.4 403.789 1338.37 456.433C1333.02 512.837 1319.18 553.044 1303.45 601.06C1285.05 656.886 1293.86 730.066 1308.01 785.603C1321.54 838.826 1345.76 912.875 1327.2 971.883C1316.19 1006.59 1294.01 1024.82 1272.31 1028.87C1228.11 1037.25 1174.94 983.742 1133.73 1027.71C1122.41 1039.86 1112.02 1055.48 1099.44 1062.42C1092.68 1066.18 1085.28 1067.34 1079.94 1075.44C1073.96 1084.69 1071.91 1099.73 1069.55 1113.33C1061.06 1163.08 1034.01 1175.23 1019.53 1214.28C1003.02 1258.82 995.625 1314.36 998.614 1367.87C1002.55 1437.58 1025.83 1530.43 1059.96 1566.88C1073.33 1581.05 1088.74 1586.55 1103.53 1594.65C1136.4 1612.29 1165.66 1649.6 1185.64 1699.64C1211.91 1765.59 1246.04 1819.68 1284.73 1859.6C1302.82 1878.11 1321.7 1898.07 1342.46 1899.23C1343.88 1899.23 1345.14 1899.23 1346.55 1899.52C1392.01 1900.68 1437.78 1877.54 1475.69 1830.97C1519.1 1777.45 1537.51 1704.27 1560.94 1622.41C1578.88 1560.22 1591.14 1492.54 1597.59 1423.12C1602.63 1375.97 1604.2 1327.95 1602.94 1279.94Z" stroke="#555770" stroke-miterlimit="10" stroke-linecap="round" stroke-linejoin="round"/>
<path d="M81.1155 770.273C116.192 715.604 119.181 604.82 113.046 526.721C106.597 442.838 84.4186 364.45 50.6002 307.178C23.86 262.054 -6.49797 222.137 -25.688 165.443C-39.53 124.659 -50.5406 75.1966 -68.4723 39.9076C-92.3811 -7.52994 -119.908 6.06491 -140.513 51.767C-149.637 71.7255 -159.074 93.9981 -172.759 100.651C-189.904 109.039 -207.049 90.527 -221.678 72.0147C-236.306 53.7918 -252.665 33.8332 -270.125 39.0397C-284.124 43.3786 -295.135 63.0479 -305.044 82.1386C-320.302 111.064 -335.874 140.857 -343.896 178.171C-355.379 230.815 -345.941 295.897 -337.762 348.541C-328.324 409.574 -313.381 468.003 -293.719 520.358C-280.349 555.936 -264.619 588.332 -247.317 617.547C-227.183 651.1 -204.847 679.737 -180.781 702.877C-149.007 733.248 -114.56 766.513 -79.3256 780.686C-28.5193 800.355 36.4436 839.983 81.1155 770.273Z" stroke="#555770" stroke-miterlimit="10" stroke-linecap="round" stroke-linejoin="round"/>
<path d="M476.396 1161.34C469.475 1134.73 466.329 1110.43 463.34 1082.09C460.194 1053.74 447.925 1028.87 436.915 1008.91C417.882 974.775 382.019 944.982 359.84 987.502C355.593 995.601 352.604 1005.44 348.358 1013.25C344.111 1021.34 338.291 1027.71 332.313 1026.26C324.449 1024.24 319.415 1009.2 318.157 995.023C316.898 980.56 318.157 965.808 317.37 951.345C313.91 889.734 278.99 872.09 251.464 858.784C217.645 842.297 180.681 840.272 148.435 865.148C124.369 883.66 99.674 910.56 73.4057 915.478C62.2377 917.503 50.2833 919.238 41.7894 932.544C31.8798 947.874 29.6776 976.51 34.8684 998.493C47.1374 1050.27 76.237 1040.15 99.2021 1060.1C122.796 1080.64 146.705 1112.46 163.536 1149.19C186.344 1199.24 205.062 1264.9 226.611 1303.95C253.509 1352.54 291.417 1351.67 326.022 1339.23C359.84 1327.09 391.456 1299.32 422.129 1347.04C432.825 1363.53 441.162 1386.67 454.374 1394.77C475.924 1408.08 497.473 1375.68 520.124 1371.92C531.134 1370.18 541.988 1375.1 552.998 1377.42C564.009 1379.73 575.964 1378.28 584.615 1365.85C593.266 1353.41 596.412 1326.51 588.233 1312.91C585.401 1308.28 581.783 1305.68 578.323 1303.37C553.628 1286.3 517.764 1275.31 501.091 1235.39C491.496 1212.25 483.159 1187.67 476.396 1161.34Z" stroke="#555770" stroke-miterlimit="10" stroke-linecap="round" stroke-linejoin="round"/>
<path d="M168.569 1093.08C157.401 1067.34 143.559 1041.3 125.942 1031.47C110.527 1023.08 89.9211 1015.27 83.3147 983.742C76.2364 950.767 97.9432 934.569 110.999 925.024C125.313 914.321 138.84 900.726 152.839 889.445C182.253 865.726 216.386 872.379 246.744 891.181C260.586 899.569 274.114 910.85 284.652 929.362C295.191 947.875 302.27 974.197 300.697 1000.81C299.124 1026.84 289.686 1048.82 279.776 1067.91C270.024 1087.01 259.171 1105.52 253.823 1129.81C247.059 1160.19 253.665 1198.08 267.665 1217.75C283.866 1240.6 306.674 1230.19 322.561 1211.38C341.121 1189.4 355.278 1154.4 361.57 1115.35C365.502 1090.77 366.446 1064.44 371.637 1040.44C376.985 1016.72 388.467 994.444 402.467 995.023C420.084 995.601 431.251 1029.44 437.229 1059.82C444.15 1094.24 448.869 1129.81 451.543 1166.26C453.745 1196.63 453.745 1230.76 443.206 1254.19C433.925 1274.73 418.668 1282.54 404.197 1283.7C389.726 1284.86 375.254 1280.52 360.783 1282.25C337.346 1284.86 314.696 1303.37 291.259 1300.47C262.474 1297.29 237.464 1262.58 218.903 1221.8C200.342 1181.88 186.5 1134.73 168.569 1093.08Z" stroke="#555770" stroke-miterlimit="10" stroke-linecap="round" stroke-linejoin="round"/>
<path d="M1241.17 975.643C1234.25 972.751 1227.33 969.569 1220.41 966.966C1204.99 960.891 1188.63 957.42 1173.69 966.676C1157.8 976.511 1145.53 999.073 1132.01 1017.01C1114.7 1040.44 1081.04 1063.29 1062.8 1030.89C1047.54 1003.99 1057.13 960.313 1065 931.387C1080.73 873.537 1081.04 809.322 1096.46 750.893C1105.11 718.207 1118.79 688.414 1137.04 673.952C1156.07 659.2 1176.99 660.935 1197.13 662.382C1216.94 664.117 1236.92 658.332 1256.11 670.191C1271.53 679.737 1278.76 702.877 1287.41 726.596C1296.54 751.761 1305.19 777.794 1311.64 805.562C1319.34 839.405 1329.88 899.28 1319.34 934.858C1310.06 966.098 1284.9 983.742 1266.81 982.585C1258.16 982.007 1249.66 979.114 1241.17 975.643Z" stroke="#555770" stroke-miterlimit="10" stroke-linecap="round" stroke-linejoin="round"/>
<path d="M-300.63 429.243C-292.923 464.821 -283.171 498.953 -271.216 530.481C-244.948 599.324 -207.04 654.86 -163.469 681.472C-127.291 703.455 -88.7538 714.447 -51.7894 691.306C12.0724 651.389 76.406 514.573 39.599 387.301C17.1058 309.203 -18.4429 244.121 -61.0699 203.336C-69.7211 194.947 -80.2599 187.716 -88.9111 196.104C-95.5175 202.468 -98.8207 216.352 -99.7645 229.947C-100.708 243.542 -99.6072 257.137 -99.4499 270.732C-99.2926 313.83 -110.775 357.218 -130.437 380.937C-150.099 404.656 -177.154 406.97 -196.973 383.83C-220.41 356.64 -229.848 302.839 -233.937 252.798C-237.083 214.617 -240.072 170.071 -258.161 150.402C-275.149 131.89 -298.428 147.51 -309.911 176.724C-330.516 229.658 -322.337 288.955 -314.472 349.119C-310.855 376.309 -306.293 403.21 -300.63 429.243Z" stroke="#555770" stroke-miterlimit="10" stroke-linecap="round" stroke-linejoin="round"/>
<path d="M1484.66 481.886C1475.54 446.887 1457.92 420.565 1435.74 417.383C1408.85 413.623 1382.74 446.598 1371.1 490.275C1360.4 531.06 1358.98 577.919 1360.56 623.042C1362.29 678.001 1363.86 732.38 1365.12 787.049C1366.53 845.767 1375.03 909.693 1367.16 967.543C1360.09 1020.19 1339.95 1062.42 1312.11 1080.93C1298.11 1090.19 1283.48 1093.08 1268.7 1091.92C1261.93 1091.34 1254.86 1093.08 1248.25 1091.63C1229.85 1087.58 1210.5 1081.51 1192.57 1077.17C1171.8 1071.96 1151.35 1074.28 1131.54 1087.29C1070.82 1127.5 1033.23 1265.19 1055.88 1377.99C1066.26 1429.48 1089.07 1472 1116.91 1491.96C1141.76 1509.6 1169.44 1509.32 1195.08 1522.62C1223.08 1537.37 1248.09 1567.74 1269.48 1604.19C1296.54 1650.47 1322.81 1749.11 1365.28 1749.4C1387.77 1749.69 1405.39 1715.55 1419.39 1683.45C1439.83 1637.17 1460.13 1589.73 1479.63 1542C1498.51 1496.3 1514.08 1445.97 1525.87 1393.04C1541.6 1323.04 1560.79 1221.22 1551.04 1145.72C1543.65 1089.32 1526.19 1035.81 1515.49 980.849C1504.64 924.734 1495.52 867.172 1488.44 809.032C1484.66 777.793 1485.45 747.421 1484.98 716.182C1484.51 683.496 1483.88 653.993 1486.71 621.307C1489.38 589.489 1492.69 557.092 1490.95 524.985C1490.33 509.655 1488.12 495.192 1484.66 481.886Z" stroke="#555770" stroke-miterlimit="10" stroke-linecap="round" stroke-linejoin="round"/>
<path d="M1472.07 715.893C1474.43 680.604 1478.84 645.894 1480.73 610.605C1484.19 544.944 1474.43 454.986 1432.59 440.234C1402.08 429.532 1378.64 500.688 1372.51 545.812C1367.32 583.704 1366.37 628.828 1369.68 667.588C1372.66 702.298 1374.08 737.298 1376.12 772.587C1380.69 850.396 1386.98 925.023 1368.73 999.94C1359.29 1038.99 1342.78 1073.12 1321.23 1089.32C1288.2 1113.91 1245.88 1097.13 1211.59 1091.05C1192.4 1087.58 1171.8 1077.46 1152.45 1084.4C1132.79 1091.63 1115.49 1113.33 1101.8 1140.23C1065.78 1211.38 1054.61 1295.85 1086.07 1379.44C1109.51 1441.63 1160 1458.99 1197.28 1478.08C1224.81 1491.96 1253.28 1510.18 1272.62 1548.94C1294.33 1592.91 1303.45 1661.46 1333.18 1684.89C1364.01 1709.19 1398.46 1670.14 1422.06 1626.46C1452.1 1571.22 1476.16 1504.98 1495.51 1435.56C1515.02 1365.56 1529.02 1296.71 1528.86 1216.88C1528.7 1136.47 1512.66 1062.71 1498.66 987.502C1482.93 901.305 1466.1 807.587 1472.07 715.893Z" stroke="#555770" stroke-miterlimit="10" stroke-linecap="round" stroke-linejoin="round"/>
<path d="M284.964 219.244C272.223 236.31 258.381 241.227 243.123 244.698C235.101 246.433 219.844 245.566 227.866 264.656C230.697 271.309 238.09 271.888 241.865 277.094C246.898 283.747 250.044 293.292 252.718 303.416C258.381 323.664 260.426 347.961 269.234 365.027C283.391 392.795 294.873 376.597 298.648 342.466C302.581 308.044 308.243 274.491 315.793 242.384C318.625 230.235 338.444 178.169 335.455 170.938C327.276 149.823 291.57 210.566 284.964 219.244Z" stroke="#555770" stroke-miterlimit="10" stroke-linecap="round" stroke-linejoin="round"/>
<path d="M281.356 457.012C285.288 497.218 279.311 539.739 265.154 571.267C258.705 585.441 251.155 597.589 245.178 612.341C232.28 644.159 232.437 681.762 254.301 691.597C274.592 700.563 286.704 722.547 300.86 748.001C322.41 786.182 350.566 816.843 379.98 831.884C391.305 837.67 416.63 851.264 427.483 837.959C436.921 826.099 430 784.447 429.842 764.778C429.685 755.811 429.213 745.398 425.123 740.77C421.191 736.431 415.843 739.902 412.383 745.687C408.922 751.472 406.72 759.282 403.417 765.356C392.406 785.893 372.272 781.555 361.104 761.596C343.802 730.935 349.307 690.44 345.218 651.969C340.656 609.159 332.634 567.796 323.511 527.59C317.691 501.846 308.253 475.524 304.321 448.624C302.119 433.293 302.591 404.946 288.749 411.021C276.952 415.649 279.783 441.971 281.356 457.012Z" stroke="#555770" stroke-miterlimit="10" stroke-linecap="round" stroke-linejoin="round" stroke-dasharray="8 8"/>
<path d="M267.032 613.5C266.56 614.657 266.088 615.525 265.616 616.682C263.099 623.335 261.998 632.591 264.358 639.533C267.189 648.21 273.638 649.657 278.986 648.5C284.334 647.343 289.997 644.739 295.188 648.21C301.165 652.26 304.625 663.83 306.198 675.111C307.771 686.392 308.243 698.251 310.76 709.243C313.119 719.945 318.467 730.069 324.916 729.78C330.736 729.491 335.455 720.813 337.343 710.689C339.23 700.565 338.601 689.574 337.657 679.161C333.882 637.508 324.287 598.748 314.849 560.277C313.119 553.335 311.232 546.104 307.614 542.633C300.693 536.269 292.828 547.839 289.21 560.277C286.064 570.98 284.177 582.839 279.93 592.385C276.155 600.484 270.807 605.69 267.032 613.5Z" stroke="#555770" stroke-miterlimit="10" stroke-linecap="round" stroke-linejoin="round"/>
<path d="M407.186 373.417C375.255 348.541 394.13 303.417 421.342 305.731C429.522 306.599 438.173 314.12 441.476 328.004C445.094 343.334 440.847 362.136 433.297 371.103C425.589 380.07 415.523 379.78 407.186 373.417Z" stroke="#555770" stroke-miterlimit="10" stroke-linecap="round" stroke-linejoin="round" stroke-dasharray="8 8"/>
<path d="M178.645 415.939C182.105 444.575 180.69 475.814 177.072 509.078C175.499 524.698 175.342 545.524 183.521 550.731C190.285 555.069 196.891 544.078 200.981 533.375C213.092 500.979 223.159 442.55 221.429 402.633C219.699 361.269 194.532 319.617 176.915 298.791C162.915 282.303 146.399 272.758 131.299 260.609C118.401 250.196 107.547 268.419 118.558 292.716C123.749 303.997 132.085 310.939 139.006 318.46C158.826 339.575 173.611 373.997 178.645 415.939Z" stroke="#555770" stroke-miterlimit="10" stroke-linecap="round" stroke-linejoin="round" stroke-dasharray="8 8"/>
<path d="M-241.181 104.124C-252.664 96.6033 -267.45 96.3141 -277.202 99.7851C-291.044 104.702 -302.055 123.504 -311.807 142.595C-341.536 201.024 -336.345 279.99 -326.435 352.593C-313.852 445.443 -286.168 531.062 -247.631 595.566C-217.587 646.185 -183.297 681.185 -144.445 702.879C-106.694 723.994 -70.3589 731.226 -31.3498 732.961C2.62599 734.408 37.0736 706.928 58.9376 658.623C96.2165 575.896 85.0486 469.741 58.4657 382.964C30.4672 292.139 -19.8672 233.42 -51.0116 145.487C-61.0785 116.851 -72.8757 89.0827 -93.1668 87.0579C-106.694 85.9009 -120.222 97.471 -128.401 117.43C-135.479 134.785 -138.31 156.479 -141.142 177.594C-143.973 198.71 -147.434 220.404 -155.456 236.313C-163.478 252.222 -177.477 260.032 -187.229 248.172C-192.577 241.809 -195.723 231.106 -198.712 220.693C-207.52 190.9 -216.172 139.413 -229.699 116.272C-232.845 110.777 -236.777 106.727 -241.181 104.124Z" stroke="#555770" stroke-miterlimit="10" stroke-linecap="round" stroke-linejoin="round"/>
<path d="M-139.885 452.962C-141.615 453.54 -143.188 454.119 -144.919 454.987C-169.928 464.821 -182.355 494.325 -166.153 538.002C-158.918 557.382 -147.435 570.399 -135.324 578.498C-108.741 595.853 -75.866 612.051 -47.7102 601.349C-32.2953 595.564 -17.3523 582.547 -6.65624 561.143C6.87114 534.242 12.5338 496.061 10.9608 459.615C9.38788 423.169 1.20859 388.458 -10.1167 358.376C-19.5544 333.211 -38.1153 297.054 -56.9907 313.252C-65.0127 320.195 -70.2034 334.368 -73.8212 349.12C-77.439 363.872 -79.6412 379.78 -83.7308 393.954C-96.1572 436.763 -117.077 443.995 -139.885 452.962Z" stroke="#555770" stroke-miterlimit="10" stroke-linecap="round" stroke-linejoin="round" stroke-dasharray="8 8"/>
<path d="M251 935.726C228.507 924.445 205.384 915.478 181.947 913.743C164.33 912.296 136.646 907.958 123.119 932.833C117.928 942.379 115.097 957.709 118.557 969.858C123.433 986.635 133.658 984.61 142.151 988.37C152.376 992.998 161.971 1002.54 169.678 1015.85C181.161 1035.81 188.554 1063.87 202.238 1078.33C220.013 1097.13 242.82 1086.43 260.595 1067.34C268.774 1058.37 276.639 1047.67 281.987 1033.2C287.335 1018.74 289.852 999.94 287.02 983.164C282.301 956.263 265.943 942.957 251 935.726Z" stroke="#555770" stroke-miterlimit="10" stroke-linecap="round" stroke-linejoin="round"/>
<path d="M895.121 927.049C883.795 933.702 869.324 940.354 867.751 962.048C866.178 982.296 877.975 996.759 888.514 1003.12C913.524 1018.16 941.208 1016.43 965.589 998.494C989.97 980.561 1010.73 946.429 1023.16 903.908C1026.93 891.181 1029.92 875.562 1026.78 862.256C1020.33 834.777 997.992 838.537 989.026 814.24C982.891 798.042 977.701 745.108 960.241 773.166C953.477 784.158 953.634 808.744 950.96 823.785C948.286 839.405 944.354 854.157 939.163 867.752C928.31 895.231 912.738 916.925 895.121 927.049Z" stroke="#555770" stroke-miterlimit="10" stroke-linecap="round" stroke-linejoin="round" stroke-dasharray="8 8"/>
<path d="M1016.23 -232.57C1033.06 -252.529 1069.24 -288.975 1049.74 -333.52C1028.5 -382.114 993.269 -384.428 964.484 -406.99C940.889 -425.502 918.239 -448.353 893.386 -460.213C885.836 -463.684 877.5 -466.287 870.579 -459.345C859.096 -448.064 858.152 -418.85 857.68 -394.842C856.894 -351.453 852.804 -308.355 845.411 -267.281C838.962 -231.413 826.851 -197.281 823.39 -159.968C819.3 -115.712 832.041 -66.828 849.344 -37.3241C866.017 -8.9773 888.982 6.35328 911.475 4.03925C936.642 1.72523 952.215 -23.729 960.551 -65.6708C966.686 -96.6209 968.259 -127.571 977.382 -156.786C987.134 -187.736 1000.35 -213.769 1016.23 -232.57Z" stroke="#555770" stroke-miterlimit="10" stroke-linecap="round" stroke-linejoin="round"/>
<path d="M735.465 194.947C742.072 201.889 751.352 209.12 755.914 198.128C758.588 191.765 757.644 182.798 756.228 175.566C746.948 128.707 718.477 101.517 691.423 100.36C664.21 99.2035 638.257 119.162 614.191 142.302C610.573 145.773 606.798 149.534 604.124 155.608C601.45 161.393 600.191 170.071 602.079 177.013C604.91 187.715 612.932 188.294 619.381 187.426C642.504 184.244 665.469 186.269 688.277 180.195C706.366 175.277 718.477 177.013 735.465 194.947Z" stroke="#555770" stroke-miterlimit="10" stroke-linecap="round" stroke-linejoin="round" stroke-dasharray="8 8"/>
</g>
</g>
</svg>
