 <svg width="1440" height="556" viewBox="0 0 1440 556" fill="none" xmlns="http://www.w3.org/2000/svg">
      <rect width="1440" height="556" fill="#F0FFFF"/>
      <g opacity="0.07">
      <mask id="mask0_0_1206" style="mask-type:alpha" maskUnits="userSpaceOnUse" x="0" y="0" width="1440" height="556">
      <rect x="0.5" y="0.5" width="1439" height="555" fill="#E0E0E0" stroke="#11B2A8"/>
      </mask>
      <g mask="url(#mask0_0_1206)">
      <path d="M228.966 106.024C233.842 109.189 239.19 110.772 244.224 110.376C262.47 108.794 273.953 78.1314 285.12 63.6906C306.827 35.6003 337.5 30.8528 367.543 32.2375C400.732 33.8201 438.169 37.3807 462.707 9.09254C492.75 -25.5258 499.514 -132.15 449.022 -145.998C433.764 -150.152 417.878 -144.415 403.249 -137.294C388.621 -130.172 374.15 -121.666 358.577 -119.688C341.904 -117.71 325.231 -123.644 308.557 -125.622C255.234 -131.755 234.471 -45.7033 216.54 5.53193C209.776 25.116 202.698 45.887 205.057 67.0537C206.788 82.0879 216.854 98.309 228.966 106.024Z" stroke="#11B2A8" stroke-miterlimit="10" stroke-linecap="round" stroke-linejoin="round"/>
      <path d="M489.143 414.622C503.299 406.709 517.77 399.192 532.242 392.07C552.69 381.982 574.397 372.684 595.946 377.234C614.507 380.993 634.169 394.84 650.999 384.158C665.313 375.058 669.875 349.737 684.975 342.814C698.031 336.681 704.952 348.748 716.749 352.111C756.387 363.585 756.387 293.754 751.196 262.301C746.949 236.387 740.657 208.692 723.984 192.471C680.099 149.544 612.147 201.768 560.869 166.161C514.153 133.719 463.975 117.695 409.394 134.114C350.408 151.918 304.321 239.948 325.084 314.13C333.42 343.803 348.364 369.717 360.318 397.214C368.025 415.215 376.205 435.195 375.261 455.768C374.632 468.627 364.25 488.606 379.98 496.124C389.26 500.476 398.226 489.2 403.417 478.715C420.405 445.284 461.459 430.052 489.143 414.622Z" stroke="#11B2A8" stroke-miterlimit="10" stroke-linecap="round" stroke-linejoin="round"/>
      <path d="M144.039 159.832C152.218 162.997 160.083 166.558 167.319 171.503C190.441 187.329 214.035 204.737 231.023 230.651C249.584 258.94 251.943 298.504 241.877 332.924C227.563 382.181 175.341 406.908 194.688 466.056C202.238 489.003 217.496 506.61 234.641 518.874C264.213 540.041 297.874 549.141 327.76 569.318C350.253 584.55 373.375 597.804 398.071 605.915C422.923 614.223 449.663 620.356 469.954 641.72C491.504 664.667 501.099 700.077 511.48 733.113C523.278 771.094 538.535 811.449 566.848 835.187C598.15 861.695 643.766 855.959 674.281 829.451C688.909 816.592 701.178 797.799 704.324 775.644C706.212 762.785 704.796 749.532 704.796 736.278C704.796 723.222 706.212 709.177 712.661 698.89C724.773 679.306 750.254 679.503 768.029 681.68C794.14 684.845 817.419 695.131 840.856 709.968C866.653 726.387 892.606 745.575 921.391 748.938C955.367 752.894 989.343 733.706 1013.57 703.835C1037.79 673.767 1053.05 633.807 1062.17 592.463C1071.45 550.13 1065.79 504.829 1078.21 463.485C1086.71 434.999 1105.43 409.084 1129.49 404.535C1150.73 400.38 1168.19 413.436 1186.75 423.723C1201.38 431.834 1217.26 444.494 1233.78 444.692C1269.01 445.285 1297.17 406.513 1311.8 366.158C1335.08 301.866 1337.12 229.86 1329.57 160.623C1326.11 129.368 1322.49 98.1123 1316.83 67.4503C1303.3 -5.54501 1269.01 -110.587 1195.56 -99.707C1167.4 -95.5528 1141.13 -79.1339 1117.38 -59.9454C1091.9 -39.3722 1067.52 -13.6556 1055.09 21.1606C1036.53 73.3849 1070.19 102.464 1064.69 147.369C1059.34 191.483 1015.93 216.804 984.31 216.606C905.033 216.211 826.7 129.764 782.5 53.9988C767.085 27.6888 749.782 -10.2926 721.784 -13.8534C690.482 -17.8098 656.978 -5.34704 630.71 15.424C610.891 31.2495 574.241 70.8133 549.546 54.3943C539.322 47.6685 535.075 32.0408 532.873 17.6C524.379 -38.7786 530.67 -95.3549 531.457 -152.525C531.929 -186.55 536.962 -228.685 525.165 -260.534C520.289 -273.986 509.593 -285.064 497.796 -283.877C490.717 -283.283 484.426 -278.338 478.291 -273.59C447.461 -249.061 416.632 -224.531 385.487 -201.188C357.646 -180.417 326.344 -166.372 293.627 -166.372C270.032 -166.372 243.45 -172.9 222.844 -188.132C206.485 -200.397 198.778 -225.916 180.689 -235.015C151.589 -249.654 110.85 -222.157 87.2555 -202.375C58.7851 -178.439 32.6741 -147.184 15.529 -109.598C-10.582 -52.2304 -6.96424 18.7869 20.7197 73.9785C35.82 104.245 60.6727 124.422 86.3118 138.27C104.558 148.556 125.164 152.711 144.039 159.832Z" stroke="#11B2A8" stroke-miterlimit="10" stroke-linecap="round" stroke-linejoin="round"/>
      <path d="M785.798 346.375C780.764 359.629 773.529 371.894 763.147 382.18C748.047 397.214 728.542 405.325 709.352 404.732C698.342 404.336 687.174 401.369 676.32 405.918C668.456 409.084 660.905 414.82 653.512 419.173C629.446 433.811 609.313 429.657 583.516 427.679C551.743 425.305 519.497 437.372 493.386 460.121C471.365 479.309 447.299 513.137 460.511 550.129C463.185 557.646 468.376 563.383 474.039 567.537C491.97 580.395 514.149 577.032 534.597 574.263C588.235 566.944 642.345 600.573 691.578 622.135C699.443 625.498 712.184 631.037 720.52 627.08C729.801 622.728 733.576 606.31 739.238 597.21C751.979 576.637 774.944 570.108 795.393 574.065C810.965 577.032 828.425 584.747 841.008 596.814C850.918 606.309 855.637 617.19 869.164 618.179C900.151 620.157 923.903 581.582 930.352 547.161C934.127 527.182 934.127 506.213 939.475 486.827C946.239 462.89 972.664 429.855 988.236 463.88C993.899 476.342 994.056 491.179 995.944 505.224C997.831 519.269 1003.02 534.501 1013.72 539.249C1025.2 544.59 1038.26 534.699 1044.55 521.445C1050.84 508.191 1052.26 492.365 1054.46 477.133C1059.02 446.867 1067.83 416.996 1084.19 394.049C1108.57 360.024 1134.36 364.377 1166.61 360.618C1200.58 356.662 1218.52 308.789 1228.43 267.841C1239.91 220.76 1249.82 170.118 1238.02 123.235C1226.22 76.3518 1183.91 38.5682 1147.89 57.5589C1112.34 76.3517 1104.01 133.522 1083.56 174.668C1061.54 219.375 1024.89 238.168 985.091 245.289C961.496 249.444 936.015 243.905 913.049 238.366C888.354 232.431 863.659 227.09 838.806 222.738C830.784 221.353 822.29 219.969 814.583 223.331C802.314 228.87 800.112 246.081 799.325 260.521C797.595 290.194 795.55 320.658 785.798 346.375Z" stroke="#11B2A8" stroke-miterlimit="10" stroke-linecap="round" stroke-linejoin="round"/>
      <path d="M1174.64 144.994C1160.01 144.796 1140.98 172.689 1140.66 199.197C1140.35 219.572 1157.02 238.563 1173.85 231.046C1190.68 223.528 1192.41 195.24 1191.15 176.645C1189.74 154.094 1182.82 145.192 1174.64 144.994Z" stroke="#11B2A8" stroke-miterlimit="10" stroke-linecap="round" stroke-linejoin="round"/>
      <path d="M783.757 509.18C813.328 491.376 843.686 475.947 873.73 459.725C884.74 453.791 918.873 416.996 890.56 408.095C880.808 404.929 872.629 417.986 862.876 420.162C855.484 421.942 847.933 417.194 840.383 417.392C826.069 417.788 815.373 435.591 804.834 445.68C791.622 458.341 777.308 470.012 761.421 476.738C753.399 480.101 743.961 483.661 741.444 493.75C738.456 505.026 747.422 516.895 756.859 518.478C766.14 519.665 775.263 514.324 783.757 509.18Z" stroke="#11B2A8" stroke-miterlimit="10" stroke-linecap="round" stroke-linejoin="round"/>
      <path d="M340.967 -104.851C311.396 -98.5209 283.869 -88.8277 265.937 -52.6267C255.241 -31.0644 249.264 -6.53477 243.444 17.5992C241.242 26.6989 239.04 36.5899 241.714 45.2939C247.377 64.2846 268.611 51.8218 277.735 43.9091C294.408 33.4246 302.587 11.8623 322.406 8.30155C347.573 3.94952 376.044 9.09302 401.368 9.48866C418.042 9.68648 435.659 9.68633 449.501 -1.7872C463.185 -13.0629 470.421 -33.4382 473.881 -53.6158C476.398 -68.8479 477.185 -85.0691 473.252 -100.103C469.32 -114.94 460.354 -128.194 448.242 -132.546C433.771 -137.689 418.828 -129.183 404.829 -122.457C384.538 -112.17 362.359 -109.401 340.967 -104.851Z" stroke="#11B2A8" stroke-miterlimit="10" stroke-linecap="round" stroke-linejoin="round"/>
      <path d="M283.392 -140.062C282.291 -139.865 281.032 -139.667 279.931 -139.469C241.237 -132.941 203.014 -110.983 177.06 -73.7929C163.533 -54.4066 152.679 -32.2506 144.972 -8.31451C122.793 61.5157 164.949 151.326 226.608 154.293C273.01 156.469 301.166 105.827 340.962 86.0452C371.32 70.8131 422.913 59.7352 453.585 70.4174C460.349 72.7912 467.427 76.1542 474.033 73.3847C483.628 69.6261 487.718 55.7788 490.392 43.7118C499.358 4.93924 510.054 -36.2071 506.908 -77.1557C505.021 -101.685 499.043 -130.765 488.819 -151.734C480.168 -169.34 466.798 -181.604 450.125 -182.593C434.71 -183.582 423.227 -172.9 409.542 -166.174C396.802 -160.042 382.33 -156.086 368.96 -152.723C340.962 -145.799 311.233 -143.425 283.392 -140.062Z" stroke="#11B2A8" stroke-miterlimit="10" stroke-linecap="round" stroke-linejoin="round"/>
      <path d="M1029.92 661.501C1050.84 617.98 1057.29 564.767 1063.74 515.51C1068.14 481.683 1074.12 446.471 1089.85 417.787C1104.48 391.279 1129.65 386.136 1154.18 388.708C1180.61 391.477 1203.89 405.522 1230.63 398.994C1246.52 395.236 1261.62 385.74 1272.94 371.102C1284.27 356.661 1291.82 338.264 1297.01 318.877C1300.15 307.008 1302.51 294.546 1304.4 282.281C1312.74 228.078 1313.68 171.7 1304.09 117.695C1289.46 36.1936 1243.21 -73.0027 1163.94 -50.6491C1125.56 -39.769 1094.57 1.9708 1086.55 50.4366C1080.1 89.6048 1087.96 137.477 1067.83 171.502C1050.68 200.384 1022.37 216.407 994.686 221.155C940.105 230.452 884.895 210.275 841.638 167.15C806.719 132.334 782.967 84.6594 754.34 42.326C713.128 -18.8002 651.783 11.2684 610.1 55.9756C597.988 69.0317 586.191 83.0768 571.563 90.7918C502.667 127.784 516.824 -4.55732 521.071 -50.0558C525.947 -102.28 522.329 -163.011 507.229 -212.07C502.667 -227.302 494.016 -243.721 481.118 -244.117C474.04 -244.314 467.591 -239.369 461.613 -234.621C443.21 -219.983 424.177 -200.003 404.201 -189.123C390.201 -181.408 372.899 -176.462 357.956 -171.121C318.318 -157.076 275.376 -157.669 236.052 -172.902C217.334 -180.023 199.402 -190.507 180.212 -194.464C108.8 -209.102 69.0048 -117.512 56.4212 -43.5276C49.9721 -5.54632 53.5899 32.8306 69.3194 66.4599C85.3635 100.683 116.351 122.443 143.563 140.84C171.561 159.831 200.818 177.437 223.94 204.933C259.804 247.662 278.836 324.614 243.602 375.058C230.39 394.049 210.256 414.227 207.582 440.734C204.75 469.616 229.918 489.2 246.748 502.256C281.668 529.357 319.104 556.459 356.226 578.417C388.471 597.605 427.323 589.692 458.153 613.431C475.613 626.684 487.724 649.236 497.162 671.392C510.689 703.438 516.352 738.848 530.037 770.895C541.047 796.611 556.777 819.954 577.54 832.812C611.044 853.583 664.681 837.362 681.827 792.655C687.489 777.818 689.377 761.399 691.736 745.178C694.096 729.155 697.399 712.538 705.264 699.482C715.802 681.876 733.262 673.963 750.25 673.37C757.957 673.172 765.193 672.974 772.429 673.37C788.315 673.963 803.416 676.733 819.617 684.646C844.155 696.712 865.547 717.484 891.029 726.781C915.724 735.881 942.464 732.518 966.059 720.451C983.99 711.351 1006.48 699.68 1018.91 680.689C1022.84 675.15 1026.46 668.424 1029.92 661.501Z" stroke="#11B2A8" stroke-miterlimit="10" stroke-linecap="round" stroke-linejoin="round"/>
      <path d="M1237.72 348.552C1248.89 338.661 1258.96 326.396 1266.98 310.966C1287.9 271.007 1292.46 219.376 1291.36 172.691C1290.26 129.566 1282.87 72.7917 1261.95 37.7777C1235.68 -6.33605 1179.21 -31.4591 1139.26 -1.98398C1122.11 10.6765 1106.7 41.932 1101.66 66.0659C1093.8 102.663 1090.34 137.281 1073.19 169.723C1056.36 201.572 1029.78 225.904 999.106 229.662C965.131 233.817 925.492 231.641 893.561 215.815C853.136 195.835 820.419 169.13 792.42 126.401C774.646 98.9039 751.996 63.692 727.143 45.6904C701.504 27.2932 660.764 42.5253 636.069 56.7683C620.969 65.4723 606.97 76.9459 594.858 91.1889C584.319 103.652 573.78 116.51 558.68 119.873C540.591 123.829 523.918 110.179 514.637 91.3867C499.694 60.7247 506.615 17.798 508.975 -15.8313C512.593 -67.0665 516.839 -119.291 501.11 -168.35C496.234 -183.582 488.526 -199.408 475.943 -203.562C466.82 -206.529 457.225 -202.375 448.416 -198.419C421.204 -185.956 394.149 -170.526 365.836 -163.8C328.557 -155.096 290.806 -149.359 252.898 -146.59C228.675 -145.007 204.137 -144.414 180.542 -137.095C164.813 -132.149 150.971 -124.039 139.488 -113.356C119.827 -94.9592 106.614 -68.4512 100.794 -35.0197C92.1427 14.2373 100.951 64.8791 129.264 101.476C159.308 140.248 201.777 159.239 231.349 200.385C262.493 243.906 288.919 326.198 256.988 379.016C245.82 397.611 226.315 412.645 221.911 436.581C216.563 465.463 244.247 484.256 261.549 494.345C286.087 508.588 301.817 533.513 325.569 549.338C341.613 560.021 357.971 573.473 375.431 579.407C394.936 586.133 415.384 589.694 435.518 592.068C450.146 593.65 465.876 594.837 477.516 606.113C486.01 614.223 490.099 627.477 494.975 638.951C503.155 658.139 509.289 678.91 516.21 698.692C521.873 714.913 524.547 732.717 530.839 749.136C539.962 772.677 552.703 793.843 568.432 810.856C589.51 833.803 626.16 841.716 647.866 814.812C671.775 784.941 675.55 745.18 685.145 707.001C694.111 670.998 731.547 664.272 756.715 662.095C788.331 659.326 822.778 650.82 849.676 677.328C860.529 688.01 870.281 701.066 883.022 707.594C895.921 714.32 910.549 713.529 924.548 712.144C945.469 709.968 967.018 706.803 985.579 694.34C1013.11 675.943 1030.41 639.94 1040.79 602.948C1046.77 581.385 1052.11 557.845 1055.73 535.689C1060.92 503.642 1063.44 469.024 1073.51 438.56C1080.27 417.789 1091.91 398.402 1108.11 388.907C1129.82 376.247 1154.51 382.379 1177.48 380.401C1198.56 378.423 1220.26 363.784 1237.72 348.552Z" stroke="#11B2A8" stroke-miterlimit="10" stroke-linecap="round" stroke-linejoin="round"/>
      <path d="M268.297 123.038C279.78 113.939 290.004 102.465 301.172 92.772C335.305 62.5056 377.303 46.4822 418.986 47.6691C435.345 48.2626 452.962 51.032 467.276 40.9432C486.308 27.4915 492.128 -3.17042 493.229 -30.6673C494.96 -71.4181 500.308 -128.39 463.343 -149.359C448.558 -157.865 431.57 -156.678 415.683 -152.326C390.201 -145.402 365.663 -135.907 339.395 -134.72C321.62 -133.929 303.531 -134.325 286.072 -129.181C241.243 -115.73 215.446 -55.1969 199.087 -5.74211C190.908 18.9853 182.571 44.504 182.729 71.4074C182.886 98.113 193.582 126.797 213.401 136.292C228.816 143.612 246.276 138.468 260.747 128.775C263.421 126.797 265.938 125.016 268.297 123.038Z" stroke="#11B2A8" stroke-miterlimit="10" stroke-linecap="round" stroke-linejoin="round" stroke-dasharray="8 8"/>
      <path d="M723.043 380.399C737.672 379.806 749.312 364.376 756.705 348.352C779.512 298.898 784.231 201.571 741.447 164.776C724.144 149.742 701.179 151.324 680.259 153.303C644.396 156.665 608.533 165.765 573.928 152.709C538.694 139.455 508.336 118.091 474.832 99.4958C427.014 73.1858 372.59 79.7137 345.378 138.466C321.626 189.701 298.504 252.806 317.065 312.745C324.3 336.088 336.727 356.068 346.951 377.432C357.175 398.797 365.826 423.128 363.939 448.053C363.152 458.34 360.636 468.429 360.006 478.715C359.377 489.002 360.636 500.278 366.298 507.795C373.534 517.092 385.96 517.488 395.398 511.751C404.835 506.014 411.914 495.926 418.52 485.639C441.957 449.636 482.539 433.019 516.2 415.611C538.536 404.137 555.367 393.455 580.849 395.434C597.837 396.62 615.454 401.961 632.442 400.775C644.711 399.785 656.35 393.258 665.788 383.564C678.057 370.904 685.765 366.75 701.651 374.069C708.415 377.234 715.179 380.795 722.257 380.795C722.572 380.399 722.886 380.399 723.043 380.399Z" stroke="#11B2A8" stroke-miterlimit="10" stroke-linecap="round" stroke-linejoin="round"/>
      <path d="M469.635 146.974C424.806 136.885 375.73 158.052 346.158 202.165C318.16 244.103 325.552 297.91 347.574 340.837C358.27 362.004 368.179 393.259 382.808 409.678C397.436 426.097 419.3 427.284 437.232 419.965C457.523 411.656 474.511 394.446 493.229 381.39C528.463 356.662 569.989 346.771 610.099 352.904C625.042 355.278 639.671 375.059 654.299 365.169C666.883 356.662 670.029 335.1 683.556 327.583C697.87 319.67 715.015 333.32 729.644 326.792C740.497 321.846 746.631 307.01 747.261 292.569C747.89 278.128 744.115 264.083 740.182 250.631C732.79 224.321 721.307 201.176 698.342 194.253C682.612 189.505 666.254 191.879 650.367 195.242C634.48 198.407 618.279 202.363 602.235 200.187C578.483 197.022 557.72 180.999 536.485 168.338C514.149 154.491 493.229 152.117 469.635 146.974Z" stroke="#11B2A8" stroke-miterlimit="10" stroke-linecap="round" stroke-linejoin="round" stroke-dasharray="8 8"/>
      <path d="M922.804 314.13C910.692 310.371 898.266 309.58 886.154 314.13C860.672 323.823 844.785 354.287 828.269 380.597C812.225 406.115 796.024 418.974 771.8 427.282C750.88 434.601 742.386 454.581 725.084 471.989C710.298 487.023 691.58 495.134 675.378 507.399C670.66 510.96 665.312 515.707 664.997 522.631C664.525 532.72 674.277 538.061 682.142 540.039C740.971 554.48 803.574 543.204 856.74 508.586C885.053 490.188 916.669 468.033 931.14 431.634C938.061 414.226 947.499 394.84 962.914 392.466C971.093 391.279 980.374 395.038 987.137 389.301C994.058 383.366 994.373 369.914 989.969 360.815C985.564 351.715 978.014 346.176 970.779 341.033C955.678 330.153 939.477 319.273 922.804 314.13Z" stroke="#11B2A8" stroke-miterlimit="10" stroke-linecap="round" stroke-linejoin="round" stroke-dasharray="8 8"/>
      <path d="M944.824 442.715C950.644 435.197 958.036 428.274 965.272 427.285C977.384 425.504 987.608 437.571 1000.82 433.219C1011.67 429.658 1017.97 415.613 1021.27 402.162C1026.62 380.995 1028.35 357.059 1040.62 341.233C1053.51 324.419 1073.96 322.045 1092.52 322.836C1114.55 323.825 1149.46 328.573 1169.44 315.319C1189.42 302.065 1198.86 269.82 1205.3 244.499C1216 202.364 1231.57 134.512 1201.06 98.509C1167.71 59.3408 1140.34 98.9046 1123.67 135.106C1086.86 215.618 1019.38 275.162 944.509 270.612C932.083 269.82 919.656 268.04 907.387 268.436C883.007 269.425 851.862 284.855 835.346 307.01C822.763 323.825 813.482 344.003 801.842 361.609C779.349 395.831 750.564 420.559 717.689 434.208C678.838 450.232 649.109 481.091 605.853 479.904C592.64 479.509 579.427 476.542 566.529 479.707C553.631 483.07 540.89 495.334 540.261 511.753C539.789 527.579 550.957 540.833 563.068 544.987C578.483 550.13 594.842 547.559 610.571 548.746C628.031 550.13 642.817 558.439 658.389 567.934C671.445 575.847 685.916 583.76 700.702 583.364C716.431 582.771 729.015 571.297 743.958 566.747C768.339 559.626 793.978 558.834 818.673 564.967C841.481 570.704 866.333 581.584 886.782 567.538C905.972 554.285 908.331 529.953 915.252 506.808C920.443 489.4 928.465 469.816 937.116 454.584C939.004 450.825 941.678 446.671 944.824 442.715Z" stroke="#11B2A8" stroke-miterlimit="10" stroke-linecap="round" stroke-linejoin="round"/>
      <path d="M1119.27 205.528C1109.04 220.563 1095.52 232.432 1082.15 239.553C1074.13 243.707 1065.63 246.675 1058.55 253.203C1051.47 259.533 1046.28 270.809 1048.64 281.293C1050.22 288.415 1054.93 293.756 1059.81 297.91C1085.29 319.868 1121 321.648 1147.74 302.064C1177.78 280.106 1187.38 236.784 1196.82 197.616C1203.74 168.932 1206.1 105.63 1170.07 109.982C1142.39 113.344 1141.45 144.402 1135.47 169.723C1132.48 182.384 1126.66 194.648 1119.27 205.528Z" stroke="#11B2A8" stroke-miterlimit="10" stroke-linecap="round" stroke-linejoin="round"/>
      <path d="M645.816 307.405C663.905 304.24 684.668 293.162 687.499 270.413C690.645 244.498 666.893 224.914 645.973 224.717C625.053 224.519 604.919 235.597 584.156 236.388C546.72 237.97 519.98 199.198 489.15 178.229C465.713 162.206 437.714 157.26 411.761 164.579C382.818 172.69 333.428 207.506 345.068 254.192C349 270.215 358.752 282.875 368.19 294.942C387.223 319.274 396.346 352.706 425.131 361.805C447.781 368.927 469.173 356.86 488.049 342.221C510.07 325.011 533.35 313.142 559.461 309.977C572.674 308.394 581.954 313.142 594.38 315.318C610.582 318.087 630.086 312.351 645.816 307.405Z" stroke="#11B2A8" stroke-miterlimit="10" stroke-linecap="round" stroke-linejoin="round"/>
      <path d="M367.551 254.389C373.843 260.522 380.921 266.259 385.168 270.808C400.426 286.238 415.998 301.075 431.413 316.307C436.918 321.846 443.053 327.583 450.131 327.978C466.647 329.165 497.32 308.394 508.488 293.953C516.824 283.271 522.487 268.039 519.97 253.4C516.51 232.629 491.028 195.439 477.343 183.372C454.378 163.195 419.144 171.305 394.921 182.581C378.562 190.098 347.26 211.858 356.069 238.366C357.799 243.509 362.36 249.048 367.551 254.389Z" stroke="#11B2A8" stroke-miterlimit="10" stroke-linecap="round" stroke-linejoin="round"/>
      <path d="M631.025 291.58C677.269 288.217 650.057 225.113 620.486 245.093C612.149 250.632 604.284 266.457 607.116 278.722C610.104 293.558 619.385 292.372 631.025 291.58Z" stroke="#11B2A8" stroke-miterlimit="10" stroke-linecap="round" stroke-linejoin="round"/>
      <path d="M1154.5 371.697C1161.26 371.697 1168.03 371.301 1174.79 369.719C1210.97 361.014 1231.57 315.912 1245.41 276.941C1259.26 237.971 1263.03 193.066 1257.68 150.93C1254.07 122.444 1246.67 93.9583 1232.2 71.6047C1217.73 49.2511 1195.24 33.6235 1172.43 35.7995C1147.58 37.9755 1120.68 57.5597 1111.08 87.0347C1105.74 103.454 1098.97 119.081 1093.31 134.907C1088.28 149.348 1085.13 163.195 1077.58 176.251C1063.42 200.385 1042.98 217.398 1020.95 228.278C1003.65 236.982 985.248 236.784 967.159 238.564C927.521 242.521 893.388 224.519 857.525 206.913C843.683 200.187 812.381 176.053 797.753 187.923C790.832 193.461 787.371 203.748 786.113 213.837C785.012 223.926 786.113 234.212 786.428 244.499C787.843 280.7 781.551 317.494 768.024 349.541C756.069 378.422 730.116 398.007 703.848 394.05C695.511 392.665 687.174 389.303 678.995 390.687C667.984 392.665 659.176 402.556 649.266 408.689C629.132 420.954 605.381 416.602 582.888 414.623C555.99 412.447 534.913 423.723 510.532 435.79C487.409 447.264 460.355 469.419 448.558 497.905C438.805 521.644 441.007 553.888 457.209 571.098C468.534 583.165 484.264 586.331 499.207 586.528C528.621 587.122 558.192 590.485 586.977 598.398C603.021 602.75 620.638 604.332 636.053 611.256C649.738 617.388 664.681 624.905 677.265 634.005C687.646 641.522 696.455 651.215 709.667 649.831C728.543 648.05 733.576 633.807 743.486 617.784C753.081 601.958 775.102 590.089 790.674 591.276C816.314 593.452 834.245 615.41 855.952 628.664C883.636 645.479 915.095 613.432 927.207 583.759C937.588 558.24 941.206 529.161 948.441 502.06C952.059 488.212 960.396 472.189 971.721 474.958C982.26 477.53 985.72 493.751 988.237 506.807C991.068 521.644 995.787 536.48 1004.6 546.965C1005.54 547.954 1006.33 548.943 1007.27 549.932C1038.57 582.572 1051.16 520.852 1056.35 492.564C1065 445.483 1076.16 386.137 1119.74 374.268C1131.06 371.103 1142.86 371.895 1154.5 371.697Z" stroke="#11B2A8" stroke-miterlimit="10" stroke-linecap="round" stroke-linejoin="round"/>
      <path d="M426.544 280.107C429.847 282.283 433.465 284.657 437.24 284.855C445.891 285.251 452.183 274.766 456.902 265.667C460.992 257.556 465.081 249.445 466.969 240.346C469.014 231.246 468.542 220.761 464.138 213.046C459.262 204.738 450.61 201.177 442.588 199.595C423.713 195.836 375.266 196.034 376.052 232.828C376.367 260.128 411.444 270.019 426.544 280.107Z" stroke="#11B2A8" stroke-miterlimit="10" stroke-linecap="round" stroke-linejoin="round"/>
      <path d="M507.066 802.35C488.348 765.358 484.73 720.848 462.394 685.439C438.171 646.864 398.689 626.291 359.68 633.214C352.13 634.599 344.265 637.764 337.344 634.006C329.951 630.049 326.491 619.763 322.401 611.256C313.278 592.859 289.998 589.892 274.898 583.364C255.865 575.056 237.305 565.165 220.317 551.515C211.666 544.394 202.857 536.283 192.633 535.294C176.431 533.909 163.533 550.921 150.792 563.978C133.018 582.177 111.311 594.244 88.6608 598.398C65.5384 602.75 40.2139 599.783 20.7093 616.004C-15.3113 646.073 -1.94124 709.177 33.2929 728.959C64.9092 746.565 100.93 750.719 131.288 772.677C155.197 789.887 185.083 833.803 185.397 870.202C185.712 892.951 175.96 916.294 181.937 937.856C186.026 952.495 197.037 962.979 208.834 967.925C226.609 975.442 250.517 979.2 268.449 971.881C288.74 963.573 307.773 947.351 329.951 949.132C365.657 951.901 372.421 998.587 395.858 1021.53C411.588 1036.96 434.238 1035.58 453.114 1027.67C471.989 1019.56 489.134 1005.91 508.01 997.795C534.907 986.322 564.007 986.717 591.848 980.189C619.689 973.661 648.946 957.242 661.058 924.998C664.518 915.7 665.777 902.644 659.013 896.512C654.294 892.16 647.688 893.544 641.868 894.336C590.432 902.051 533.963 855.563 507.066 802.35Z" stroke="#11B2A8" stroke-miterlimit="10" stroke-linecap="round" stroke-linejoin="round"/>
      <path d="M1164.41 -109.796C1224.03 -153.514 1122.41 -263.897 1091.9 -283.679C1074.59 -294.955 1056.82 -301.285 1038.26 -307.813C994.374 -323.243 951.276 -349.355 908.806 -369.731C887.886 -379.82 863.82 -389.71 844 -376.259C827.327 -364.983 819.305 -340.058 816.316 -316.517C809.553 -262.71 809.867 -177.055 757.331 -159.647C728.86 -150.151 708.097 -179.033 694.727 -206.925C688.278 -220.377 682.458 -234.818 673.492 -246.094C642.977 -284.273 601.766 -244.313 585.407 -207.717C569.363 -171.911 563.229 -123.841 575.969 -85.2666C584.621 -59.1544 609.631 -39.5704 630.079 -51.2418C649.426 -62.3196 657.92 -91.3991 675.223 -106.433C695.986 -124.633 723.984 -111.576 742.073 -92.388C758.904 -74.3865 770.229 -49.4614 779.981 -24.5362C801.059 30.0619 820.878 94.1553 864.92 125.015C888.357 141.434 925.636 156.073 952.691 146.182C977.387 137.28 1000.35 104.442 1013.09 77.7365C1018.44 66.4608 1021.11 53.4048 1025.52 41.14C1035.43 13.8409 1049.59 -10.8865 1066.42 -32.0532C1090.17 -61.9239 1119.27 -84.871 1150.1 -101.686C1154.82 -103.862 1159.85 -106.433 1164.41 -109.796Z" stroke="#11B2A8" stroke-miterlimit="10" stroke-linecap="round" stroke-linejoin="round"/>
      <path d="M1134.06 655.372C1152.46 624.512 1185.81 608.488 1215.69 617.192C1243.53 625.303 1293.87 664.669 1313.37 616.995C1320.29 599.982 1316.36 579.409 1310.86 561.605C1306.61 548.153 1301.57 534.9 1295.13 522.833C1285.37 504.435 1272.63 481.686 1256.75 471.202C1242.27 461.706 1224.66 461.113 1209.09 462.893C1188.95 465.069 1168.03 465.069 1149.79 478.323C1127.29 494.544 1110.93 520.063 1099.45 548.747C1093.63 563.188 1087.5 579.607 1084.82 595.432C1080.58 620.16 1067.83 644.492 1068.62 670.406C1068.94 681.088 1073.34 692.364 1081.2 696.32C1086.24 698.892 1092.06 698.101 1097.41 696.716C1115.18 692.562 1121 682.275 1129.49 663.878C1130.91 660.91 1132.48 657.943 1134.06 655.372Z" stroke="#11B2A8" stroke-miterlimit="10" stroke-linecap="round" stroke-linejoin="round"/>
      <path d="M1508.73 1184.14C1523.2 1160.4 1535 1133.9 1545.38 1106.99C1566.46 1051.6 1580.46 985.333 1586.59 924.405C1593.04 860.311 1580.93 797.8 1565.04 736.872C1554.03 694.934 1537.67 655.964 1528.71 613.235C1512.98 537.865 1495.67 458.936 1506.68 381.391C1512.66 339.057 1518.95 301.669 1501.49 261.314C1494.73 245.884 1485.45 231.839 1473.97 221.552C1462.33 211.068 1451.47 209.09 1438.26 204.342C1413.09 195.243 1390.6 174.076 1377.07 145.788C1365.43 121.654 1360.71 92.97 1362.29 64.8796C1363.55 44.702 1367.64 8.69872 1382.11 -3.56608C1390.6 -10.6876 1401.77 -10.4898 1411.68 -7.52246C1421.59 -4.75299 1431.18 0.390455 1441.41 1.77519C1456.04 3.75338 1471.29 -2.18134 1482.3 -14.4461C1495.36 -28.887 1500.39 -48.6689 1499.29 -69.8356C1498.19 -89.4197 1498.03 -111.575 1509.36 -127.203C1521.94 -144.413 1544.28 -145.007 1561.27 -135.511C1578.25 -126.016 1591.62 -108.806 1605.62 -93.1781C1619.62 -77.5504 1635.19 -62.516 1653.76 -59.7466C1697.17 -52.8229 1733.66 -106.036 1737.91 -156.085C1742.63 -210.881 1710.85 -259.149 1700.31 -310.186C1692.61 -347.772 1692.92 -389.907 1708.97 -423.141C1721.71 -449.451 1744.2 -472.2 1742.94 -503.06C1741.84 -528.974 1716.99 -563.197 1696.23 -567.549C1669.33 -573.286 1635.51 -549.943 1615.85 -529.172C1589.26 -500.884 1575.27 -459.737 1560.01 -421.558C1547.58 -390.698 1532.64 -361.421 1515.34 -334.518C1485.29 -287.437 1442.51 -266.072 1395.16 -260.929C1388.56 -260.138 1381.79 -259.94 1375.19 -259.94C1350.49 -259.94 1322.65 -262.709 1298.9 -272.6C1274.2 -282.887 1250.92 -307.812 1228.9 -325.814C1221.35 -331.946 1213.64 -338.078 1204.99 -340.848C1187.22 -346.387 1168.97 -336.298 1152.46 -326.407C1136.57 -316.912 1128.23 -305.24 1137.2 -284.469C1145.22 -266.072 1158.75 -252.423 1168.97 -236.004C1184.23 -211.474 1192.09 -179.823 1210.5 -159.052C1226.86 -140.457 1249.04 -132.94 1269.17 -121.466C1304.25 -101.487 1321.23 -60.3402 1330.83 -15.633C1350.18 73.9792 1354.89 172.691 1348.76 265.27C1346.56 298.504 1342 333.518 1330.99 363.982C1319.35 396.425 1305.03 423.922 1302.99 460.914C1301.1 496.521 1310.38 529.161 1324.22 559.626C1334.45 582.177 1347.34 603.541 1353.32 628.467C1358.83 651.018 1349.08 678.713 1336.96 695.725C1302.04 744.784 1235.67 737.267 1190.84 718.474C1123.36 690.186 1095.83 740.828 1053.83 799.976C1023 843.299 1005.54 905.018 1012.94 963.177C1016.55 991.861 1026.78 1018.96 1042.98 1039.73C1067.36 1070.79 1096.14 1070.4 1126.35 1084.64C1158.12 1099.87 1185.96 1127.37 1210.34 1156.64C1234.41 1185.53 1256.74 1216.78 1283.48 1241.51C1301.89 1258.52 1322.81 1272.57 1345.46 1278.7C1382.11 1288.79 1427.72 1267.23 1458.55 1242.89C1478.37 1227.46 1494.73 1207.09 1508.73 1184.14Z" stroke="#11B2A8" stroke-miterlimit="10" stroke-linecap="round" stroke-linejoin="round"/>
      <path d="M-229.385 454.187C-219.161 465.067 -208.15 475.156 -196.51 484.256C-173.86 502.059 -149.636 520.852 -125.727 535.293C-84.3586 560.218 -42.5181 575.055 2.78287 582.77C39.5899 589.1 82.2169 588.704 114.62 561.009C152.213 528.963 154.73 461.704 156.932 409.875C159.134 355.277 154.258 294.745 124.372 252.213C106.755 227.288 79.2283 212.65 58.3081 192.67C16.9395 152.908 -5.55375 100.882 -26.0021 42.1293C-42.8327 -6.13864 -71.775 -27.1077 -109.683 -45.1092C-118.177 -49.0656 -127.143 -53.2197 -135.951 -51.4394C-147.906 -49.2634 -157.029 -37.592 -166.781 -28.8879C-192.106 -6.73214 -227.34 -3.96262 -254.552 -22.162C-268.079 -31.0639 -281.135 -45.3071 -296.392 -43.1311C-313.695 -40.7572 -324.548 -18.6015 -329.267 2.3674C-333.829 23.3363 -335.087 46.2834 -344.839 64.285C-355.221 83.4735 -374.096 94.947 -380.545 116.509C-386.208 135.5 -380.388 156.667 -374.096 175.459C-363.086 209.089 -350.659 241.927 -336.975 273.776C-308.19 341.232 -275.472 405.523 -229.385 454.187Z" stroke="#11B2A8" stroke-miterlimit="10" stroke-linecap="round" stroke-linejoin="round"/>
      <path d="M-48.1774 825.692C-31.976 856.354 -15.4601 889.786 -2.87647 922.426C11.2801 959.418 16.6281 1006.89 -3.34834 1039.53C-16.5611 1061.1 -46.9191 1082.26 -68.9404 1082.26C-111.567 1082.46 -126.51 1034.59 -155.295 1004.72C-171.969 987.508 -193.675 971.089 -215.697 977.419C-224.977 980.189 -233.943 984.739 -242.122 977.617C-249.83 970.891 -255.021 952.89 -258.324 942.405C-266.503 915.898 -269.334 887.214 -273.267 859.321C-283.334 788.304 -303.939 720.848 -322.343 652.996C-330.837 621.938 -342.319 588.507 -343.892 555.471C-345.308 527.38 -354.116 504.038 -358.049 476.541C-361.509 452.407 -359.936 426.492 -349.555 405.721C-337.443 381.192 -320.927 364.377 -327.219 333.319C-333.354 303.646 -345.78 276.347 -360.408 252.213C-378.812 221.749 -400.99 195.439 -422.697 168.536C-434.18 154.095 -445.977 139.061 -451.797 119.872C-457.617 100.684 -455.886 76.5498 -443.46 63.2959C-429.618 48.6572 -408.698 52.4159 -391.867 44.3053C-376.767 36.9859 -365.442 20.3691 -358.993 1.77409C-352.543 -16.8209 -350.184 -37.3942 -348.768 -57.5717C-347.982 -69.6387 -346.724 -83.0904 -339.016 -90.4097C-332.882 -96.1465 -324.388 -96.1466 -317.152 -92.7837C-309.917 -89.4208 -303.939 -83.4862 -297.647 -77.7495C-275.312 -57.3741 -249.515 -40.9549 -221.989 -37.9876C-194.462 -35.0203 -164.89 -47.0873 -148.06 -74.5842C-141.768 -84.8708 -135.004 -98.5204 -124.78 -97.1356C-113.612 -95.7509 -109.68 -78.145 -103.231 -66.4736C-93.4784 -48.8677 -75.2322 -43.131 -59.1881 -35.4161C-28.3582 -20.3818 -23.4821 14.0388 -11.685 48.6572C1.37053 87.0342 18.6729 123.037 39.7505 155.084C58.9405 184.361 89.4558 194.252 113.837 215.815C145.925 244.103 157.25 277.732 164.014 325.209C170.305 369.52 168.89 415.612 165.429 460.319C162.755 495.729 161.025 530.545 137.588 555.273C119.971 573.868 97.0059 582.572 74.1981 587.122C60.1989 589.891 45.885 591.474 31.7285 593.452C22.9199 594.639 14.2687 596.221 5.6175 598.397C-5.23586 601.167 -14.9882 608.486 -22.6956 618.179C-33.7063 631.829 -30.5604 662.491 -48.1774 666.843C-54.312 668.425 -60.7611 667.041 -66.8956 669.019C-78.85 672.777 -86.5575 688.207 -88.1304 703.637C-92.2201 745.575 -70.8279 783.754 -53.2109 816.394C-51.6379 819.164 -49.9077 822.527 -48.1774 825.692Z" stroke="#11B2A8" stroke-miterlimit="10" stroke-linecap="round" stroke-linejoin="round"/>
      <path d="M1127.28 -163.206C1128.86 -169.537 1128.86 -176.856 1126.97 -184.571C1119.73 -213.255 1092.52 -236.597 1072.55 -250.049C1047.85 -266.468 1020.64 -276.161 994.37 -287.833C978.011 -295.152 961.81 -303.46 947.024 -314.538C934.126 -324.231 926.103 -333.727 911.318 -337.485C885.993 -344.013 858.309 -347.376 845.254 -312.758C838.176 -293.965 840.692 -272.205 840.378 -251.434C840.063 -222.75 833.929 -194.066 823.075 -168.943C813.795 -147.579 794.605 -134.523 788.942 -110.982C788.156 -107.421 787.369 -103.465 787.055 -99.1129C784.852 -74.1876 791.302 -49.4604 798.852 -26.3155C808.289 2.76394 819.772 30.6566 833.142 57.1644C847.771 86.2439 870.421 108.597 899.363 107.213C927.362 105.828 948.911 70.4183 968.259 49.2516C992.639 22.7438 994.527 -11.0833 1003.18 -48.6689C1009.78 -77.3528 1022.05 -106.828 1043.76 -118.895C1058.39 -127.005 1075.06 -125.819 1090.95 -129.182C1106.36 -132.94 1122.88 -145.007 1127.28 -163.206Z" stroke="#11B2A8" stroke-miterlimit="10" stroke-linecap="round" stroke-linejoin="round"/>
      <path d="M-18.2948 646.268C-21.7553 656.951 -22.5418 669.215 -20.0251 682.865C-15.4635 706.999 -0.677764 726.781 16.9393 737.859C37.545 750.915 61.6112 751.508 83.4752 760.608C108.642 771.092 130.821 781.379 148.281 807.887C159.449 824.899 167.628 846.462 170.459 868.222C172.662 885.63 166.842 898.488 166.212 915.303C164.482 960.208 203.649 989.089 234.636 991.463C255.713 993.046 276.476 986.518 296.295 977.022C306.992 971.879 318.16 965.945 329.642 968.121C356.54 973.264 371.011 1011.44 389.729 1032.02C413.48 1057.73 446.984 1042.3 472.623 1027.47C498.262 1012.63 521.857 1002.15 549.855 996.607C582.258 990.276 615.605 985.133 645.019 965.351C661.692 954.075 676.478 936.074 681.354 913.127C686.545 889.388 679.152 871.585 659.49 875.145C628.503 880.882 595.313 876.135 566.528 860.309C542.62 847.055 522.486 815.799 509.116 788.698C495.746 761.993 492.128 731.331 480.173 703.636C466.489 671.787 449.186 651.807 422.761 636.377C409.391 628.465 395.549 623.915 381.077 620.75C369.752 618.376 352.292 618.574 342.54 611.452C334.675 605.715 329.327 595.627 321.148 589.89C311.868 583.362 301.329 579.208 291.419 574.46C266.095 562.195 239.984 550.919 218.277 530.544C209.94 522.631 200.975 510.96 190.279 511.751C179.74 512.74 168.414 525.005 161.651 534.105C153.629 544.787 146.865 557.052 137.899 566.349C123.114 581.977 103.452 588.901 84.4189 592.462C65.2289 596.022 45.7244 596.813 26.849 602.55C6.71518 608.683 -11.2165 624.113 -18.2948 646.268Z" stroke="#11B2A8" stroke-miterlimit="10" stroke-linecap="round" stroke-linejoin="round"/>
      <path d="M1333.66 139.061C1336.65 186.933 1340.43 235.399 1336.34 283.271C1333.66 313.933 1328.16 344.793 1317.94 372.883C1312.74 387.126 1306.14 400.776 1297.8 412.645C1291.04 422.14 1283.17 437.768 1274.36 444.098C1266.5 449.637 1253.6 447.659 1244.64 449.044C1233.78 450.824 1222.61 449.242 1212.39 444.494C1190.53 434.603 1167.09 422.338 1143.49 429.262C1126.66 434.207 1112.51 448.846 1102.44 466.65C1093.32 482.673 1088.44 500.477 1082.15 518.281C1076.49 534.304 1076.02 550.13 1074.44 567.538C1074.44 568.131 1074.29 568.527 1074.29 569.12C1072.4 589.693 1068.78 610.267 1062.96 629.653C1057.61 647.655 1046.6 660.908 1044.4 680.493C1043.93 685.042 1043.77 689.988 1041.72 693.944C1038.26 701.066 1031.03 702.648 1025.68 706.605C1020.02 710.759 1014.83 716.496 1009.79 721.639C996.739 734.893 982.582 747.356 966.695 754.279C942.157 765.159 914.788 761.994 889.935 751.905C865.083 741.816 844.005 719.463 819.624 709.968C797.76 701.264 772.593 700.077 749.942 700.077C739.246 700.077 727.449 701.461 719.585 710.759C708.417 724.013 710.147 746.366 708.731 765.555C706.529 795.426 693.945 823.714 675.227 842.507C655.094 862.882 634.96 868.619 608.849 864.267C568.109 857.541 540.425 830.637 518.876 787.711C508.023 766.148 505.034 743.003 497.484 720.452C483.17 678.316 452.655 641.324 418.679 625.499C402.163 617.784 385.962 613.432 369.603 604.926C349.941 594.441 329.965 584.55 310.145 575.055C285.45 563.186 256.98 550.921 232.284 533.513C222.217 526.391 212.78 518.281 204.6 508.785C188.399 490.388 176.602 462.891 177.231 434.999C178.017 407.502 199.567 384.357 212.622 363.982C235.902 327.583 244.239 288.81 226.936 245.685C201.926 183.57 149.862 175.658 101.572 160.821C80.9664 154.491 59.8889 142.028 43.0583 125.609C28.5872 111.366 18.0484 91.3864 8.768 71.8023C-11.2085 29.469 -20.1743 -23.3488 -11.2085 -71.6167C5.30748 -160.635 72.7871 -227.301 140.109 -251.039C162.288 -258.754 178.489 -256.182 195.792 -235.807C204.443 -225.718 211.836 -214.047 221.274 -205.145C246.598 -180.615 276.327 -170.527 308.101 -177.45C334.998 -183.385 359.851 -199.408 382.973 -217.805C406.725 -236.4 430.948 -253.611 455.329 -270.821C472.317 -282.888 499.529 -315.133 519.662 -298.318C528.471 -290.999 533.662 -278.536 537.28 -266.073C548.133 -229.279 542.942 -182.989 542.628 -144.019C542.47 -100.696 536.808 -55.9891 538.381 -12.8645C539.324 15.6215 554.582 36.7881 578.019 33.8209C592.175 32.0405 604.13 20.1714 616.242 10.6761C641.094 -8.71022 673.182 -32.8443 703.069 -33.4377C726.191 -33.8334 752.459 -21.1728 765.2 3.7524C779.671 32.0406 790.525 60.5266 808.614 85.8475C839.601 129.368 879.554 163.393 923.596 182.185C959.145 197.418 1011.52 195.044 1034.17 151.523C1055.88 109.981 1034.33 61.5156 1050.22 17.0062C1058.56 -6.33648 1074.44 -23.9423 1090.17 -39.9656C1109.05 -59.1541 1129.02 -77.1558 1150.73 -91.0031C1169.76 -103.268 1197.29 -118.5 1219.31 -113.752C1301.42 -96.1464 1327.84 48.8553 1332.88 134.115C1333.35 135.5 1333.51 137.281 1333.66 139.061Z" stroke="#11B2A8" stroke-miterlimit="10" stroke-linecap="round" stroke-linejoin="round"/>
      <path d="M960.239 168.141C986.35 168.537 1011.67 152.909 1020.33 121.06C1024.1 107.015 1028.35 99.6958 1028.98 84.8593C1029.61 71.4076 1031.81 58.1537 1035.27 45.4932C1042.19 19.7767 1053.83 -3.76382 1068.46 -23.5458C1093.63 -57.5707 1126.34 -81.5067 1159.85 -101.091C1168.03 -105.838 1180.61 -111.18 1186.12 -120.675C1192.41 -131.357 1189.1 -150.941 1186.12 -162.415C1178.25 -193.472 1163.46 -210.287 1148.68 -234.817C1134.36 -258.357 1118.32 -280.513 1097.87 -295.943C1087.81 -303.46 1076.95 -311.571 1066.41 -317.901C1037.63 -335.111 1002.71 -343.419 972.194 -355.684C943.723 -367.158 919.814 -391.094 890.086 -398.413C868.064 -403.754 843.212 -399.205 827.01 -379.62C804.989 -352.915 805.461 -310.384 799.956 -275.172C794.293 -238.575 778.721 -198.022 749.778 -182.79C719.421 -166.767 698.5 -220.772 684.029 -246.092C673.018 -265.479 649.11 -275.765 630.391 -270.82C601.292 -263.303 570.619 -237.388 559.451 -201.583C545.924 -157.865 547.812 -104.058 549.384 -58.1641C549.856 -42.3386 552.53 -25.7218 561.182 -14.4461C576.282 5.138 602.708 -0.203076 621.583 -13.6548C640.458 -27.1065 656.66 -47.0863 677.265 -55.1968C715.645 -70.0333 752.138 -54.0098 774.474 -12.0721C788.158 13.6444 796.652 43.3172 809.865 69.4293C841.796 130.753 902.669 167.152 960.239 168.141Z" stroke="#11B2A8" stroke-miterlimit="10" stroke-linecap="round" stroke-linejoin="round"/>
      <path d="M1602.94 875.343C1601.53 838.153 1596.34 800.963 1587.37 764.762C1576.99 723.22 1562.83 685.239 1552.61 643.499C1541.28 596.814 1529.96 549.733 1522.72 501.663C1515.33 452.406 1517.85 410.864 1527.44 362.398C1540.97 294.348 1510.14 227.683 1458.54 202.758C1441.4 194.449 1422.52 190.889 1407.42 178.03C1371.25 147.171 1346.55 38.9634 1401.76 15.0272C1415.6 9.09267 1430.7 15.6208 1445.33 16.8077C1465.15 18.3902 1485.29 9.48845 1499.91 -7.32618C1500.86 -8.5131 1501.8 -9.70011 1502.74 -10.887C1515.64 -27.5038 1523.19 -50.4508 1523.51 -73.5956C1523.67 -86.2561 1522.25 -100.499 1528.86 -110.192C1535.46 -119.885 1547.42 -120.083 1557.17 -116.72C1585.64 -106.829 1605.62 -74.7827 1632.36 -58.9572C1657.52 -44.1208 1688.2 -44.9119 1712.58 -61.3309C1737.27 -77.7499 1758.82 -113.555 1759.92 -149.558C1762.28 -232.247 1707.39 -298.121 1717.3 -381.402C1719.97 -403.954 1726.42 -425.714 1736.01 -445.1C1744.66 -462.508 1756.3 -471.41 1756.93 -492.973C1757.88 -527.393 1742.46 -565.177 1715.72 -577.046C1656.58 -603.554 1607.82 -549.945 1578.56 -490.203C1563.3 -458.948 1551.51 -425.121 1535.3 -394.854C1484.5 -299.901 1395.63 -244.314 1306.91 -286.054C1282.85 -297.329 1260.67 -313.946 1240.06 -333.135C1226.38 -345.993 1201.68 -385.557 1182.33 -379.424C1176.51 -377.446 1172.58 -370.918 1168.49 -365.379C1162.99 -357.664 1156.7 -351.334 1149.62 -345.993C1137.35 -336.893 1118.47 -337.882 1118.32 -314.54C1118.32 -304.253 1122.25 -294.758 1126.65 -286.251C1136.25 -268.052 1149.3 -253.611 1159.68 -236.401C1179.98 -203.365 1188 -151.734 1219.77 -133.139C1241.32 -120.479 1266.17 -119.094 1283.79 -97.532C1303.61 -73.2002 1313.52 -38.5818 1321.07 -5.74377C1336.17 60.3279 1341.05 133.521 1342.15 202.362C1342.78 238.168 1343.4 276.149 1338.37 312.152C1333.02 350.727 1319.18 378.224 1303.45 411.062C1285.05 449.241 1293.86 499.289 1308.01 537.27C1321.54 573.669 1345.76 624.311 1327.2 664.666C1316.19 688.404 1294.01 700.867 1272.31 703.636C1228.11 709.373 1174.94 672.776 1133.73 702.845C1122.41 711.153 1112.02 721.836 1099.44 726.583C1092.68 729.155 1085.28 729.946 1079.94 735.485C1073.96 741.815 1071.91 752.102 1069.55 761.399C1061.06 795.424 1034.01 803.733 1019.53 830.438C1003.02 860.902 995.625 898.884 998.614 935.48C1002.55 983.155 1025.83 1046.65 1059.96 1071.58C1073.33 1081.27 1088.74 1085.03 1103.53 1090.57C1136.4 1102.64 1165.66 1128.16 1185.64 1162.38C1211.91 1207.48 1246.04 1244.47 1284.73 1271.77C1302.82 1284.43 1321.7 1298.08 1342.46 1298.87C1343.88 1298.87 1345.14 1298.87 1346.55 1299.07C1392.01 1299.86 1437.78 1284.04 1475.69 1252.19C1519.1 1215.59 1537.51 1165.54 1560.94 1109.56C1578.88 1067.03 1591.14 1020.74 1597.59 973.264C1602.63 941.019 1604.2 908.181 1602.94 875.343Z" stroke="#11B2A8" stroke-miterlimit="10" stroke-linecap="round" stroke-linejoin="round"/>
      <path d="M81.1155 526.787C116.192 489.399 119.181 413.634 113.046 360.223C106.597 302.855 84.4186 249.246 50.6002 210.078C23.86 179.218 -6.49797 151.919 -25.688 113.146C-39.53 85.2537 -50.5406 51.4268 -68.4723 27.2928C-92.3811 -5.14958 -119.908 4.14788 -140.513 35.4033C-149.637 49.0529 -159.074 64.285 -172.759 68.8349C-189.904 74.5716 -207.049 61.9111 -221.678 49.2507C-236.306 36.7881 -252.665 23.1385 -270.125 26.6992C-284.124 29.6665 -295.135 43.1183 -305.044 56.1744C-320.302 75.9563 -335.874 96.3316 -343.896 121.85C-355.379 157.853 -345.941 202.363 -337.762 238.366C-328.324 280.106 -313.381 320.065 -293.719 355.871C-280.349 380.202 -264.619 402.358 -247.317 422.338C-227.183 445.285 -204.847 464.869 -180.781 480.695C-149.007 501.466 -114.56 524.215 -79.3256 533.908C-28.5193 547.36 36.4436 574.461 81.1155 526.787Z" stroke="#11B2A8" stroke-miterlimit="10" stroke-linecap="round" stroke-linejoin="round"/>
      <path d="M1241.17 667.238C1234.25 665.259 1227.33 663.083 1220.41 661.303C1204.99 657.149 1188.63 654.775 1173.69 661.105C1157.8 667.831 1145.53 683.261 1132.01 695.526C1114.7 711.549 1081.04 727.177 1062.8 705.021C1047.54 686.624 1057.13 656.753 1065 636.971C1080.73 597.407 1081.04 553.491 1096.46 513.532C1105.11 491.178 1118.79 470.803 1137.04 460.912C1156.07 450.823 1176.99 452.01 1197.13 452.999C1216.94 454.186 1236.92 450.23 1256.11 458.34C1271.53 464.868 1278.76 480.694 1287.41 496.915C1296.54 514.125 1305.19 531.929 1311.64 550.92C1319.34 574.065 1329.88 615.013 1319.34 639.345C1310.06 660.709 1284.9 672.776 1266.81 671.985C1258.16 671.589 1249.66 669.611 1241.17 667.238Z" stroke="#11B2A8" stroke-miterlimit="10" stroke-linecap="round" stroke-linejoin="round"/>
      <path d="M-300.63 293.558C-292.923 317.889 -283.171 341.232 -271.216 362.794C-244.948 409.875 -207.04 447.857 -163.469 466.056C-127.291 481.09 -88.7538 488.608 -51.7894 472.782C12.0724 445.483 76.406 351.914 39.599 264.874C17.1058 211.463 -18.4429 166.953 -61.0699 139.061C-69.7211 133.324 -80.2599 128.379 -88.9111 134.115C-95.5175 138.467 -98.8207 147.963 -99.7645 157.26C-100.708 166.558 -99.6072 175.855 -99.4499 185.153C-99.2926 214.628 -110.775 244.301 -130.437 260.522C-150.099 276.743 -177.154 278.325 -196.973 262.5C-220.41 243.905 -229.848 207.111 -233.937 172.888C-237.083 146.776 -240.072 116.312 -258.161 102.86C-275.149 90.1993 -298.428 100.882 -309.911 120.861C-330.516 157.062 -322.337 197.615 -314.472 238.762C-310.855 257.357 -306.293 275.754 -300.63 293.558Z" stroke="#11B2A8" stroke-miterlimit="10" stroke-linecap="round" stroke-linejoin="round"/>
      <path d="M1484.66 329.56C1475.54 305.623 1457.92 287.622 1435.74 285.446C1408.85 282.874 1382.74 305.426 1371.1 335.296C1360.4 363.189 1358.98 395.236 1360.56 426.095C1362.29 463.681 1363.86 500.871 1365.12 538.259C1366.53 578.416 1375.03 622.134 1367.16 661.698C1360.09 697.701 1339.95 726.583 1312.11 739.243C1298.11 745.573 1283.48 747.552 1268.7 746.76C1261.93 746.365 1254.86 747.552 1248.25 746.563C1229.85 743.793 1210.5 739.639 1192.57 736.672C1171.8 733.111 1151.35 734.693 1131.54 743.595C1070.82 771.092 1033.23 865.254 1055.88 942.404C1066.26 977.616 1089.07 1006.7 1116.91 1020.34C1141.76 1032.41 1169.44 1032.21 1195.08 1041.31C1223.08 1051.4 1248.09 1072.17 1269.48 1097.1C1296.54 1128.75 1322.81 1196.21 1365.28 1196.4C1387.77 1196.6 1405.39 1173.26 1419.39 1151.3C1439.83 1119.65 1460.13 1087.21 1479.63 1054.57C1498.51 1023.31 1514.08 988.891 1525.87 952.69C1541.6 904.818 1560.79 835.186 1551.04 783.555C1543.65 744.98 1526.19 708.383 1515.49 670.798C1504.64 632.421 1495.52 593.055 1488.44 553.293C1484.66 531.929 1485.45 511.158 1484.98 489.793C1484.51 467.44 1483.88 447.262 1486.71 424.909C1489.38 403.148 1492.69 380.993 1490.95 359.035C1490.33 348.55 1488.12 338.659 1484.66 329.56Z" stroke="#11B2A8" stroke-miterlimit="10" stroke-linecap="round" stroke-linejoin="round"/>
      <path d="M1472.07 489.597C1474.43 465.463 1478.84 441.724 1480.73 417.59C1484.19 372.685 1474.43 311.164 1432.59 301.075C1402.08 293.755 1378.64 342.419 1372.51 373.279C1367.32 399.193 1366.37 430.053 1369.68 456.561C1372.66 480.299 1374.08 504.235 1376.12 528.369C1380.69 581.583 1386.98 632.62 1368.73 683.855C1359.29 710.561 1342.78 733.903 1321.23 744.981C1288.2 761.796 1245.88 750.322 1211.59 746.168C1192.4 743.794 1171.8 736.871 1152.45 741.618C1132.79 746.564 1115.49 761.4 1101.8 779.797C1065.78 828.461 1054.61 886.224 1086.07 943.394C1109.51 985.925 1160 997.794 1197.28 1010.85C1224.81 1020.35 1253.28 1032.81 1272.62 1059.32C1294.33 1089.38 1303.45 1136.27 1333.18 1152.29C1364.01 1168.91 1398.46 1142.2 1422.06 1112.33C1452.1 1074.55 1476.16 1029.25 1495.51 981.771C1515.02 933.899 1529.02 886.818 1528.86 832.22C1528.7 777.226 1512.66 726.782 1498.66 675.349C1482.93 616.399 1466.1 552.305 1472.07 489.597Z" stroke="#11B2A8" stroke-miterlimit="10" stroke-linecap="round" stroke-linejoin="round"/>
      <path d="M284.964 149.94C272.223 161.611 258.381 164.974 243.123 167.348C235.101 168.535 219.844 167.941 227.866 180.997C230.697 185.547 238.09 185.943 241.865 189.504C246.898 194.054 250.044 200.582 252.718 207.505C258.381 221.353 260.426 237.969 269.234 249.641C283.391 268.631 294.873 257.554 298.648 234.211C302.581 210.67 308.243 187.723 315.793 165.765C318.625 157.457 338.444 121.849 335.455 116.904C327.276 102.463 291.57 144.005 284.964 149.94Z" stroke="#11B2A8" stroke-miterlimit="10" stroke-linecap="round" stroke-linejoin="round"/>
      <path d="M281.356 312.549C285.288 340.046 279.311 369.125 265.154 390.687C258.705 400.38 251.155 408.689 245.178 418.778C232.28 440.538 232.437 466.254 254.301 472.98C274.592 479.112 286.704 494.147 300.86 511.555C322.41 537.667 350.566 558.636 379.98 568.922C391.305 572.879 416.63 582.176 427.483 573.076C436.921 564.966 430 536.48 429.842 523.028C429.685 516.896 429.213 509.774 425.123 506.609C421.191 503.642 415.843 506.016 412.383 509.972C408.922 513.929 406.72 519.27 403.417 523.424C392.406 537.469 372.272 534.502 361.104 520.852C343.802 499.884 349.307 472.189 345.218 445.879C340.656 416.602 332.634 388.314 323.511 360.817C317.691 343.211 308.253 325.209 304.321 306.812C302.119 296.328 302.591 276.941 288.749 281.095C276.952 284.261 279.783 302.262 281.356 312.549Z" stroke="#11B2A8" stroke-miterlimit="10" stroke-linecap="round" stroke-linejoin="round" stroke-dasharray="8 8"/>
      <path d="M267.032 419.569C266.56 420.361 266.088 420.954 265.616 421.745C263.099 426.295 261.998 432.625 264.358 437.373C267.189 443.308 273.638 444.297 278.986 443.505C284.334 442.714 289.997 440.934 295.188 443.308C301.165 446.077 304.625 453.99 306.198 461.705C307.771 469.42 308.243 477.53 310.76 485.047C313.119 492.367 318.467 499.291 324.916 499.093C330.736 498.895 335.455 492.96 337.343 486.037C339.23 479.113 338.601 471.596 337.657 464.474C333.882 435.988 324.287 409.48 314.849 383.17C313.119 378.423 311.232 373.477 307.614 371.104C300.693 366.751 292.828 374.664 289.21 383.17C286.064 390.49 284.177 398.601 279.93 405.129C276.155 410.668 270.807 414.228 267.032 419.569Z" stroke="#11B2A8" stroke-miterlimit="10" stroke-linecap="round" stroke-linejoin="round"/>
      <path d="M407.186 255.378C375.255 238.365 394.13 207.505 421.342 209.088C429.522 209.681 438.173 214.825 441.476 224.32C445.094 234.805 440.847 247.663 433.297 253.795C425.589 259.928 415.523 259.73 407.186 255.378Z" stroke="#11B2A8" stroke-miterlimit="10" stroke-linecap="round" stroke-linejoin="round" stroke-dasharray="8 8"/>
      <path d="M178.645 284.459C182.105 304.043 180.69 325.407 177.072 348.156C175.499 358.839 175.342 373.082 183.521 376.642C190.285 379.61 196.891 372.093 200.981 364.773C213.092 342.617 223.159 302.658 221.429 275.359C219.699 247.071 194.532 218.585 176.915 204.342C162.915 193.066 146.399 186.538 131.299 178.23C118.401 171.108 107.547 183.571 118.558 200.187C123.749 207.902 132.085 212.65 139.006 217.793C158.826 232.234 173.611 255.775 178.645 284.459Z" stroke="#11B2A8" stroke-miterlimit="10" stroke-linecap="round" stroke-linejoin="round" stroke-dasharray="8 8"/>
      <path d="M-241.181 71.2102C-252.664 66.0669 -267.45 65.8691 -277.202 68.243C-291.044 71.6059 -302.055 84.4642 -311.807 97.5203C-341.536 137.48 -336.345 191.484 -326.435 241.137C-313.852 304.637 -286.168 363.192 -247.631 407.305C-217.587 441.924 -183.297 465.86 -144.445 480.696C-106.694 495.137 -70.3589 500.083 -31.3498 501.27C2.62599 502.259 37.0736 483.466 58.9376 450.43C96.2165 393.854 85.0486 321.254 58.4657 261.908C30.4672 199.793 -19.8672 159.636 -51.0116 99.4985C-61.0785 79.9144 -72.8757 60.9236 -93.1668 59.5389C-106.694 58.7476 -120.222 66.6603 -128.401 80.3099C-135.479 92.179 -138.31 107.016 -141.142 121.456C-143.973 135.897 -147.434 150.734 -155.456 161.614C-163.478 172.494 -177.477 177.835 -187.229 169.724C-192.577 165.372 -195.723 158.053 -198.712 150.932C-207.52 130.556 -216.172 95.3441 -229.699 79.5186C-232.845 75.76 -236.777 72.9906 -241.181 71.2102Z" stroke="#11B2A8" stroke-miterlimit="10" stroke-linecap="round" stroke-linejoin="round"/>
      <path d="M-139.885 309.779C-141.615 310.174 -143.188 310.57 -144.919 311.164C-169.928 317.889 -182.355 338.067 -166.153 367.938C-158.918 381.191 -147.435 390.093 -135.324 395.632C-108.741 407.501 -75.866 418.579 -47.7102 411.26C-32.2953 407.304 -17.3523 398.402 -6.65624 383.763C6.87114 365.366 12.5338 339.254 10.9608 314.329C9.38788 289.403 1.20859 265.665 -10.1167 245.092C-19.5544 227.882 -38.1153 203.154 -56.9907 214.232C-65.0127 218.98 -70.2034 228.673 -73.8212 238.761C-77.439 248.85 -79.6412 259.73 -83.7308 269.423C-96.1572 298.701 -117.077 303.646 -139.885 309.779Z" stroke="#11B2A8" stroke-miterlimit="10" stroke-linecap="round" stroke-linejoin="round" stroke-dasharray="8 8"/>
      <path d="M895.121 634.004C883.795 638.554 869.324 643.104 867.751 657.94C866.178 671.788 877.975 681.679 888.514 686.031C913.524 696.318 941.208 695.13 965.589 682.866C989.969 670.601 1010.73 647.258 1023.16 618.179C1026.93 609.475 1029.92 598.792 1026.78 589.693C1020.33 570.9 997.992 573.472 989.026 556.855C982.891 545.777 977.701 509.576 960.241 528.765C953.477 536.282 953.634 553.096 950.96 563.383C948.286 574.065 944.354 584.154 939.163 593.451C928.31 612.244 912.738 627.081 895.121 634.004Z" stroke="#11B2A8" stroke-miterlimit="10" stroke-linecap="round" stroke-linejoin="round" stroke-dasharray="8 8"/>
      <path d="M1016.23 -159.054C1033.06 -172.703 1069.24 -197.629 1049.74 -228.093C1028.5 -261.326 993.269 -262.909 964.484 -278.339C940.889 -290.999 918.239 -306.627 893.386 -314.738C885.836 -317.111 877.5 -318.892 870.579 -314.144C859.096 -306.429 858.152 -286.45 857.68 -270.031C856.894 -240.358 852.804 -210.883 845.411 -182.792C838.962 -158.263 826.851 -134.92 823.39 -109.401C819.3 -79.1349 832.041 -45.7034 849.344 -25.5258C866.017 -6.13953 888.982 4.34499 911.475 2.76244C936.642 1.17988 952.215 -16.2282 960.551 -44.912C966.686 -66.0787 968.259 -87.2453 977.382 -107.225C987.134 -128.392 1000.35 -146.196 1016.23 -159.054Z" stroke="#11B2A8" stroke-miterlimit="10" stroke-linecap="round" stroke-linejoin="round"/>
      <path d="M735.465 133.322C742.072 138.07 751.352 143.015 755.914 135.498C758.588 131.146 757.644 125.014 756.228 120.068C746.948 88.0216 718.477 69.4266 691.423 68.6353C664.21 67.844 638.257 81.4936 614.191 97.3191C610.573 99.6929 606.798 102.265 604.124 106.419C601.45 110.375 600.191 116.31 602.079 121.057C604.91 128.377 612.932 128.772 619.381 128.179C642.504 126.003 665.469 127.388 688.277 123.234C706.366 119.871 718.477 121.058 735.465 133.322Z" stroke="#11B2A8" stroke-miterlimit="10" stroke-linecap="round" stroke-linejoin="round" stroke-dasharray="8 8"/>
      </g>
      </g>      
    </svg>