<svg width="600" height="314" viewBox="0 0 600 314" fill="none" xmlns="http://www.w3.org/2000/svg">
<g opacity="0.1">
<path d="M41.8083 251.923L45.0732 257.118L51.6328 247.659L51.9163 247.25L52.0751 247.722L54.4106 254.656L60.4408 243.272L60.7041 242.775L60.8966 243.304L63.795 251.257L69.1166 242.862L69.3723 242.458L69.558 242.898L71.7299 248.039L76.6764 239.794L76.8287 239.54L77.0535 239.733L82.3437 244.268L87.312 236.012L87.3849 235.89H87.5262H99.6811L129.992 221.518L157.943 188.852V171.688V171.577L158.026 171.503L181.448 150.357L187.338 128.681L187.352 128.628L187.387 128.586L293.112 2.51829L293.22 2.3899L293.379 2.4407L443.458 50.1888L443.544 50.2161L443.593 50.2919L498.646 135.995L498.767 136.116L598.593 202.151L599.651 200.595L500.046 134.628L500.002 134.599L499.974 134.555L444.726 48.6028L444.436 48.5448L444.423 48.5421L444.41 48.5379L292.585 0.284326L292.149 0.72048L185.678 127.762L179.784 149.299L179.765 149.369L179.71 149.418L156.08 170.697V188.077V188.17L156.02 188.24L128.84 219.993L128.805 220.034L128.757 220.056L99.2928 234.003L99.2421 234.027H99.1859H86.3288L82.0685 241.154L81.9164 241.408L81.6912 241.215L76.4013 236.68L72.2994 243.518L72.0495 243.935L71.8558 243.489L69.6796 238.483L64.4964 246.597L64.2235 247.024L64.0507 246.547L61.0128 238.173L55.0528 249.416L54.782 249.927L54.5953 249.379L52.4708 243.152L45.3475 253.459L45.1308 253.773L44.9295 253.449L40.8224 246.848L37.3476 259.843L37.298 260.028H37.1061H33.5406L0.344666 312.256L1.89331 313.248L34.5317 262.008L34.6055 261.892H34.7426H38.7258L41.355 251.992L41.5025 251.437L41.8083 251.923Z" fill="#121212" stroke="white" stroke-width="0.5"/>
<path d="M315.498 253.874L319.375 238.364L319.544 237.688L319.843 238.317L326.518 252.35L333.484 232.903L333.662 232.407L333.934 232.859L341.997 246.273L343.619 245.275L333.226 228.052L326.471 246.939L326.268 247.505L326.009 246.963L318.982 232.226L313.695 253.376L315.498 253.874Z" fill="#121212" stroke="white" stroke-width="0.5"/>
<path d="M280.136 226.736L286.33 239.882L293.144 219.514L293.363 218.861L293.614 219.502L300.643 237.417L317.323 163.202L317.814 163.215C318.838 169.201 320.589 178.808 322.774 188.296C324.961 197.792 327.575 207.141 330.317 212.627L330.317 212.627C337.006 226.08 348.414 236.516 350.08 237.993L351.324 236.562C351.223 236.473 351.085 236.351 350.914 236.195C350.546 235.859 350.021 235.369 349.375 234.741C348.082 233.484 346.303 231.672 344.314 229.431C340.338 224.951 335.516 218.747 332.076 211.826C328.592 204.858 325.278 191.233 322.827 179.322C320.507 168.043 318.953 158.263 318.759 157.04C318.748 156.97 318.741 156.929 318.739 156.916L318.738 156.913L317.994 152.074L300.4 230.364L300.221 231.162L299.924 230.4L293.322 213.475L286.371 234.406L286.173 235.001L285.907 234.434L279.997 221.854L271.394 241.598L271.372 241.649L271.33 241.686C269.409 243.367 251.536 258.155 218.194 253.128L217.883 254.992C222.743 255.599 227.372 255.903 231.695 255.903C258.556 255.903 272.046 243.336 272.643 242.739L272.767 242.615L279.681 226.742L279.901 226.237L280.136 226.736Z" fill="#121212" stroke="white" stroke-width="0.5"/>
<path d="M243.049 230.304L256.516 192.011L256.813 191.165L256.996 192.043L264.022 225.725L268.011 209.84L268.212 209.042L268.489 209.817L271.871 219.273L273.607 218.653L267.902 202.573L264.478 216.344L263.991 216.335L257.242 184.198L241.313 229.684L243.049 230.304Z" fill="#121212" stroke="white" stroke-width="0.5"/>
<path d="M262.881 140.192L262.782 140.096L262.811 139.961L291.435 4.52656L289.64 4.1551L260.728 140.718L293.222 172.435L294.531 171.063L262.881 140.192Z" fill="#121212" stroke="white" stroke-width="0.5"/>
<path d="M242.102 147.812L167.966 174.91L168.585 176.646L256.178 144.614L180.833 148.916L180.957 150.781L242.002 147.328L242.102 147.812Z" fill="#121212" stroke="white" stroke-width="0.5"/>
<path d="M528.711 183.672L525.105 173.828L520.019 181.907L519.721 182.381L519.567 181.842L514.809 165.149L508.696 181.075L508.437 181.75L508.224 181.059L498.141 148.419L488.687 178.615L490.495 179.176L497.983 155.46L498.224 154.698L498.46 155.462L508.408 187.544L514.374 171.757L514.641 171.052L514.848 171.777L519.187 186.926L524.56 178.565L524.835 178.139L525.006 178.616L527.484 185.508L527.885 185.623C527.914 185.625 527.944 185.63 527.971 185.634C528.015 185.642 528.07 185.653 528.133 185.666C528.259 185.693 528.427 185.731 528.631 185.78C528.895 185.843 529.224 185.923 529.609 186.017C529.818 186.068 530.042 186.123 530.282 186.182C531.646 186.514 533.497 186.956 535.586 187.399C539.769 188.285 544.888 189.166 548.957 189.166C550.717 189.166 552.24 189.028 553.358 188.641L552.672 186.894C551.456 187.28 549.775 187.387 547.87 187.315C545.833 187.238 543.51 186.955 541.166 186.57C536.477 185.8 531.682 184.616 528.878 183.826L528.755 183.792L528.711 183.672Z" fill="#121212" stroke="white" stroke-width="0.5"/>
<path d="M406.84 82.795L407.702 81.1426L390.054 71.9357L389.193 73.5881L406.84 82.795Z" fill="#121212" stroke="white" stroke-width="0.5"/>
<path d="M338.878 102.361L314.625 106.339L314.936 108.209L346.166 103.029L323.842 93.1479L323.094 94.8942L338.939 101.886L339.708 102.225L338.878 102.361Z" fill="#121212" stroke="white" stroke-width="0.5"/>
</g>
</svg>
