<svg width="555" height="148" viewBox="0 0 555 148" fill="none" xmlns="http://www.w3.org/2000/svg">
        <rect width="555" height="148" rx="20" fill="#11B2A8"></rect>
        <mask id="mask0_0_1450" style="mask-type:alpha" maskUnits="userSpaceOnUse" x="0" y="0" width="555" height="148">
        <rect width="555" height="148" rx="20" fill="#11B2A8"></rect>
        </mask>
        <g mask="url(#mask0_0_1450)">
        <g opacity="0.22">
        <mask id="mask1_0_1450" style="mask-type:alpha" maskUnits="userSpaceOnUse" x="-5" y="0" width="1440" height="556">
        <rect x="-4.5" y="0.5" width="1439" height="555" fill="#E0E0E0" stroke="#11B2A8"></rect>
        </mask>
        <g mask="url(#mask1_0_1450)">
        <path d="M223.966 106.023C228.842 109.189 234.19 110.771 239.224 110.376C257.47 108.793 268.953 78.1309 280.12 63.6901C301.827 35.5998 332.5 30.8523 362.543 32.237C395.732 33.8196 433.169 37.3802 457.707 9.09205C487.75 -25.5263 494.514 -132.151 444.022 -145.998C428.764 -150.152 412.878 -144.416 398.249 -137.294C383.621 -130.173 369.15 -121.666 353.577 -119.688C336.904 -117.71 320.231 -123.645 303.557 -125.623C250.234 -131.755 229.471 -45.7037 211.54 5.53145C204.776 25.1156 197.698 45.8865 200.057 67.0532C201.788 82.0875 211.854 98.3085 223.966 106.023Z" stroke="white" stroke-miterlimit="10" stroke-linecap="round" stroke-linejoin="round"></path>
        <path d="M484.143 414.622C498.299 406.709 512.77 399.192 527.242 392.07C547.69 381.982 569.397 372.684 590.946 377.234C609.507 380.993 629.169 394.84 645.999 384.158C660.313 375.058 664.875 349.737 679.975 342.814C693.031 336.681 699.952 348.748 711.749 352.111C751.387 363.585 751.387 293.754 746.196 262.301C741.949 236.387 735.657 208.692 718.984 192.471C675.099 149.544 607.147 201.768 555.869 166.161C509.153 133.719 458.975 117.695 404.394 134.114C345.408 151.918 299.321 239.948 320.084 314.13C328.42 343.803 343.364 369.717 355.318 397.214C363.025 415.215 371.205 435.195 370.261 455.768C369.632 468.627 359.25 488.606 374.98 496.124C384.26 500.476 393.226 489.2 398.417 478.715C415.405 445.284 456.459 430.052 484.143 414.622Z" stroke="white" stroke-miterlimit="10" stroke-linecap="round" stroke-linejoin="round"></path>
        <path d="M139.039 159.832C147.218 162.997 155.083 166.558 162.319 171.503C185.441 187.329 209.035 204.737 226.023 230.651C244.584 258.94 246.943 298.504 236.877 332.924C222.563 382.181 170.341 406.908 189.688 466.056C197.238 489.003 212.496 506.61 229.641 518.874C259.213 540.041 292.874 549.141 322.76 569.318C345.253 584.55 368.375 597.804 393.071 605.915C417.923 614.223 444.663 620.356 464.954 641.72C486.504 664.667 496.099 700.077 506.48 733.113C518.278 771.094 533.535 811.449 561.848 835.187C593.15 861.695 638.766 855.959 669.281 829.451C683.909 816.592 696.178 797.799 699.324 775.644C701.212 762.785 699.796 749.532 699.796 736.278C699.796 723.222 701.212 709.177 707.661 698.89C719.773 679.306 745.254 679.503 763.029 681.68C789.14 684.845 812.419 695.131 835.856 709.968C861.653 726.387 887.606 745.575 916.391 748.938C950.367 752.894 984.343 733.706 1008.57 703.835C1032.79 673.767 1048.05 633.807 1057.17 592.463C1066.45 550.13 1060.79 504.829 1073.21 463.485C1081.71 434.999 1100.43 409.084 1124.49 404.535C1145.73 400.38 1163.19 413.436 1181.75 423.723C1196.38 431.834 1212.26 444.494 1228.78 444.692C1264.01 445.285 1292.17 406.513 1306.8 366.158C1330.08 301.866 1332.12 229.86 1324.57 160.623C1321.11 129.368 1317.49 98.1123 1311.83 67.4503C1298.3 -5.54501 1264.01 -110.587 1190.56 -99.707C1162.4 -95.5528 1136.13 -79.1339 1112.38 -59.9454C1086.9 -39.3722 1062.52 -13.6556 1050.09 21.1606C1031.53 73.3849 1065.19 102.464 1059.69 147.369C1054.34 191.483 1010.93 216.804 979.31 216.606C900.033 216.211 821.7 129.764 777.5 53.9988C762.085 27.6888 744.782 -10.2926 716.784 -13.8534C685.482 -17.8098 651.978 -5.34704 625.71 15.424C605.891 31.2495 569.241 70.8133 544.546 54.3943C534.322 47.6685 530.075 32.0408 527.873 17.6C519.379 -38.7786 525.67 -95.3549 526.457 -152.525C526.929 -186.55 531.962 -228.685 520.165 -260.534C515.289 -273.986 504.593 -285.064 492.796 -283.877C485.717 -283.283 479.426 -278.338 473.291 -273.59C442.461 -249.061 411.632 -224.531 380.487 -201.188C352.646 -180.417 321.344 -166.372 288.627 -166.372C265.032 -166.372 238.45 -172.9 217.844 -188.132C201.485 -200.397 193.778 -225.916 175.689 -235.015C146.589 -249.654 105.85 -222.157 82.2555 -202.375C53.7851 -178.439 27.6741 -147.184 10.529 -109.598C-15.582 -52.2304 -11.9642 18.7869 15.7197 73.9785C30.82 104.245 55.6727 124.422 81.3118 138.27C99.558 148.556 120.164 152.711 139.039 159.832Z" stroke="white" stroke-miterlimit="10" stroke-linecap="round" stroke-linejoin="round"></path>
        <path d="M780.798 346.375C775.764 359.629 768.529 371.894 758.147 382.181C743.047 397.215 723.542 405.326 704.352 404.732C693.342 404.336 682.174 401.369 671.32 405.919C663.456 409.084 655.905 414.821 648.512 419.173C624.446 433.812 604.313 429.657 578.516 427.679C546.743 425.305 514.497 437.372 488.386 460.121C466.365 479.31 442.299 513.137 455.511 550.129C458.185 557.646 463.376 563.383 469.039 567.537C486.97 580.396 509.149 577.033 529.597 574.263C583.235 566.944 637.345 600.573 686.578 622.135C694.443 625.498 707.184 631.037 715.52 627.081C724.801 622.729 728.576 606.31 734.238 597.21C746.979 576.637 769.944 570.109 790.393 574.065C805.965 577.033 823.425 584.748 836.008 596.815C845.918 606.31 850.637 617.19 864.164 618.179C895.151 620.157 918.903 581.582 925.352 547.162C929.127 527.182 929.127 506.213 934.475 486.827C941.239 462.891 967.664 429.855 983.236 463.88C988.899 476.343 989.056 491.179 990.944 505.224C992.831 519.27 998.022 534.502 1008.72 539.249C1020.2 544.59 1033.26 534.699 1039.55 521.445C1045.84 508.192 1047.26 492.366 1049.46 477.134C1054.02 446.868 1062.83 416.997 1079.19 394.05C1103.57 360.025 1129.36 364.377 1161.61 360.619C1195.58 356.662 1213.52 308.79 1223.43 267.841C1234.91 220.76 1244.82 170.119 1233.02 123.235C1221.22 76.3523 1178.91 38.5687 1142.89 57.5594C1107.34 76.3522 1099.01 133.522 1078.56 174.668C1056.54 219.376 1019.89 238.168 980.091 245.29C956.496 249.444 931.015 243.905 908.049 238.366C883.354 232.432 858.659 227.09 833.806 222.738C825.784 221.354 817.29 219.969 809.583 223.332C797.314 228.871 795.112 246.081 794.325 260.522C792.595 290.195 790.55 320.659 780.798 346.375Z" stroke="white" stroke-miterlimit="10" stroke-linecap="round" stroke-linejoin="round"></path>
        <path d="M335.967 -104.851C306.396 -98.5204 278.869 -88.8272 260.937 -52.6262C250.241 -31.0639 244.264 -6.53428 238.444 17.5997C236.242 26.6994 234.04 36.5904 236.714 45.2944C242.377 64.2851 263.611 51.8223 272.735 43.9095C289.408 33.4251 297.587 11.8628 317.406 8.30204C342.573 3.95001 371.044 9.09351 396.368 9.48915C413.042 9.68697 430.659 9.68682 444.501 -1.78671C458.185 -13.0624 465.421 -33.4377 468.881 -53.6153C471.398 -68.8474 472.185 -85.0686 468.252 -100.103C464.32 -114.939 455.354 -128.193 443.242 -132.545C428.771 -137.689 413.828 -129.182 399.829 -122.457C379.538 -112.17 357.359 -109.4 335.967 -104.851Z" stroke="white" stroke-miterlimit="10" stroke-linecap="round" stroke-linejoin="round"></path>
        <path d="M278.392 -140.062C277.291 -139.865 276.032 -139.667 274.931 -139.469C236.237 -132.941 198.014 -110.983 172.06 -73.7929C158.533 -54.4066 147.679 -32.2506 139.972 -8.31451C117.793 61.5157 159.949 151.326 221.608 154.293C268.01 156.469 296.166 105.827 335.962 86.0452C366.32 70.8131 417.913 59.7352 448.585 70.4174C455.349 72.7912 462.427 76.1542 469.033 73.3847C478.628 69.6261 482.718 55.7788 485.392 43.7118C494.358 4.93924 505.054 -36.2071 501.908 -77.1557C500.021 -101.685 494.043 -130.765 483.819 -151.734C475.168 -169.34 461.798 -181.604 445.125 -182.593C429.71 -183.582 418.227 -172.9 404.542 -166.174C391.802 -160.042 377.33 -156.086 363.96 -152.723C335.962 -145.799 306.233 -143.425 278.392 -140.062Z" stroke="white" stroke-miterlimit="10" stroke-linecap="round" stroke-linejoin="round"></path>
        <path d="M1024.92 661.501C1045.84 617.98 1052.29 564.767 1058.74 515.51C1063.14 481.683 1069.12 446.471 1084.85 417.787C1099.48 391.279 1124.65 386.136 1149.18 388.708C1175.61 391.477 1198.89 405.522 1225.63 398.994C1241.52 395.236 1256.62 385.74 1267.94 371.102C1279.27 356.661 1286.82 338.264 1292.01 318.877C1295.15 307.008 1297.51 294.546 1299.4 282.281C1307.74 228.078 1308.68 171.7 1299.09 117.695C1284.46 36.1936 1238.21 -73.0027 1158.94 -50.6491C1120.56 -39.769 1089.57 1.9708 1081.55 50.4366C1075.1 89.6048 1082.96 137.477 1062.83 171.502C1045.68 200.384 1017.37 216.407 989.686 221.155C935.105 230.452 879.895 210.275 836.638 167.15C801.719 132.334 777.967 84.6594 749.34 42.326C708.128 -18.8002 646.783 11.2684 605.1 55.9756C592.988 69.0317 581.191 83.0768 566.563 90.7918C497.667 127.784 511.824 -4.55732 516.071 -50.0558C520.947 -102.28 517.329 -163.011 502.229 -212.07C497.667 -227.302 489.016 -243.721 476.118 -244.117C469.04 -244.314 462.591 -239.369 456.613 -234.621C438.21 -219.983 419.177 -200.003 399.201 -189.123C385.201 -181.408 367.899 -176.462 352.956 -171.121C313.318 -157.076 270.376 -157.669 231.052 -172.902C212.334 -180.023 194.402 -190.507 175.212 -194.464C103.8 -209.102 64.0048 -117.512 51.4212 -43.5276C44.9721 -5.54632 48.5899 32.8306 64.3194 66.4599C80.3635 100.683 111.351 122.443 138.563 140.84C166.561 159.831 195.818 177.437 218.94 204.933C254.804 247.662 273.836 324.614 238.602 375.058C225.39 394.049 205.256 414.227 202.582 440.734C199.75 469.616 224.918 489.2 241.748 502.256C276.668 529.357 314.104 556.459 351.226 578.417C383.471 597.605 422.323 589.692 453.153 613.431C470.613 626.684 482.724 649.236 492.162 671.392C505.689 703.438 511.352 738.848 525.037 770.895C536.047 796.611 551.777 819.954 572.54 832.812C606.044 853.583 659.681 837.362 676.827 792.655C682.489 777.818 684.377 761.399 686.736 745.178C689.096 729.155 692.399 712.538 700.264 699.482C710.802 681.876 728.262 673.963 745.25 673.37C752.957 673.172 760.193 672.974 767.429 673.37C783.315 673.963 798.416 676.733 814.617 684.646C839.155 696.712 860.547 717.484 886.029 726.781C910.724 735.881 937.464 732.518 961.059 720.451C978.99 711.351 1001.48 699.68 1013.91 680.689C1017.84 675.15 1021.46 668.424 1024.92 661.501Z" stroke="white" stroke-miterlimit="10" stroke-linecap="round" stroke-linejoin="round"></path>
        <path d="M1232.72 348.552C1243.89 338.661 1253.96 326.397 1261.98 310.967C1282.9 271.007 1287.46 219.376 1286.36 172.691C1285.26 129.566 1277.87 72.7922 1256.95 37.7782C1230.68 -6.33556 1174.21 -31.4586 1134.26 -1.98349C1117.11 10.677 1101.7 41.9325 1096.66 66.0664C1088.8 102.663 1085.34 137.281 1068.19 169.724C1051.36 201.573 1024.78 225.904 994.106 229.663C960.131 233.817 920.492 231.641 888.561 215.816C848.136 195.836 815.419 169.13 787.42 126.401C769.646 98.9044 746.996 63.6925 722.143 45.6909C696.504 27.2937 655.764 42.5258 631.069 56.7688C615.969 65.4728 601.97 76.9464 589.858 91.1894C579.319 103.652 568.78 116.51 553.68 119.873C535.591 123.83 518.918 110.18 509.637 91.3871C494.694 60.7251 501.615 17.7984 503.975 -15.8308C507.593 -67.0661 511.839 -119.29 496.11 -168.35C491.234 -183.582 483.526 -199.407 470.943 -203.561C461.82 -206.529 452.225 -202.374 443.416 -198.418C416.204 -185.955 389.149 -170.526 360.836 -163.8C323.557 -155.096 285.806 -149.359 247.898 -146.589C223.675 -145.007 199.137 -144.414 175.542 -137.094C159.813 -132.149 145.971 -124.038 134.488 -113.356C114.827 -94.9587 101.614 -68.4507 95.7939 -35.0192C87.1427 14.2378 95.9512 64.8795 124.264 101.476C154.308 140.249 196.777 159.239 226.349 200.386C257.493 243.906 283.919 326.199 251.988 379.017C240.82 397.612 221.315 412.646 216.911 436.582C211.563 465.464 239.247 484.257 256.549 494.345C281.087 508.588 296.817 533.513 320.569 549.339C336.613 560.021 352.971 573.473 370.431 579.408C389.936 586.133 410.384 589.694 430.518 592.068C445.146 593.651 460.876 594.838 472.516 606.113C481.01 614.224 485.099 627.478 489.975 638.951C498.155 658.14 504.289 678.911 511.21 698.693C516.873 714.914 519.547 732.717 525.839 749.136C534.962 772.677 547.703 793.844 563.432 810.856C584.51 833.803 621.16 841.716 642.866 814.813C666.775 784.942 670.55 745.18 680.145 707.001C689.111 670.998 726.547 664.272 751.715 662.096C783.331 659.327 817.778 650.82 844.676 677.328C855.529 688.01 865.281 701.066 878.022 707.594C890.921 714.32 905.549 713.529 919.548 712.144C940.469 709.968 962.018 706.803 980.579 694.341C1008.11 675.943 1025.41 639.94 1035.79 602.948C1041.77 581.386 1047.11 557.845 1050.73 535.69C1055.92 503.643 1058.44 469.024 1068.51 438.56C1075.27 417.789 1086.91 398.403 1103.11 388.908C1124.82 376.247 1149.51 382.38 1172.48 380.401C1193.56 378.423 1215.26 363.784 1232.72 348.552Z" stroke="white" stroke-miterlimit="10" stroke-linecap="round" stroke-linejoin="round"></path>
        <path d="M263.297 123.038C274.78 113.939 285.004 102.465 296.172 92.7721C330.305 62.5058 372.303 46.4823 413.986 47.6692C430.345 48.2627 447.962 51.0321 462.276 40.9433C481.308 27.4916 487.128 -3.1703 488.229 -30.6672C489.96 -71.418 495.308 -128.39 458.343 -149.359C443.558 -157.865 426.57 -156.678 410.683 -152.326C385.201 -145.402 360.663 -135.907 334.395 -134.72C316.62 -133.929 298.531 -134.325 281.072 -129.181C236.243 -115.73 210.446 -55.1968 194.087 -5.74199C185.908 18.9854 177.571 44.5041 177.729 71.4075C177.886 98.1131 188.582 126.797 208.401 136.292C223.816 143.612 241.276 138.468 255.747 128.775C258.421 126.797 260.938 125.017 263.297 123.038Z" stroke="white" stroke-miterlimit="10" stroke-linecap="round" stroke-linejoin="round" stroke-dasharray="8 8"></path>
        <path d="M718.043 380.4C732.672 379.806 744.312 364.376 751.705 348.353C774.512 298.898 779.231 201.571 736.447 164.776C719.144 149.742 696.179 151.325 675.259 153.303C639.396 156.666 603.533 165.765 568.928 152.709C533.694 139.455 503.336 118.091 469.832 99.496C422.014 73.1861 367.59 79.714 340.378 138.466C316.626 189.702 293.504 252.806 312.065 312.745C319.3 336.088 331.727 356.068 341.951 377.432C352.175 398.797 360.826 423.128 358.939 448.054C358.152 458.34 355.636 468.429 355.006 478.716C354.377 489.002 355.636 500.278 361.298 507.795C368.534 517.093 380.96 517.488 390.398 511.751C399.835 506.015 406.914 495.926 413.52 485.639C436.957 449.636 477.539 433.019 511.2 415.611C533.536 404.138 550.367 393.456 575.849 395.434C592.837 396.621 610.454 401.962 627.442 400.775C639.711 399.786 651.35 393.258 660.788 383.565C673.057 370.904 680.765 366.75 696.651 374.069C703.415 377.234 710.179 380.795 717.257 380.795C717.572 380.399 717.886 380.4 718.043 380.4Z" stroke="white" stroke-miterlimit="10" stroke-linecap="round" stroke-linejoin="round"></path>
        <path d="M464.635 146.974C419.806 136.886 370.73 158.052 341.158 202.166C313.16 244.103 320.552 297.911 342.574 340.837C353.27 362.004 363.179 393.259 377.808 409.678C392.436 426.097 414.3 427.284 432.232 419.965C452.523 411.657 469.511 394.446 488.229 381.39C523.463 356.663 564.989 346.772 605.099 352.904C620.042 355.278 634.671 375.06 649.299 365.169C661.883 356.663 665.029 335.1 678.556 327.583C692.87 319.671 710.015 333.32 724.644 326.792C735.497 321.847 741.631 307.01 742.261 292.569C742.89 278.129 739.115 264.083 735.182 250.632C727.79 224.322 716.307 201.177 693.342 194.253C677.612 189.505 661.254 191.879 645.367 195.242C629.48 198.407 613.279 202.364 597.235 200.188C573.483 197.022 552.72 180.999 531.485 168.339C509.149 154.491 488.229 152.118 464.635 146.974Z" stroke="white" stroke-miterlimit="10" stroke-linecap="round" stroke-linejoin="round" stroke-dasharray="8 8"></path>
        <path d="M939.824 442.714C945.644 435.197 953.036 428.273 960.272 427.284C972.384 425.504 982.608 437.571 995.821 433.219C1006.67 429.658 1012.97 415.613 1016.27 402.161C1021.62 380.994 1023.35 357.058 1035.62 341.233C1048.51 324.418 1068.96 322.044 1087.52 322.835C1109.55 323.824 1144.46 328.572 1164.44 315.318C1184.42 302.065 1193.86 269.82 1200.3 244.499C1211 202.363 1226.57 134.512 1196.06 98.5085C1162.71 59.3403 1135.34 98.9041 1118.67 135.105C1081.86 215.618 1014.38 275.161 939.509 270.611C927.083 269.82 914.656 268.039 902.387 268.435C878.007 269.424 846.862 284.854 830.346 307.01C817.763 323.824 808.482 344.002 796.842 361.608C774.349 395.831 745.564 420.558 712.689 434.208C673.838 450.231 644.109 481.091 600.853 479.904C587.64 479.508 574.427 476.541 561.529 479.706C548.631 483.069 535.89 495.334 535.261 511.753C534.789 527.578 545.957 540.832 558.068 544.987C573.483 550.13 589.842 547.558 605.571 548.745C623.031 550.13 637.817 558.438 653.389 567.934C666.445 575.846 680.916 583.759 695.702 583.364C711.431 582.77 724.015 571.297 738.958 566.747C763.339 559.625 788.978 558.834 813.673 564.966C836.481 570.703 861.333 581.583 881.782 567.538C900.972 554.284 903.331 529.952 910.252 506.807C915.443 489.399 923.465 469.815 932.116 454.583C934.004 450.825 936.678 446.67 939.824 442.714Z" stroke="white" stroke-miterlimit="10" stroke-linecap="round" stroke-linejoin="round"></path>
        <path d="M1149.5 371.697C1156.26 371.697 1163.03 371.301 1169.79 369.719C1205.97 361.014 1226.57 315.912 1240.41 276.941C1254.26 237.971 1258.03 193.066 1252.68 150.93C1249.07 122.444 1241.67 93.9583 1227.2 71.6047C1212.73 49.2511 1190.24 33.6235 1167.43 35.7995C1142.58 37.9755 1115.68 57.5597 1106.08 87.0347C1100.74 103.454 1093.97 119.081 1088.31 134.907C1083.28 149.348 1080.13 163.195 1072.58 176.251C1058.42 200.385 1037.98 217.398 1015.95 228.278C998.652 236.982 980.248 236.784 962.159 238.564C922.521 242.521 888.388 224.519 852.525 206.913C838.683 200.187 807.381 176.053 792.753 187.923C785.832 193.461 782.371 203.748 781.113 213.837C780.012 223.926 781.113 234.212 781.428 244.499C782.843 280.7 776.551 317.494 763.024 349.541C751.069 378.422 725.116 398.007 698.848 394.05C690.511 392.665 682.174 389.303 673.995 390.687C662.984 392.665 654.176 402.556 644.266 408.689C624.132 420.954 600.381 416.602 577.888 414.623C550.99 412.447 529.913 423.723 505.532 435.79C482.409 447.264 455.355 469.419 443.558 497.905C433.805 521.644 436.007 553.888 452.209 571.098C463.534 583.165 479.264 586.331 494.207 586.528C523.621 587.122 553.192 590.485 581.977 598.398C598.021 602.75 615.638 604.332 631.053 611.256C644.738 617.388 659.681 624.905 672.265 634.005C682.646 641.522 691.455 651.215 704.667 649.831C723.543 648.05 728.576 633.807 738.486 617.784C748.081 601.958 770.102 590.089 785.674 591.276C811.314 593.452 829.245 615.41 850.952 628.664C878.636 645.479 910.095 613.432 922.207 583.759C932.588 558.24 936.206 529.161 943.441 502.06C947.059 488.212 955.396 472.189 966.721 474.958C977.26 477.53 980.72 493.751 983.237 506.807C986.068 521.644 990.787 536.48 999.596 546.965C1000.54 547.954 1001.33 548.943 1002.27 549.932C1033.57 582.572 1046.16 520.852 1051.35 492.564C1060 445.483 1071.16 386.137 1114.74 374.268C1126.06 371.103 1137.86 371.895 1149.5 371.697Z" stroke="white" stroke-miterlimit="10" stroke-linecap="round" stroke-linejoin="round"></path>
        <path d="M-234.385 454.187C-224.161 465.067 -213.15 475.156 -201.51 484.256C-178.86 502.059 -154.636 520.852 -130.727 535.293C-89.3586 560.218 -47.5181 575.055 -2.21713 582.77C34.5899 589.1 77.2169 588.704 109.62 561.009C147.213 528.963 149.73 461.704 151.932 409.875C154.134 355.277 149.258 294.745 119.372 252.213C101.755 227.288 74.2283 212.65 53.3081 192.67C11.9395 152.908 -10.5538 100.882 -31.0021 42.1293C-47.8327 -6.13864 -76.775 -27.1077 -114.683 -45.1092C-123.177 -49.0656 -132.143 -53.2197 -140.951 -51.4394C-152.906 -49.2634 -162.029 -37.592 -171.781 -28.8879C-197.106 -6.73214 -232.34 -3.96262 -259.552 -22.162C-273.079 -31.0639 -286.135 -45.3071 -301.392 -43.1311C-318.695 -40.7572 -329.548 -18.6015 -334.267 2.3674C-338.829 23.3363 -340.087 46.2834 -349.839 64.285C-360.221 83.4735 -379.096 94.947 -385.545 116.509C-391.208 135.5 -385.388 156.667 -379.096 175.459C-368.086 209.089 -355.659 241.927 -341.975 273.776C-313.19 341.232 -280.472 405.523 -234.385 454.187Z" stroke="white" stroke-miterlimit="10" stroke-linecap="round" stroke-linejoin="round"></path>
        <path d="M-53.1774 825.693C-36.976 856.355 -20.4601 889.786 -7.87647 922.426C6.28009 959.418 11.6281 1006.9 -8.34834 1039.54C-21.5611 1061.1 -51.9191 1082.26 -73.9404 1082.26C-116.567 1082.46 -131.51 1034.59 -160.295 1004.72C-176.969 987.509 -198.675 971.09 -220.697 977.42C-229.977 980.189 -238.943 984.739 -247.122 977.618C-254.83 970.892 -260.021 952.89 -263.324 942.406C-271.503 915.898 -274.334 887.214 -278.267 859.322C-288.334 788.305 -308.939 720.848 -327.343 652.996C-335.837 621.938 -347.319 588.507 -348.892 555.471C-350.308 527.381 -359.116 504.038 -363.049 476.541C-366.509 452.407 -364.936 426.493 -354.555 405.722C-342.443 381.192 -325.927 364.378 -332.219 333.32C-338.354 303.647 -350.78 276.348 -365.408 252.214C-383.812 221.75 -405.99 195.44 -427.697 168.536C-439.18 154.095 -450.977 139.061 -456.797 119.873C-462.617 100.684 -460.886 76.5503 -448.46 63.2964C-434.618 48.6577 -413.698 52.4163 -396.867 44.3057C-381.767 36.9864 -370.442 20.3696 -363.993 1.77458C-357.543 -16.8204 -355.184 -37.3937 -353.768 -57.5712C-352.982 -69.6382 -351.724 -83.0899 -344.016 -90.4092C-337.882 -96.146 -329.388 -96.1461 -322.152 -92.7832C-314.917 -89.4203 -308.939 -83.4857 -302.647 -77.749C-280.312 -57.3736 -254.515 -40.9544 -226.989 -37.9871C-199.462 -35.0198 -169.89 -47.0868 -153.06 -74.5837C-146.768 -84.8703 -140.004 -98.5199 -129.78 -97.1351C-118.612 -95.7504 -114.68 -78.1445 -108.231 -66.4731C-98.4784 -48.8672 -80.2322 -43.1305 -64.1881 -35.4156C-33.3582 -20.3813 -28.4821 14.0393 -16.685 48.6577C-3.62947 87.0346 13.6729 123.038 34.7505 155.085C53.9405 184.362 84.4558 194.253 108.837 215.815C140.925 244.103 152.25 277.733 159.014 325.209C165.305 369.521 163.89 415.613 160.429 460.32C157.755 495.73 156.025 530.546 132.588 555.273C114.971 573.868 92.0059 582.572 69.1981 587.122C55.1989 589.892 40.885 591.474 26.7285 593.452C17.9199 594.639 9.26873 596.222 0.617503 598.398C-10.2359 601.167 -19.9882 608.487 -27.6956 618.18C-38.7063 631.829 -35.5604 662.491 -53.1774 666.843C-59.312 668.426 -65.7611 667.041 -71.8956 669.019C-83.85 672.778 -91.5575 688.208 -93.1304 703.638C-97.2201 745.575 -75.8279 783.755 -58.2109 816.395C-56.6379 819.164 -54.9077 822.527 -53.1774 825.693Z" stroke="white" stroke-miterlimit="10" stroke-linecap="round" stroke-linejoin="round"></path>
        <path d="M1328.66 139.061C1331.65 186.933 1335.43 235.399 1331.34 283.271C1328.66 313.933 1323.16 344.793 1312.94 372.883C1307.74 387.126 1301.14 400.776 1292.8 412.645C1286.04 422.14 1278.17 437.768 1269.36 444.098C1261.5 449.637 1248.6 447.659 1239.64 449.044C1228.78 450.824 1217.61 449.242 1207.39 444.494C1185.53 434.603 1162.09 422.338 1138.49 429.262C1121.66 434.207 1107.51 448.846 1097.44 466.65C1088.32 482.673 1083.44 500.477 1077.15 518.281C1071.49 534.304 1071.02 550.13 1069.44 567.538C1069.44 568.131 1069.29 568.527 1069.29 569.12C1067.4 589.693 1063.78 610.267 1057.96 629.653C1052.61 647.655 1041.6 660.908 1039.4 680.493C1038.93 685.042 1038.77 689.988 1036.72 693.944C1033.26 701.066 1026.03 702.648 1020.68 706.605C1015.02 710.759 1009.83 716.496 1004.79 721.639C991.739 734.893 977.582 747.356 961.695 754.279C937.157 765.159 909.788 761.994 884.935 751.905C860.083 741.816 839.005 719.463 814.624 709.968C792.76 701.264 767.593 700.077 744.942 700.077C734.246 700.077 722.449 701.461 714.585 710.759C703.417 724.013 705.147 746.366 703.731 765.555C701.529 795.426 688.945 823.714 670.227 842.507C650.094 862.882 629.96 868.619 603.849 864.267C563.109 857.541 535.425 830.637 513.876 787.711C503.023 766.148 500.034 743.003 492.484 720.452C478.17 678.316 447.655 641.324 413.679 625.499C397.163 617.784 380.962 613.432 364.603 604.926C344.941 594.441 324.965 584.55 305.145 575.055C280.45 563.186 251.98 550.921 227.284 533.513C217.217 526.391 207.78 518.281 199.6 508.785C183.399 490.388 171.602 462.891 172.231 434.999C173.017 407.502 194.567 384.357 207.622 363.982C230.902 327.583 239.239 288.81 221.936 245.685C196.926 183.57 144.862 175.658 96.5721 160.821C75.9664 154.491 54.8889 142.028 38.0583 125.609C23.5872 111.366 13.0484 91.3864 3.768 71.8023C-16.2085 29.469 -25.1743 -23.3488 -16.2085 -71.6167C0.307485 -160.635 67.7871 -227.301 135.109 -251.039C157.288 -258.754 173.489 -256.182 190.792 -235.807C199.443 -225.718 206.836 -214.047 216.274 -205.145C241.598 -180.615 271.327 -170.527 303.101 -177.45C329.998 -183.385 354.851 -199.408 377.973 -217.805C401.725 -236.4 425.948 -253.611 450.329 -270.821C467.317 -282.888 494.529 -315.133 514.662 -298.318C523.471 -290.999 528.662 -278.536 532.28 -266.073C543.133 -229.279 537.942 -182.989 537.628 -144.019C537.47 -100.696 531.808 -55.9891 533.381 -12.8645C534.324 15.6215 549.582 36.7881 573.019 33.8209C587.175 32.0405 599.13 20.1714 611.242 10.6761C636.094 -8.71022 668.182 -32.8443 698.069 -33.4377C721.191 -33.8334 747.459 -21.1728 760.2 3.7524C774.671 32.0406 785.525 60.5266 803.614 85.8475C834.601 129.368 874.554 163.393 918.596 182.185C954.145 197.418 1006.52 195.044 1029.17 151.523C1050.88 109.981 1029.33 61.5156 1045.22 17.0062C1053.56 -6.33648 1069.44 -23.9423 1085.17 -39.9656C1104.05 -59.1541 1124.02 -77.1558 1145.73 -91.0031C1164.76 -103.268 1192.29 -118.5 1214.31 -113.752C1296.42 -96.1464 1322.84 48.8553 1327.88 134.115C1328.35 135.5 1328.51 137.281 1328.66 139.061Z" stroke="white" stroke-miterlimit="10" stroke-linecap="round" stroke-linejoin="round"></path>
        <path d="M955.239 168.141C981.35 168.537 1006.67 152.909 1015.33 121.06C1019.1 107.015 1023.35 99.6958 1023.98 84.8593C1024.61 71.4076 1026.81 58.1537 1030.27 45.4932C1037.19 19.7767 1048.83 -3.76382 1063.46 -23.5458C1088.63 -57.5707 1121.34 -81.5067 1154.85 -101.091C1163.03 -105.838 1175.61 -111.18 1181.12 -120.675C1187.41 -131.357 1184.1 -150.941 1181.12 -162.415C1173.25 -193.472 1158.46 -210.287 1143.68 -234.817C1129.36 -258.357 1113.32 -280.513 1092.87 -295.943C1082.81 -303.46 1071.95 -311.571 1061.41 -317.901C1032.63 -335.111 997.709 -343.419 967.194 -355.684C938.723 -367.158 914.814 -391.094 885.086 -398.413C863.064 -403.754 838.212 -399.205 822.01 -379.62C799.989 -352.915 800.461 -310.384 794.956 -275.172C789.293 -238.575 773.721 -198.022 744.778 -182.79C714.421 -166.767 693.5 -220.772 679.029 -246.092C668.018 -265.479 644.11 -275.765 625.391 -270.82C596.292 -263.303 565.619 -237.388 554.451 -201.583C540.924 -157.865 542.812 -104.058 544.384 -58.1641C544.856 -42.3386 547.53 -25.7218 556.182 -14.4461C571.282 5.138 597.708 -0.203076 616.583 -13.6548C635.458 -27.1065 651.66 -47.0863 672.265 -55.1968C710.645 -70.0333 747.138 -54.0098 769.474 -12.0721C783.158 13.6444 791.652 43.3172 804.865 69.4293C836.796 130.753 897.669 167.152 955.239 168.141Z" stroke="white" stroke-miterlimit="10" stroke-linecap="round" stroke-linejoin="round"></path>
        <path d="M76.1155 526.786C111.192 489.399 114.181 413.634 108.046 360.222C101.597 302.855 79.4186 249.246 45.6002 210.077C18.86 179.218 -11.498 151.919 -30.688 113.146C-44.53 85.2534 -55.5406 51.4265 -73.4723 27.2925C-97.3811 -5.14983 -124.908 4.14763 -145.513 35.4031C-154.637 49.0526 -164.074 64.2848 -177.759 68.8346C-194.904 74.5714 -212.049 61.9109 -226.678 49.2504C-241.306 36.7878 -257.665 23.1382 -275.125 26.699C-289.124 29.6663 -300.135 43.118 -310.044 56.1741C-325.302 75.9561 -340.874 96.3314 -348.896 121.85C-360.379 157.853 -350.941 202.363 -342.762 238.366C-333.324 280.106 -318.381 320.065 -298.719 355.87C-285.349 380.202 -269.619 402.358 -252.317 422.338C-232.183 445.285 -209.847 464.869 -185.781 480.694C-154.007 501.465 -119.56 524.215 -84.3256 533.908C-33.5193 547.36 31.4436 574.461 76.1155 526.786Z" stroke="white" stroke-miterlimit="10" stroke-linecap="round" stroke-linejoin="round"></path>
        <path d="M-305.63 293.558C-297.923 317.889 -288.171 341.232 -276.216 362.794C-249.948 409.875 -212.04 447.857 -168.469 466.056C-132.291 481.09 -93.7538 488.608 -56.7894 472.782C7.07237 445.483 71.406 351.914 34.599 264.874C12.1058 211.463 -23.4429 166.953 -66.0699 139.061C-74.7211 133.324 -85.2599 128.379 -93.9111 134.115C-100.518 138.467 -103.821 147.963 -104.764 157.26C-105.708 166.558 -104.607 175.855 -104.45 185.153C-104.293 214.628 -115.775 244.301 -135.437 260.522C-155.099 276.743 -182.154 278.325 -201.973 262.5C-225.41 243.905 -234.848 207.111 -238.937 172.888C-242.083 146.776 -245.072 116.312 -263.161 102.86C-280.149 90.1993 -303.428 100.882 -314.911 120.861C-335.516 157.062 -327.337 197.615 -319.472 238.762C-315.855 257.357 -311.293 275.754 -305.63 293.558Z" stroke="white" stroke-miterlimit="10" stroke-linecap="round" stroke-linejoin="round"></path>
        <path d="M279.964 149.94C267.223 161.611 253.381 164.974 238.123 167.348C230.101 168.535 214.844 167.941 222.866 180.997C225.697 185.547 233.09 185.943 236.865 189.504C241.898 194.054 245.044 200.582 247.718 207.505C253.381 221.353 255.426 237.969 264.234 249.641C278.391 268.631 289.873 257.554 293.648 234.211C297.581 210.67 303.243 187.723 310.793 165.765C313.625 157.457 333.444 121.849 330.455 116.904C322.276 102.463 286.57 144.005 279.964 149.94Z" stroke="white" stroke-miterlimit="10" stroke-linecap="round" stroke-linejoin="round"></path>
        <path d="M-246.181 71.2098C-257.664 66.0665 -272.45 65.8686 -282.202 68.2425C-296.044 71.6054 -307.055 84.4637 -316.807 97.5198C-346.536 137.479 -341.345 191.484 -331.435 241.137C-318.852 304.637 -291.168 363.191 -252.631 407.305C-222.587 441.923 -188.297 465.859 -149.445 480.696C-111.694 495.137 -75.3589 500.082 -36.3498 501.269C-2.37401 502.258 32.0736 483.465 53.9376 450.429C91.2165 393.853 80.0486 321.253 53.4657 261.908C25.4672 199.792 -24.8672 159.635 -56.0116 99.498C-66.0785 79.9139 -77.8757 60.9231 -98.1668 59.5384C-111.694 58.7471 -125.222 66.6599 -133.401 80.3094C-140.479 92.1786 -143.31 107.015 -146.142 121.456C-148.973 135.897 -152.434 150.733 -160.456 161.613C-168.478 172.493 -182.477 177.834 -192.229 169.724C-197.577 165.372 -200.723 158.053 -203.712 150.931C-212.52 130.556 -221.172 95.3436 -234.699 79.5181C-237.845 75.7595 -241.777 72.9901 -246.181 71.2098Z" stroke="white" stroke-miterlimit="10" stroke-linecap="round" stroke-linejoin="round"></path>
        </g>
        </g>
        </g>        
        </svg>